<svg width="36" height="36" viewBox="0 0 36 36" fill="none" xmlns="http://www.w3.org/2000/svg">
<path d="M18 2C14.8355 2 11.7421 2.93838 9.11088 4.69649C6.4797 6.45459 4.42894 8.95345 3.21793 11.8771C2.00693 14.8007 1.69008 18.0177 2.30744 21.1214C2.92481 24.2251 4.44866 27.0761 6.6863 29.3137C8.92394 31.5513 11.7749 33.0752 14.8786 33.6926C17.9823 34.3099 21.1993 33.9931 24.1229 32.7821C27.0466 31.5711 29.5454 29.5203 31.3035 26.8891C33.0616 24.2579 34 21.1645 34 18C34 13.7565 32.3143 9.68687 29.3137 6.68629C26.3131 3.68571 22.2435 2 18 2ZM25.338 25.078C25.1998 25.3033 24.9779 25.4647 24.721 25.5269C24.4641 25.5891 24.193 25.5471 23.967 25.41C20.21 23.11 15.481 22.595 9.91101 23.867C9.78133 23.901 9.64613 23.9086 9.51345 23.8894C9.38077 23.8701 9.25333 23.8243 9.13869 23.7548C9.02404 23.6853 8.92455 23.5935 8.84612 23.4847C8.7677 23.376 8.71194 23.2526 8.68216 23.1219C8.65238 22.9911 8.64919 22.8558 8.67278 22.7238C8.69637 22.5918 8.74626 22.4659 8.81948 22.3536C8.8927 22.2413 8.98775 22.1449 9.09899 22.07C9.21023 21.9952 9.33538 21.9435 9.46701 21.918C15.562 20.525 20.79 21.124 25.007 23.701C25.1193 23.7696 25.217 23.8596 25.2944 23.9659C25.3718 24.0723 25.4275 24.1929 25.4583 24.3208C25.489 24.4487 25.4942 24.5815 25.4736 24.7114C25.4529 24.8413 25.4069 24.9659 25.338 25.078ZM27.296 20.718C27.1229 21 26.8449 21.2017 26.5231 21.2788C26.2013 21.3559 25.8621 21.302 25.58 21.129C20.7216 18.4214 14.9875 17.7518 9.63601 19.267C9.47927 19.3146 9.3147 19.3309 9.15168 19.3149C8.98866 19.2989 8.83039 19.2509 8.6859 19.1738C8.54141 19.0966 8.41354 18.9917 8.30958 18.8651C8.20562 18.7386 8.12761 18.5927 8.08001 18.436C8.0324 18.2793 8.01614 18.1147 8.03213 17.9517C8.04813 17.7887 8.09608 17.6304 8.17325 17.4859C8.25041 17.3414 8.35528 17.2135 8.48187 17.1096C8.60845 17.0056 8.75427 16.9276 8.91101 16.88C11.8976 16.0198 15.026 15.7648 18.1125 16.1299C21.199 16.495 24.1815 17.4728 26.885 19.006C27.1659 19.1791 27.3668 19.4563 27.4439 19.7772C27.5209 20.098 27.4677 20.4363 27.296 20.718ZM27.465 16.181C22.308 13.118 13.8 12.837 8.87701 14.331C8.50665 14.4161 8.11779 14.3575 7.78898 14.167C7.46017 13.9765 7.21592 13.6683 7.10558 13.3047C6.99524 12.941 7.02704 12.549 7.19455 12.2079C7.36206 11.8668 7.65279 11.602 8.00801 11.467C13.66 9.751 23.055 10.083 28.992 13.607C29.3056 13.8226 29.5256 14.1493 29.6073 14.521C29.689 14.8927 29.6264 15.2816 29.4321 15.6088C29.2379 15.9361 28.9265 16.1772 28.561 16.2835C28.1956 16.3897 27.8034 16.3531 27.464 16.181H27.465Z" fill="#1ED760"/>
</svg>
