<svg width="19" height="16" viewBox="0 0 19 16" fill="none" xmlns="http://www.w3.org/2000/svg">
<path d="M3.04546 0.5C2.24981 0.5 1.48674 0.81607 0.924135 1.37868C0.361526 1.94129 0.0454559 2.70435 0.0454559 3.5V3.8015L9.04546 8.648L18.0455 3.803V3.5C18.0455 2.70435 17.7294 1.94129 17.1668 1.37868C16.6042 0.81607 15.8411 0.5 15.0455 0.5H3.04546ZM18.0455 5.5055L9.40096 10.16C9.29169 10.2188 9.16954 10.2496 9.04546 10.2496C8.92137 10.2496 8.79922 10.2188 8.68996 10.16L0.0454559 5.5055V12.5C0.0454559 13.2956 0.361526 14.0587 0.924135 14.6213C1.48674 15.1839 2.24981 15.5 3.04546 15.5H15.0455C15.8411 15.5 16.6042 15.1839 17.1668 14.6213C17.7294 14.0587 18.0455 13.2956 18.0455 12.5V5.5055Z" fill="#FB8C00"/>
</svg>
