<svg width="36" height="36" viewBox="0 0 36 36" fill="none" xmlns="http://www.w3.org/2000/svg">
<path d="M21.969 8.83601C22.8584 7.77766 23.361 6.44805 23.394 5.06601C23.3957 4.88501 23.3782 4.70435 23.342 4.52701C21.807 4.67479 20.3881 5.40911 19.381 6.57701C18.4842 7.58642 17.9626 8.87402 17.904 10.223C17.9046 10.3864 17.9221 10.5492 17.956 10.709C18.0763 10.7318 18.1985 10.7435 18.321 10.744C19.0259 10.6869 19.7122 10.4885 20.3389 10.1607C20.9656 9.83295 21.52 9.38243 21.969 8.83601ZM22.927 11.043C20.894 11.043 19.244 12.276 18.184 12.276C17.055 12.276 15.578 11.112 13.806 11.112C10.453 11.112 7.048 13.892 7.048 19.121C7.10406 22.3069 8.08141 25.4085 9.862 28.051C11.198 29.923 12.362 31.473 14.047 31.473C15.715 31.473 16.447 30.361 18.512 30.361C20.612 30.361 21.083 31.438 22.925 31.438C24.749 31.438 25.965 29.77 27.112 28.12C27.9116 26.9442 28.532 25.6562 28.953 24.298C27.8863 23.8389 26.9772 23.0779 26.3376 22.1086C25.698 21.1394 25.3557 20.0043 25.353 18.843C25.363 17.8131 25.6343 16.8026 26.1415 15.9062C26.6488 15.0098 27.3753 14.2569 28.253 13.718C27.6532 12.869 26.8536 12.1808 25.9247 11.7142C24.9957 11.2477 23.9662 11.0171 22.927 11.043Z" fill="black"/>
</svg>
