<svg width="36" height="36" viewBox="0 0 36 36" fill="none" xmlns="http://www.w3.org/2000/svg">
    <path d="M34 18.0004C33.9995 14.9428 33.123 11.9494 31.4741 9.37455C29.8252 6.79968 27.4731 4.75117 24.6962 3.47154C21.9192 2.19192 18.8338 1.73476 15.8051 2.1542C12.7765 2.57363 9.93139 3.8521 7.60674 5.83823C5.28208 7.82437 3.57519 10.435 2.68814 13.3611C1.80109 16.2871 1.77102 19.4061 2.6015 22.3487C3.43197 25.2914 5.08822 27.9344 7.37415 29.965C9.66009 31.9956 12.48 33.3287 15.5 33.8064V22.6254H11.438V18.0004H15.5V14.4754C15.5 10.4654 17.889 8.25042 21.543 8.25042C22.743 8.26724 23.9402 8.37185 25.125 8.56342V12.5004H23.107C22.7631 12.4547 22.4134 12.487 22.0837 12.5949C21.754 12.7028 21.4528 12.8835 21.2024 13.1236C20.952 13.3637 20.7589 13.6571 20.6373 13.9819C20.5157 14.3068 20.4688 14.6549 20.5 15.0004V18.0004H24.938L24.229 22.6254H20.5V33.8064C24.2638 33.211 27.6915 31.2918 30.1663 28.3943C32.6412 25.4967 34.0006 21.811 34 18.0004Z" fill="white"/>
    <path d="M24.228 22.625L24.937 18H20.5V15C20.4688 14.6545 20.5157 14.3064 20.6373 13.9815C20.7589 13.6566 20.952 13.3632 21.2024 13.1231C21.4528 12.883 21.754 12.7023 22.0837 12.5945C22.4134 12.4866 22.7631 12.4543 23.107 12.5H25.125V8.56297C23.9402 8.37176 22.743 8.26748 21.543 8.25098C17.888 8.25098 15.5 10.466 15.5 14.476V18.001H11.437V22.626H15.5V33.807C17.1566 34.0662 18.8434 34.0662 20.5 33.807V22.625H24.228Z" fill="#1877F2"/>
</svg>
