<svg width="36" height="36" viewBox="0 0 36 36" fill="none" xmlns="http://www.w3.org/2000/svg">
<path d="M21.9689 8.83598C22.8582 7.77763 23.3608 6.44802 23.3939 5.06598C23.3955 4.88498 23.3781 4.70432 23.3419 4.52698C21.8068 4.67476 20.3879 5.40908 19.3809 6.57698C18.484 7.58639 17.9624 8.87399 17.9039 10.223C17.9045 10.3863 17.9219 10.5492 17.9559 10.709C18.0762 10.7318 18.1984 10.7435 18.3209 10.744C19.0258 10.6868 19.712 10.4885 20.3387 10.1607C20.9655 9.83292 21.5198 9.3824 21.9689 8.83598ZM22.9269 11.043C20.8939 11.043 19.2439 12.276 18.1839 12.276C17.0549 12.276 15.5779 11.112 13.8059 11.112C10.4529 11.112 7.04785 13.892 7.04785 19.121C7.10391 22.3069 8.08126 25.4085 9.86185 28.051C11.1979 29.923 12.3619 31.473 14.0469 31.473C15.7149 31.473 16.4469 30.361 18.5119 30.361C20.6119 30.361 21.0829 31.438 22.9249 31.438C24.7489 31.438 25.9649 29.77 27.1119 28.12C27.9114 26.9442 28.5319 25.6561 28.9529 24.298C27.8862 23.8389 26.9771 23.0778 26.3374 22.1086C25.6978 21.1394 25.3556 20.0042 25.3529 18.843C25.3628 17.8131 25.6341 16.8026 26.1414 15.9062C26.6486 15.0098 27.3751 14.2569 28.2529 13.718C27.6531 12.8689 26.8534 12.1807 25.9245 11.7142C24.9956 11.2476 23.966 11.0171 22.9269 11.043Z" fill="black"/>
</svg>
