<svg width="48" height="48" viewBox="0 0 48 48" fill="none" xmlns="http://www.w3.org/2000/svg">
<path d="M24 1.5C11.5731 1.5 1.5 11.5731 1.5 24C1.5 36.4269 11.5731 46.5 24 46.5C36.4269 46.5 46.5 36.4269 46.5 24C46.5 11.5731 36.4269 1.5 24 1.5ZM34.3176 33.9549C33.9146 34.6186 33.0494 34.8255 32.3885 34.4224C27.1034 31.1928 20.4533 30.4646 12.621 32.2541C11.866 32.4261 11.1137 31.9532 10.9417 31.2009C10.7698 30.4458 11.24 29.6935 11.9977 29.5216C20.5688 27.5628 27.9202 28.4065 33.8528 32.0284C34.5138 32.4288 34.7234 33.2939 34.3176 33.9549ZM37.0717 27.8288C36.5639 28.6537 35.4838 28.9143 34.6589 28.4065C28.6134 24.6905 19.392 23.6131 12.2368 25.7841C11.3098 26.0635 10.3291 25.5423 10.047 24.6153C9.76755 23.6883 10.2915 22.7103 11.2158 22.4282C19.3893 19.9482 29.5484 21.1492 36.4913 25.4187C37.3189 25.9238 37.5768 27.0039 37.0717 27.8288ZM37.3082 21.4475C30.0562 17.1404 18.0915 16.7454 11.1674 18.8465C10.055 19.1851 8.88088 18.5564 8.54233 17.444C8.20647 16.3316 8.83252 15.1574 9.94489 14.8189C17.8927 12.4061 31.1068 12.8736 39.455 17.8282C40.4545 18.422 40.7823 19.7144 40.1912 20.7112C39.6001 21.7108 38.305 22.0413 37.3082 21.4475Z" fill="white"/>
</svg>
