<svg width="36" height="36" viewBox="0 0 36 36" fill="none" xmlns="http://www.w3.org/2000/svg">
<path d="M33.3309 10.248C33.15 9.56681 32.7932 8.94514 32.2963 8.44529C31.7995 7.94543 31.1799 7.58496 30.4999 7.39999C28.0069 6.72699 17.9999 6.72699 17.9999 6.72699C17.9999 6.72699 7.99286 6.72699 5.49986 7.39999C4.82026 7.58518 4.20123 7.94564 3.70475 8.44529C3.20826 8.94493 2.85173 9.56623 2.67086 10.247C2.20873 12.8051 1.98411 15.4005 1.99986 18C1.98351 20.5991 2.20746 23.1941 2.66886 25.752C2.84991 26.433 3.20673 27.0544 3.70359 27.5541C4.20045 28.0538 4.81989 28.4141 5.49986 28.599C7.99986 29.272 17.9999 29.272 17.9999 29.272C17.9999 29.272 28.0069 29.272 30.4999 28.599C31.1795 28.4138 31.7985 28.0533 32.295 27.5537C32.7915 27.054 33.148 26.4327 33.3289 25.752C33.7909 23.1942 34.0155 20.5991 33.9999 18C34.0162 15.4009 33.7922 12.8059 33.3309 10.248Z" fill="#FF0000"/>
<path d="M15.7368 21.691L22.2248 18L15.7368 14.309V21.691Z" fill="white"/>
</svg>
