<svg width="60" height="60" viewBox="0 0 60 60" fill="none" xmlns="http://www.w3.org/2000/svg">
<path d="M50 22C50 30.722 37.5297 48.1163 32.2829 55.0487C31.1241 56.5799 28.8759 56.5799 27.7171 55.0487C22.4703 48.1163 10 30.722 10 22C10 10.9543 18.9543 2 30 2C41.0457 2 50 10.9543 50 22Z" fill="#D9D9D9"/>
<rect x="12" y="4" width="36" height="36" rx="18" fill="white"/>
<path d="M30.0254 25C29.6254 25 29.2881 24.8583 29.0134 24.575C28.7381 24.2917 28.6171 23.9583 28.6504 23.575C28.7004 22.875 28.8671 22.2667 29.1504 21.75C29.4338 21.2333 29.8838 20.7 30.5004 20.15C31.1838 19.55 31.7044 19.029 32.0624 18.587C32.4211 18.1457 32.6004 17.6417 32.6004 17.075C32.6004 16.3917 32.3714 15.825 31.9134 15.375C31.4548 14.925 30.8171 14.7 30.0004 14.7C29.4671 14.7 29.0131 14.8123 28.6384 15.037C28.2631 15.2623 27.9588 15.5417 27.7254 15.875C27.4921 16.2083 27.2048 16.4333 26.8634 16.55C26.5214 16.6667 26.1921 16.6583 25.8754 16.525C25.4921 16.3583 25.2298 16.0833 25.0884 15.7C24.9464 15.3167 24.9754 14.9583 25.1754 14.625C25.6588 13.875 26.3088 13.25 27.1254 12.75C27.9421 12.25 28.9004 12 30.0004 12C31.7504 12 33.0964 12.4877 34.0384 13.463C34.9798 14.4377 35.4504 15.6083 35.4504 16.975C35.4504 17.8083 35.2714 18.521 34.9134 19.113C34.5548 19.7043 33.9921 20.375 33.2254 21.125C32.6588 21.6583 32.2588 22.0917 32.0254 22.425C31.7921 22.7583 31.6338 23.1417 31.5504 23.575C31.4838 23.9917 31.3088 24.3333 31.0254 24.6C30.7421 24.8667 30.4088 25 30.0254 25ZM30.0004 31C29.4504 31 28.9798 30.8043 28.5884 30.413C28.1964 30.021 28.0004 29.55 28.0004 29C28.0004 28.45 28.1964 27.979 28.5884 27.587C28.9798 27.1957 29.4504 27 30.0004 27C30.5504 27 31.0214 27.1957 31.4134 27.587C31.8048 27.979 32.0004 28.45 32.0004 29C32.0004 29.55 31.8048 30.021 31.4134 30.413C31.0214 30.8043 30.5504 31 30.0004 31Z" fill="black"/>
</svg>
