<svg width="60" height="60" viewBox="0 0 60 60" fill="none" xmlns="http://www.w3.org/2000/svg">
<path d="M50 22C50 30.722 37.5297 48.1163 32.2829 55.0487C31.1241 56.5799 28.8759 56.5799 27.7171 55.0487C22.4703 48.1163 10 30.722 10 22C10 10.9543 18.9543 2 30 2C41.0457 2 50 10.9543 50 22Z" fill="#D9D9D9"/>
<rect x="12" y="4" width="36" height="36" rx="18" fill="white"/>
<path fill-rule="evenodd" clip-rule="evenodd" d="M41.2649 19.4502L30.2328 11.4349L19.2007 19.4502L23.4146 32.4192H37.051L41.2649 19.4502ZM31.664 9.46503C30.8106 8.84499 29.655 8.84499 28.8016 9.46503L17.7695 17.4803C16.9161 18.1003 16.559 19.1994 16.885 20.2026L21.0988 33.1716C21.4248 34.1749 22.3597 34.8541 23.4146 34.8541H37.051C38.1059 34.8541 39.0408 34.1749 39.3667 33.1716L43.5806 20.2026C43.9066 19.1994 43.5495 18.1003 42.6961 17.4803L31.664 9.46503Z" fill="black"/>
<rect x="14" y="17.3532" width="32.4656" height="12.9863" rx="5" fill="#FF0000"/>
<path d="M21.6901 24.0731V24.3465C21.6901 24.7851 21.6307 25.1788 21.5118 25.5275C21.3929 25.8763 21.2251 26.1735 21.0085 26.4192C20.7918 26.6623 20.5329 26.8485 20.2317 26.978C19.9331 27.1075 19.6016 27.1722 19.237 27.1722C18.875 27.1722 18.5434 27.1075 18.2422 26.978C17.9437 26.8485 17.6847 26.6623 17.4655 26.4192C17.2462 26.1735 17.0758 25.8763 16.9542 25.5275C16.8353 25.1788 16.7759 24.7851 16.7759 24.3465V24.0731C16.7759 23.6318 16.8353 23.2382 16.9542 22.8921C17.0731 22.5433 17.2409 22.2461 17.4575 22.0004C17.6768 21.7546 17.9357 21.5671 18.2343 21.4376C18.5355 21.3081 18.8671 21.2434 19.229 21.2434C19.5936 21.2434 19.9252 21.3081 20.2238 21.4376C20.525 21.5671 20.7839 21.7546 21.0005 22.0004C21.2198 22.2461 21.3889 22.5433 21.5078 22.8921C21.6293 23.2382 21.6901 23.6318 21.6901 24.0731ZM20.4893 24.3465V24.0651C20.4893 23.7587 20.4616 23.4892 20.4061 23.2567C20.3506 23.0242 20.2687 22.8286 20.1604 22.6701C20.052 22.5116 19.9199 22.3927 19.7641 22.3134C19.6082 22.2315 19.4298 22.1906 19.229 22.1906C19.0282 22.1906 18.8499 22.2315 18.694 22.3134C18.5408 22.3927 18.41 22.5116 18.3017 22.6701C18.196 22.8286 18.1154 23.0242 18.0599 23.2567C18.0044 23.4892 17.9767 23.7587 17.9767 24.0651V24.3465C17.9767 24.6503 18.0044 24.9198 18.0599 25.155C18.1154 25.3875 18.1973 25.5843 18.3056 25.7455C18.414 25.904 18.5461 26.0242 18.7019 26.1061C18.8578 26.188 19.0362 26.229 19.237 26.229C19.4378 26.229 19.6161 26.188 19.772 26.1061C19.9279 26.0242 20.0586 25.904 20.1643 25.7455C20.27 25.5843 20.3506 25.3875 20.4061 25.155C20.4616 24.9198 20.4893 24.6503 20.4893 24.3465Z" fill="white"/>
<path d="M27.4047 21.3227V27.0929H26.2158L23.8974 23.225V27.0929H22.7085V21.3227H23.8974L26.2198 25.1946V21.3227H27.4047Z" fill="white"/>
<path d="M33.1311 22.3095L31.5617 27.0929H30.2975L32.4415 21.3227H33.246L33.1311 22.3095ZM34.4349 27.0929L32.8616 22.3095L32.7348 21.3227H33.5472L35.7031 27.0929H34.4349ZM34.3636 24.9449V25.8763H31.316V24.9449H34.3636Z" fill="white"/>
<path d="M37.6647 21.3227V27.0929H36.4797V21.3227H37.6647Z" fill="white"/>
<path d="M38.9407 21.3227H41.0926C41.5338 21.3227 41.913 21.3887 42.23 21.5208C42.5497 21.6529 42.7954 21.8484 42.9672 22.1074C43.1389 22.3663 43.2248 22.6847 43.2248 23.0625C43.2248 23.3716 43.1719 23.6371 43.0662 23.859C42.9632 24.0783 42.8166 24.262 42.6263 24.4099C42.4387 24.5552 42.2181 24.6715 41.9645 24.7587L41.588 24.9568H39.7174L39.7095 24.0295H41.1005C41.3093 24.0295 41.4823 23.9925 41.6197 23.9185C41.7571 23.8445 41.8601 23.7415 41.9288 23.6094C42.0002 23.4773 42.0358 23.324 42.0358 23.1497C42.0358 22.9647 42.0015 22.8049 41.9328 22.6701C41.8641 22.5354 41.7597 22.4323 41.6197 22.361C41.4797 22.2897 41.304 22.254 41.0926 22.254H40.1296V27.0929H38.9407V21.3227ZM42.1666 27.0929L40.8509 24.5209L42.1072 24.513L43.4388 27.0374V27.0929H42.1666Z" fill="white"/>
</svg>
