<svg width="60" height="60" viewBox="0 0 60 60" fill="none" xmlns="http://www.w3.org/2000/svg">
<path d="M50 22C50 30.722 37.5297 48.1163 32.2829 55.0487C31.1241 56.5799 28.8759 56.5799 27.7171 55.0487C22.4703 48.1163 10 30.722 10 22C10 10.9543 18.9543 2 30 2C41.0457 2 50 10.9543 50 22Z" fill="#D9D9D9"/>
<rect x="12" y="4" width="36" height="36" rx="18" fill="white"/>
<path fill-rule="evenodd" clip-rule="evenodd" d="M43.5429 23.1637C43.8955 22.6388 44.0857 22.0799 44.0857 21.5C44.0857 18.4624 38.8666 16 32.4286 16C26.1485 16 21.0283 18.343 20.7808 21.2774C16.0987 22.7023 13 25.1808 13 28C13 32.4183 20.6112 36 30 36C39.3888 36 47 32.4183 47 28C47 26.1827 45.7123 24.5069 43.5429 23.1637Z" fill="#4E521D"/>
<path fill-rule="evenodd" clip-rule="evenodd" d="M42.1341 23.4675L42.7128 22.606C42.973 22.2187 43.0857 21.8507 43.0857 21.5C43.0857 20.5947 42.2709 19.4713 40.2447 18.5153C38.2961 17.5959 35.5338 17 32.4286 17C29.4006 17 26.697 17.5667 24.7562 18.4487C22.7425 19.3639 21.8532 20.4618 21.7773 21.3615L21.7203 22.0368L21.0719 22.2341C18.8144 22.9211 17.0048 23.8438 15.7804 24.8794C14.5542 25.9164 14 26.9859 14 28C14 29.5943 15.4108 31.343 18.405 32.752C21.3207 34.1241 25.4191 35 30 35C34.5809 35 38.6793 34.1241 41.595 32.752C44.5892 31.343 46 29.5943 46 28C46 26.6937 45.0659 25.2828 43.0165 24.0139L42.1341 23.4675ZM43.5429 23.1637C43.8098 23.3289 44.0634 23.4992 44.3029 23.6742C46.0097 24.9214 47 26.4063 47 28C47 32.4183 39.3888 36 30 36C20.6112 36 13 32.4183 13 28C13 25.1808 16.0987 22.7023 20.7808 21.2774C21.0283 18.343 26.1485 16 32.4286 16C38.8666 16 44.0857 18.4624 44.0857 21.5C44.0857 21.993 43.9482 22.4709 43.6903 22.9256C43.6449 23.0057 43.5957 23.0851 43.5429 23.1637Z" fill="black"/>
<path d="M30 34C26.8146 33.2417 24.1847 31.514 22.1103 28.8169C20.0358 26.1198 18.9991 23.1242 19 19.83V11.9L30 8L41 11.9V19.83C41 23.1233 39.9628 26.119 37.8884 28.8169C35.814 31.5148 33.1845 33.2425 30 34Z" fill="black"/>
<path d="M35.8538 13L31.3551 14.758L24.5923 21.7195L28.0469 25.2755L34.7999 18.314C36.2735 16.7972 35.8538 13 35.8538 13ZM22.5137 21.0364L21.1377 22.4327L22.5137 23.8491L17 29.5348L20.4448 33.0909L25.9683 27.4052L27.3442 28.8316L28.73 27.4052L22.5137 21.0364Z" fill="#4E521D"/>
<path d="M24.1462 13L28.6449 14.758L35.4077 21.7195L31.9531 25.2755L25.2001 18.314C23.7265 16.7972 24.1462 13 24.1462 13ZM37.4863 21.0364L38.8623 22.4327L37.4863 23.8491L43 29.5348L39.5552 33.0909L34.0317 27.4052L32.6558 28.8316L31.27 27.4052L37.4863 21.0364Z" fill="#4E521D"/>
</svg>
