<svg width="60" height="60" viewBox="0 0 60 60" fill="none" xmlns="http://www.w3.org/2000/svg">
<path d="M50 22C50 30.722 37.5297 48.1163 32.2829 55.0487C31.1241 56.5799 28.8759 56.5799 27.7171 55.0487C22.4703 48.1163 10 30.722 10 22C10 10.9543 18.9543 2 30 2C41.0457 2 50 10.9543 50 22Z" fill="#D9D9D9"/>
<rect x="12" y="4" width="36" height="36" rx="18" fill="white"/>
<path d="M43.5 21.8779C43.5 20.4562 42.6715 19.2344 41.4897 18.6939C42.1726 18.0793 42.6047 17.1784 42.6047 16.1713C42.6047 14.3399 41.1818 12.8564 39.4174 12.8293C39.6251 12.4121 39.7517 11.9481 39.7517 11.447C39.7517 9.76369 38.4314 8.39627 36.8007 8.39627C36.5166 8.39627 36.2468 8.45057 35.9866 8.52956C35.9532 6.9548 34.7141 5.68858 33.1861 5.68858C32.5248 5.68858 31.9255 5.93294 31.448 6.32787C30.9466 5.53062 30.0824 4.99994 29.094 4.99994C28.096 4.99994 27.2246 5.54049 26.728 6.35255C26.3269 6.12547 25.8732 5.98478 25.3838 5.98478C23.8319 5.98478 22.5737 7.28555 22.5737 8.88992C22.5737 9.14169 22.6167 9.38111 22.674 9.61313C22.5618 9.59832 22.4544 9.57857 22.3398 9.57857C20.7091 9.57857 19.3888 10.946 19.3888 12.6293C19.3888 13.0884 19.4939 13.5204 19.6706 13.9104C18.2548 14.2683 17.2019 15.5839 17.2019 17.1561C17.2019 18.0669 17.5577 18.8913 18.1283 19.4936C17.1542 20.1057 16.5 21.2066 16.5 22.4703C16.5 23.9735 17.4263 25.2521 18.7204 25.7383C18.4816 26.2369 18.3431 26.7972 18.3431 27.3896C18.3431 29.4555 19.9618 31.129 21.9602 31.129C22.6525 31.129 23.2972 30.9241 23.8487 30.5736C24.3882 31.9386 25.6846 32.9012 27.1959 32.9012C28.2536 32.9012 29.2038 32.4273 29.8651 31.6794C30.5288 32.4865 31.5172 32.9999 32.6203 32.9999C34.2867 32.9999 35.6858 31.8324 36.1036 30.2478C36.683 30.6315 37.3566 30.8354 38.0446 30.8353C40.0405 30.8353 41.6616 29.1618 41.6616 27.0958C41.6616 26.4023 41.4754 25.7556 41.1579 25.1978C42.5116 24.7485 43.5 23.4329 43.5 21.8779Z" fill="#08B569"/>
<path fill-rule="evenodd" clip-rule="evenodd" d="M30.4478 29.8904C30.6109 31.5287 30.7765 33.1921 30.9284 34.2898C31.0801 35.3827 26.9295 34.3864 25.4973 33.3347C24.5837 32.6634 23.5082 32.6865 22.5771 32.9318C20.3354 33.5223 17.9665 33.3453 15.8618 32.355C15.7412 32.2984 15.6481 32.2528 15.59 32.2228C15.519 32.186 15.448 32.1478 15.3817 32.1026C14.94 31.803 14.7599 31.1406 14.8441 30.1645C14.9236 29.2454 15.0784 27.9285 15.2547 26.5423C14.3782 26.7688 13.9708 26.2683 14.0439 25.1942C14.1042 24.3096 14.2608 22.8624 14.4149 21.5382C14.4182 21.5129 14.3964 21.4931 14.3721 21.4971C13.9883 21.5621 13.7118 21.3554 13.597 20.7641C13.4022 19.7613 13.104 17.6318 13.002 16.8892C12.9838 16.7585 13.0929 16.6466 13.2203 16.666C13.9387 16.7755 15.9949 17.0931 16.9687 17.2936C17.5213 17.4074 17.7282 17.6751 17.6865 18.0475C17.6822 18.0887 17.715 18.1239 17.755 18.1191C19.0281 17.9693 20.4165 17.8162 21.2708 17.7545C21.8252 17.7144 22.3053 17.7632 22.4259 18.0655C22.5062 18.2674 22.5436 18.4358 22.5736 18.5711C22.6438 18.8874 22.6738 19.0226 23.1176 18.981C23.2076 18.9726 23.7888 18.8751 24.2767 18.7933C24.3455 18.7818 24.4125 18.7705 24.476 18.7599C24.54 18.7492 24.583 18.7674 24.6156 18.8082C24.6229 18.8151 24.631 18.8227 24.6398 18.8308C24.752 18.9347 24.9777 19.1435 24.9917 19.7341C25.293 20.177 25.9343 20.6375 27.4454 20.7986C29.0874 20.8185 29.5907 23.4173 29.9032 25.1439C30.063 26.0255 30.2536 27.9401 30.4478 29.8904ZM15.0573 23.5076C17.0949 21.2951 17.6575 19.968 17.771 18.6247C17.7824 18.4866 17.9768 18.4738 18.0046 18.6093C18.1341 19.2339 18.1587 20.2563 17.4435 21.4086C16.7475 22.5293 15.8361 23.2744 15.2072 23.696C15.0887 23.7753 14.96 23.6134 15.0573 23.5076ZM17.2316 27.4931C17.1378 27.5922 17.2619 27.7472 17.3725 27.6686C18.3428 26.9772 19.9834 25.6394 21.3364 23.6965C22.7726 21.6346 22.7872 20.021 22.663 19.2297C22.6434 19.1041 22.4669 19.1026 22.4444 19.2278C22.0617 21.3609 21.0485 23.4537 17.2316 27.4931ZM28.0154 32.8622C27.9124 32.8141 27.8022 32.7636 27.6866 32.7106C25.94 31.9098 22.961 30.544 25.1448 28.2956L25.3012 28.1348L25.3012 28.1348C25.5796 27.8488 25.811 27.6112 26.0061 27.3939L26.0059 27.3939C26.339 27.0231 26.5663 26.7116 26.7414 26.3205C26.7843 26.2247 26.824 26.1241 26.8614 26.0167C26.9259 25.8314 26.9834 25.6259 27.0379 25.3896C27.4303 23.6905 29.3962 25.4238 29.0973 27.5092C28.9956 28.2184 28.9605 28.7503 28.9603 29.195C28.9604 29.6812 29.0026 30.0623 29.046 30.4545C29.0797 30.7587 29.1141 31.0695 29.1301 31.4411C29.1417 31.7085 29.1743 31.9606 29.2033 32.1851C29.3141 33.0424 29.3728 33.4972 28.0154 32.8622Z" fill="#08B569"/>
<path fill-rule="evenodd" clip-rule="evenodd" d="M29.5522 29.8904C29.3891 31.5286 29.2235 33.1921 29.0716 34.2898C28.9199 35.3826 33.0705 34.3863 34.5027 33.3346C35.4163 32.6634 36.4918 32.6865 37.4229 32.9318C39.6646 33.5223 42.0335 33.3453 44.1382 32.3549C44.2588 32.2983 44.3519 32.2528 44.41 32.2227C44.481 32.1859 44.552 32.1477 44.6183 32.1026C45.06 31.8029 45.2401 31.1405 45.1559 30.1644C45.0764 29.2453 44.9216 27.9284 44.7453 26.5422C45.6218 26.7688 46.0292 26.2683 45.9561 25.1942C45.8958 24.3096 45.7392 22.8624 45.5851 21.5382C45.5818 21.5128 45.6036 21.493 45.6279 21.4971C46.0117 21.5621 46.2882 21.3553 46.403 20.7641C46.5978 19.7612 46.896 17.6318 46.998 16.8892C47.0162 16.7585 46.9071 16.6465 46.7797 16.666C46.0613 16.7754 44.0051 17.093 43.0313 17.2935C42.4787 17.4074 42.2718 17.6751 42.3135 18.0474C42.3178 18.0886 42.285 18.1238 42.245 18.119C40.9719 17.9692 39.5835 17.8161 38.7292 17.7544C38.1748 17.7144 37.6947 17.7632 37.5741 18.0654C37.4938 18.2673 37.4564 18.4357 37.4264 18.571C37.3562 18.8873 37.3262 19.0226 36.8824 18.9809C36.7924 18.9726 36.2112 18.8751 35.7233 18.7933C35.6545 18.7817 35.5875 18.7705 35.524 18.7598C35.46 18.7491 35.417 18.7673 35.3844 18.8081C35.3771 18.8151 35.369 18.8226 35.3602 18.8308C35.248 18.9346 35.0223 19.1435 35.0083 19.7341C34.707 20.177 34.0657 20.6374 32.5546 20.7986C30.9126 20.8184 30.4093 23.4172 30.0968 25.1439C29.937 26.0254 29.7464 27.94 29.5522 29.8904ZM44.9427 23.5075C42.9051 21.2951 42.3425 19.9679 42.229 18.6246C42.2176 18.4866 42.0232 18.4738 41.9954 18.6092C41.8659 19.2339 41.8413 20.2562 42.5565 21.4085C43.2525 22.5292 44.1639 23.2744 44.7928 23.6959C44.9113 23.7752 45.04 23.6133 44.9427 23.5075ZM42.7684 27.493C42.8622 27.5922 42.7381 27.7471 42.6275 27.6686C41.6572 26.9771 40.0166 25.6393 38.6636 23.6964C37.2274 21.6345 37.2128 20.021 37.337 19.2296C37.3566 19.104 37.5331 19.1025 37.5556 19.2278C37.9383 21.3609 38.9515 23.4536 42.7684 27.493ZM31.9846 32.8622C32.0876 32.814 32.1978 32.7635 32.3134 32.7105C34.06 31.9097 37.039 30.5439 34.8552 28.2955L34.6988 28.1348L34.6988 28.1348C34.4204 27.8488 34.189 27.6111 33.9939 27.3938L33.9941 27.3938C33.661 27.023 33.4337 26.7115 33.2586 26.3205C33.2157 26.2246 33.176 26.124 33.1386 26.0166C33.0741 25.8314 33.0166 25.6258 32.9621 25.3896C32.5697 23.6905 30.6038 25.4237 30.9027 27.5092C31.0044 28.2183 31.0395 28.7503 31.0397 29.1949C31.0396 29.6811 30.9974 30.0623 30.954 30.4544C30.9203 30.7586 30.8859 31.0695 30.8699 31.4411C30.8583 31.7084 30.8257 31.9605 30.7967 32.1851C30.6859 33.0423 30.6272 33.4972 31.9846 32.8622Z" fill="#08B569"/>
<path d="M30.852 30.6123C30.8495 30.6118 30.8335 30.608 30.7933 30.6036C30.7746 30.6016 30.7599 30.6002 30.7419 30.5986C30.7292 30.5974 30.7149 30.5961 30.6964 30.5943C30.6594 30.5907 30.6112 30.5855 30.5609 30.5766L30.5595 30.5764L30.5595 30.5764C30.465 30.5596 30.3769 30.5522 30.2842 30.5536L30.2034 30.5682L30.1373 30.5535C30.0462 30.5525 29.9611 30.56 29.8665 30.5766L29.8663 30.5766C29.8149 30.5856 29.766 30.5907 29.729 30.5942C29.7105 30.5959 29.6963 30.5972 29.6838 30.5983C29.6659 30.5998 29.6516 30.6011 29.6334 30.603C29.5999 30.6066 29.5849 30.6098 29.5812 30.6105C29.5547 30.6221 29.5436 30.6311 29.54 30.6346C29.5396 30.6356 29.5388 30.6375 29.538 30.6405C29.5359 30.648 29.5324 30.6643 29.532 30.6927L29.5319 30.7004L29.5318 30.7004C29.5277 30.8419 29.5136 30.9788 29.5015 31.0974L30.852 30.6123ZM30.852 30.6123C30.8715 30.6207 30.8817 30.6277 30.8861 30.6311C30.8879 30.6325 30.8889 30.6335 30.8894 30.634C30.8916 30.6387 30.8979 30.6559 30.8989 30.6951C30.9009 30.8273 30.9147 30.9583 30.9259 31.0644C30.9275 31.0798 30.9291 31.0946 30.9305 31.1089C30.9566 31.3903 30.9766 31.6847 30.997 31.986C31.0416 32.6439 31.0884 33.3348 31.206 33.9949L31.6983 33.9072M30.852 30.6123L29.5003 31.109C29.4742 31.3901 29.4542 31.6848 29.4337 31.9866C29.3892 32.6437 29.3424 33.3348 29.2249 33.9941C29.1841 34.2275 29.0943 34.4821 29.0195 34.694C29.0169 34.7015 29.0143 34.7089 29.0117 34.7163C28.9281 34.9533 28.8586 35.1537 28.8235 35.3322C28.7872 35.5165 28.806 35.5945 28.8172 35.6186C28.8202 35.6249 28.8248 35.6336 28.843 35.6468C28.8643 35.6624 28.9119 35.6893 29.0062 35.7127C29.7759 35.9009 30.6511 35.9023 31.4186 35.7128L31.4191 35.7127C31.5147 35.6892 31.5634 35.662 31.5855 35.6459C31.6045 35.6322 31.6094 35.6231 31.6125 35.6166C31.6239 35.5925 31.6429 35.5149 31.6072 35.3313C31.5725 35.1532 31.5033 34.953 31.4198 34.7163C31.4169 34.7079 31.4139 34.6995 31.4109 34.691C31.3364 34.4797 31.247 34.2263 31.2059 33.9943L31.6983 33.9072M31.6983 33.9072C31.732 34.0979 31.8095 34.3177 31.8895 34.5446C32.132 35.2328 32.3979 35.987 31.5384 36.1982C30.6913 36.4074 29.734 36.4054 28.8869 36.1982C28.0335 35.9875 28.2983 35.2361 28.5404 34.5492L31.6983 33.9072ZM29.5386 30.6361C29.5386 30.6361 29.5389 30.6357 29.5396 30.635L29.5386 30.6361ZM30.3025 30.5503C30.3074 30.5494 30.3068 30.5496 30.3024 30.5503L30.3025 30.5503Z" fill="#08B569" stroke="black"/>
<path d="M41.3091 22.243C41.3091 21.0432 40.6048 20.0122 39.6001 19.556C40.1806 19.0374 40.5479 18.2771 40.5479 17.4273C40.5479 15.8817 39.3382 14.6299 37.8383 14.607C38.0149 14.255 38.1225 13.8634 38.1225 13.4405C38.1225 12.02 37.0001 10.866 35.6138 10.866C35.3723 10.866 35.1429 10.9119 34.9217 10.9785C34.8933 9.64961 33.8399 8.58107 32.5409 8.58107C31.9786 8.58107 31.4692 8.78728 31.0633 9.12055C30.637 8.44777 29.9023 7.99994 29.062 7.99994C28.2136 7.99994 27.4728 8.4561 27.0506 9.14138C26.7096 8.94975 26.324 8.83103 25.9079 8.83103C24.5886 8.83103 23.519 9.92873 23.519 11.2826C23.519 11.4951 23.5555 11.6971 23.6042 11.8929C23.5088 11.8804 23.4175 11.8638 23.3201 11.8638C21.9338 11.8638 20.8114 13.0177 20.8114 14.4383C20.8114 14.8257 20.9007 15.1902 21.0509 15.5193C19.8473 15.8213 18.9522 16.9315 18.9522 18.2583C18.9522 19.0269 19.2546 19.7226 19.7397 20.2309C18.9116 20.7474 18.3555 21.6764 18.3555 22.7429C18.3555 24.0114 19.143 25.0903 20.2431 25.5007C20.0401 25.9214 19.9224 26.3942 19.9224 26.8941C19.9224 28.6376 21.2985 30.0498 22.9973 30.0498C23.5859 30.0498 24.134 29.8769 24.6028 29.5811C25.0615 30.733 26.1636 31.5453 27.4484 31.5453C28.3476 31.5453 29.1554 31.1454 29.7176 30.5143C30.2818 31.1954 31.1221 31.6286 32.0598 31.6286C33.4765 31.6286 34.6659 30.6434 35.0211 29.3062C35.5137 29.6299 36.0863 29.802 36.6712 29.8019C38.3681 29.8019 39.7462 28.3897 39.7462 26.6463C39.7462 26.061 39.5879 25.5152 39.3179 25.0445C40.4688 24.6654 41.3091 23.5552 41.3091 22.243Z" fill="black"/>
</svg>
