<svg width="60" height="60" viewBox="0 0 60 60" fill="none" xmlns="http://www.w3.org/2000/svg">
<path d="M50 22C50 30.722 37.5297 48.1163 32.2829 55.0487C31.1241 56.5799 28.8759 56.5799 27.7171 55.0487C22.4703 48.1163 10 30.722 10 22C10 10.9543 18.9543 2 30 2C41.0457 2 50 10.9543 50 22Z" fill="#D9D9D9"/>
<rect x="12" y="4" width="36" height="36" rx="18" fill="white"/>
<path d="M34.452 10.4702L33.9077 9.62815C33.6833 9.28412 34.0388 8.83901 34.4394 8.95216L39.372 10.4158C39.7779 10.5382 39.7807 11.0902 39.3839 11.2516L38.3857 11.6557C37.9573 11.8292 37.3651 12.3557 36.9556 12.752C36.6581 13.0406 36.4326 13.3983 36.295 13.7853L36.2105 14.0186C36.7713 13.8732 37.3679 13.8793 37.949 14.0482C38.6701 14.2616 39.2805 14.7198 39.673 15.3422C40.0655 15.9647 40.2149 16.7114 40.0948 17.4511L40.2023 17.4832C40.5279 17.5781 40.6976 17.9168 40.587 18.2389C40.4765 18.5611 40.1225 18.7409 39.7969 18.6459L39.7355 18.6278L39.3896 19.6222L39.449 19.6402C39.7746 19.7351 39.9444 20.0738 39.8338 20.396C39.7232 20.7181 39.3693 20.8979 39.0437 20.803L38.985 20.7851L38.6375 21.7835L38.6982 21.8014C39.0237 21.8963 39.1935 22.235 39.0829 22.5572C38.9724 22.8793 38.6184 23.0591 38.2928 22.9641L38.1848 22.9324C37.9274 23.3896 37.5626 23.7834 37.1217 24.0799C36.6809 24.3763 36.1772 24.5666 35.654 24.6342C35.1308 24.7019 34.6037 24.6449 34.1183 24.4682C33.6328 24.2915 33.2034 24.0004 32.867 23.6199L32.4001 24.9597C32.7206 25.076 32.8864 25.4268 32.7698 25.7598C32.6528 26.1042 32.2698 26.3007 31.919 26.1957L30.5337 25.7839C30.1856 25.6835 29.9998 25.3171 30.1218 24.9699C30.1763 24.8123 30.2892 24.6784 30.4376 24.5951C30.5861 24.5117 30.7591 24.4853 30.9218 24.5209L32.1043 21.1308L31.3938 20.9198C31.3821 20.9163 31.3706 20.912 31.3594 20.907C31.313 20.9903 31.2388 21.0562 31.1498 21.0933C31.0607 21.1305 30.9625 21.1365 30.872 21.1103C30.7704 21.0798 30.6868 21.0109 30.6395 20.9184C30.5921 20.826 30.5849 20.7175 30.6192 20.6166L30.9801 19.5779C31.0155 19.4773 31.0896 19.3928 31.1863 19.3428C31.2829 19.2927 31.3944 19.2812 31.4963 19.3106C31.5886 19.3384 31.6664 19.3978 31.7155 19.4783C31.7647 19.5587 31.7821 19.6549 31.7645 19.7494C31.7763 19.7513 31.788 19.754 31.7994 19.7575L32.5096 19.968L32.6545 19.5523C32.6581 19.5424 32.6619 19.5326 32.6659 19.5229L32.8579 18.9699L32.1447 18.7586C32.1343 18.7554 32.1242 18.7516 32.1143 18.7472C32.0683 18.8313 31.9941 18.8981 31.9048 18.9359C31.8154 18.9736 31.7165 18.98 31.6255 18.9537C31.5239 18.9233 31.4403 18.8543 31.393 18.7619C31.3457 18.6694 31.3384 18.561 31.3727 18.46L31.7337 17.4213C31.7691 17.3207 31.8431 17.2362 31.9398 17.1862C32.0364 17.1361 32.1479 17.1246 32.2499 17.1541C32.3416 17.1816 32.4189 17.2405 32.4681 17.3202C32.5174 17.4 32.5352 17.4953 32.5186 17.5894C32.5288 17.5903 32.5398 17.5925 32.55 17.5958L33.2625 17.8069L33.6089 16.8123L32.8979 16.6015C32.8867 16.5981 32.8757 16.594 32.865 16.5892C32.8195 16.6744 32.7451 16.7423 32.6551 16.7807C32.5652 16.8191 32.4654 16.8256 32.3737 16.799C32.2721 16.7685 32.1885 16.6996 32.1412 16.6071C32.0938 16.5147 32.0865 16.4062 32.1209 16.3053L32.4818 15.2666C32.4987 15.2164 32.5256 15.1696 32.5608 15.1289C32.596 15.0882 32.6389 15.0544 32.6869 15.0295C32.735 15.0046 32.7872 14.9891 32.8407 14.984C32.8941 14.9788 32.9476 14.984 32.998 14.9994C33.1874 15.0561 33.3005 15.243 33.2669 15.4315C33.2792 15.4331 33.2914 15.4355 33.3033 15.4388L34.0132 15.6489L34.8122 13.3498C34.9471 12.9582 34.9873 12.5476 34.9239 12.1475C34.8445 11.5967 34.6923 10.8419 34.452 10.4702ZM35.0911 17.2512L34.745 18.2463L37.9152 19.1856L38.2613 18.1905L35.0911 17.2512ZM38.5742 17.0005C38.5692 16.6631 38.4579 16.3397 38.2553 16.074C38.0528 15.8084 37.769 15.6134 37.4422 15.5155L37.442 15.5151L37.4415 15.5153C37.2171 15.4487 36.9787 15.4302 36.7424 15.4609C36.506 15.4916 36.277 15.571 36.0706 15.6936C35.8845 15.8038 35.7203 15.9469 35.5867 16.1151L38.5742 17.0005ZM37.5105 20.3485L34.3404 19.4092L33.9929 20.4076L37.1631 21.3469L37.5105 20.3485ZM36.6617 22.4808L33.6837 21.5985C33.6913 21.9336 33.8038 22.2543 34.0061 22.5175C34.2085 22.7807 34.491 22.9739 34.8157 23.0711C35.1406 23.1665 35.4916 23.1611 35.8216 23.0556C36.1516 22.9501 36.4446 22.7495 36.6613 22.481L36.6617 22.4808Z" fill="#186778"/>
<path d="M25.3825 10.4702L25.9267 9.62815C26.1511 9.28412 25.7956 8.83901 25.3951 8.95216L20.4625 10.4158C20.0566 10.5382 20.0538 11.0902 20.4506 11.2516L21.4487 11.6557C21.8772 11.8292 22.4694 12.3557 22.8789 12.752C23.1764 13.0406 23.4019 13.3983 23.5395 13.7853L23.624 14.0186C23.0632 13.8732 22.4665 13.8793 21.8855 14.0482C21.1644 14.2616 20.5539 14.7198 20.1614 15.3422C19.7689 15.9647 19.6196 16.7114 19.7397 17.4511L19.6322 17.4832C19.3066 17.5781 19.1369 17.9168 19.2474 18.2389C19.358 18.5611 19.712 18.7409 20.0376 18.6459L20.0989 18.6278L20.4448 19.6222L20.3855 19.6402C20.0599 19.7351 19.8901 20.0738 20.0007 20.396C20.1113 20.7181 20.4652 20.8979 20.7908 20.803L20.8495 20.7851L21.1969 21.7835L21.1363 21.8014C20.8107 21.8963 20.641 22.235 20.7515 22.5572C20.8621 22.8793 21.2161 23.0591 21.5417 22.9641L21.6496 22.9324C21.907 23.3896 22.2719 23.7834 22.7127 24.0799C23.1536 24.3763 23.6573 24.5666 24.1805 24.6342C24.7037 24.7019 25.2307 24.6449 25.7162 24.4682C26.2017 24.2915 26.6311 24.0004 26.9675 23.6199L27.4344 24.9597C27.1139 25.076 26.9481 25.4268 27.0646 25.7598C27.1817 26.1042 27.5647 26.3007 27.9155 26.1957L29.3008 25.7839C29.6489 25.6835 29.8346 25.3171 29.7127 24.9699C29.6582 24.8123 29.5453 24.6784 29.3968 24.5951C29.2484 24.5117 29.0753 24.4853 28.9127 24.5209L27.7302 21.1308L28.4406 20.9198C28.4524 20.9163 28.4639 20.912 28.4751 20.907C28.5215 20.9903 28.5957 21.0562 28.6847 21.0933C28.7737 21.1305 28.872 21.1365 28.9625 21.1103C29.0641 21.0798 29.1477 21.0109 29.195 20.9184C29.2423 20.826 29.2496 20.7175 29.2153 20.6166L28.8543 19.5779C28.8189 19.4773 28.7449 19.3928 28.6482 19.3428C28.5516 19.2927 28.4401 19.2812 28.3381 19.3106C28.2459 19.3384 28.1681 19.3978 28.1189 19.4783C28.0698 19.5587 28.0524 19.6549 28.07 19.7494C28.0581 19.7513 28.0465 19.754 28.035 19.7575L27.3248 19.968L27.18 19.5523C27.1764 19.5424 27.1726 19.5326 27.1686 19.5229L26.9766 18.9699L27.6898 18.7586C27.7002 18.7554 27.7103 18.7516 27.7202 18.7472C27.7662 18.8313 27.8403 18.8981 27.9297 18.9359C28.0191 18.9736 28.1179 18.98 28.2089 18.9537C28.3106 18.9233 28.3941 18.8543 28.4415 18.7619C28.4888 18.6694 28.4961 18.561 28.4617 18.46L28.1008 17.4213C28.0654 17.3207 27.9913 17.2362 27.8947 17.1862C27.798 17.1361 27.6866 17.1246 27.5846 17.1541C27.4929 17.1816 27.4155 17.2405 27.3663 17.3202C27.3171 17.4 27.2992 17.4953 27.3159 17.5894C27.3057 17.5903 27.2947 17.5925 27.2844 17.5958L26.572 17.8069L26.2256 16.8123L26.9365 16.6015C26.9478 16.5981 26.9588 16.594 26.9695 16.5892C27.015 16.6744 27.0893 16.7423 27.1793 16.7807C27.2693 16.8191 27.3691 16.8256 27.4608 16.799C27.5624 16.7685 27.646 16.6996 27.6933 16.6071C27.7407 16.5147 27.7479 16.4062 27.7136 16.3053L27.3526 15.2666C27.3357 15.2164 27.3089 15.1696 27.2737 15.1289C27.2385 15.0882 27.1956 15.0544 27.1475 15.0295C27.0995 15.0046 27.0472 14.9891 26.9938 14.984C26.9404 14.9788 26.8869 14.984 26.8364 14.9994C26.647 15.0561 26.534 15.243 26.5676 15.4315C26.5553 15.4331 26.5431 15.4355 26.5312 15.4388L25.8212 15.6489L25.0223 13.3498C24.8874 12.9582 24.8472 12.5476 24.9106 12.1475C24.99 11.5967 25.1421 10.8419 25.3825 10.4702ZM24.7433 17.2512L25.0895 18.2463L21.9193 19.1856L21.5732 18.1905L24.7433 17.2512ZM21.2603 17.0005C21.2653 16.6631 21.3766 16.3397 21.5791 16.074C21.7816 15.8084 22.0655 15.6134 22.3923 15.5155L22.3925 15.5151L22.393 15.5153C22.6174 15.4487 22.8557 15.4302 23.0921 15.4609C23.3285 15.4916 23.5575 15.571 23.7639 15.6936C23.9499 15.8038 24.1142 15.9469 24.2478 16.1151L21.2603 17.0005ZM22.3239 20.3485L25.4941 19.4092L25.8416 20.4076L22.6714 21.3469L22.3239 20.3485ZM23.1727 22.4808L26.1508 21.5985C26.1432 21.9336 26.0307 22.2543 25.8283 22.5175C25.626 22.7807 25.3435 22.9739 25.0188 23.0711C24.6939 23.1665 24.3429 23.1611 24.0129 23.0556C23.6829 22.9501 23.3899 22.7495 23.1732 22.481L23.1727 22.4808Z" fill="#186778"/>
<path d="M17.7481 32.9711C16.3932 33.4656 17.1836 35.1964 17.7481 36H24.1321H33.643H40.483C41.3733 36 43.1538 35.8269 43.1538 35.1346C42.7369 34.9862 42.5458 34.4134 42.5024 34.1456C42.459 32.8268 42.3982 30.0781 42.5024 29.6331C42.6066 29.188 42.155 28.7059 41.9161 28.5204L41.2647 28.9531C41.1127 29.3446 40.6784 30.2141 40.1573 30.5603C39.5058 30.993 38.7241 29.8803 38.3333 29.6331C37.9424 29.3858 37.8693 28.9705 37.8042 28.5997C37.7391 28.2288 37.8042 27.4703 37.8042 27.4703L37.6818 26.975C37.6818 26.975 37.6428 26.1715 36.9653 25.9242C36.1184 25.6151 33.643 26.2333 33.2521 26.2333C32.8613 26.2333 32.4053 23.5134 32.1447 21.4117C31.8841 19.31 30.2556 19.4954 29.1481 19.0627C28.0407 18.63 27.259 20.5463 26.9333 21.4117C26.6076 22.2771 25.5653 21.7826 24.1321 22.8953C22.699 24.0079 23.5458 29.8803 23.0898 30.5603C22.6338 31.2403 19.4419 32.3529 17.7481 32.9711Z" fill="black" stroke="#186778" stroke-width="1.5"/>
</svg>
