<svg width="60" height="60" viewBox="0 0 60 60" fill="none" xmlns="http://www.w3.org/2000/svg">
    <path d="M50 22C50 30.722 37.5297 48.1163 32.2829 55.0487C31.1241 56.5799 28.8759 56.5799 27.7171 55.0487C22.4703 48.1163 10 30.722 10 22C10 10.9543 18.9543 2 30 2C41.0457 2 50 10.9543 50 22Z" fill="#D9D9D9"/>
    <rect x="12" y="4" width="36" height="36" rx="18" fill="white"/>
    <path d="M29.5892 20.4788C29.1148 20.3359 29.1148 19.6641 29.5892 19.5213L44.6056 14.9979C44.9266 14.9012 45.2498 15.1415 45.2498 15.4767L45.2498 24.5234C45.2498 24.8585 44.9266 25.0988 44.6056 25.0021L29.5892 20.4788Z" fill="#F1FF52"/>
    <path d="M30.4108 20.4788C30.8852 20.3359 30.8852 19.6641 30.4108 19.5213L15.3944 14.9979C15.0734 14.9012 14.7502 15.1415 14.7502 15.4767L14.7502 24.5234C14.7502 24.8585 15.0734 25.0988 15.3944 25.0021L30.4108 20.4788Z" fill="#F1FF52"/>
    <path fill-rule="evenodd" clip-rule="evenodd" d="M15.0001 25L31.0001 20L31.2983 20.9545L15.2983 25.9545L15.0001 25Z" fill="black"/>
    <path fill-rule="evenodd" clip-rule="evenodd" d="M29.0001 19L45.0001 14L45.2983 14.9545L29.2983 19.9545L29.0001 19Z" fill="black"/>
    <path d="M31.75 10.5C31.75 10.1685 31.6183 9.85054 31.3839 9.61612C31.1495 9.3817 30.8315 9.25 30.5 9.25C30.1685 9.25 29.8505 9.3817 29.6161 9.61612C29.3817 9.85054 29.25 10.1685 29.25 10.5V13H26.7662C25.995 13 25.3325 13.7213 25.54 14.5637C25.61 14.8488 26.75 19.5675 26.75 24.25C26.75 26.655 26.4488 29.0813 26.1425 30.92C26 31.77 25.8613 32.63 25.64 33.4638C25.57 33.7238 25.5 33.9888 25.5 34.25H24.25C23.9185 34.25 23.6005 34.3817 23.3661 34.6161C23.1317 34.8505 23 35.1685 23 35.5C23 35.8315 23.1317 36.1495 23.3661 36.3839C23.6005 36.6183 23.9185 36.75 24.25 36.75H36.75C37.0815 36.75 37.3995 36.6183 37.6339 36.3839C37.8683 36.1495 38 35.8315 38 35.5C38 35.1685 37.8683 34.8505 37.6339 34.6161C37.3995 34.3817 37.0815 34.25 36.75 34.25H35.5C35.5 33.9925 35.4287 33.7225 35.36 33.4613C35.1387 32.6275 35 31.7688 34.8575 30.92C34.5513 29.0813 34.25 26.655 34.25 24.25C34.25 19.5675 35.39 14.85 35.46 14.5637C35.6675 13.7213 35.005 13 34.235 13H31.75V10.5Z" fill="black"/>
</svg>
