<svg width="60" height="60" viewBox="0 0 60 60" fill="none" xmlns="http://www.w3.org/2000/svg">
<path d="M50 22C50 30.722 37.5297 48.1163 32.2829 55.0487C31.1241 56.5799 28.8759 56.5799 27.7171 55.0487C22.4703 48.1163 10 30.722 10 22C10 10.9543 18.9543 2 30 2C41.0457 2 50 10.9543 50 22Z" fill="#D9D9D9"/>
<rect x="12" y="4" width="36" height="36" rx="18" fill="white"/>
<path d="M43.8844 19.223L42.3129 20.7677C42.2296 20.8496 42.1132 20.8917 41.9893 20.8848C41.8654 20.8778 41.7443 20.8223 41.6525 20.7305C41.5607 20.6386 41.5057 20.518 41.4997 20.3952C41.4938 20.2723 41.5372 20.1573 41.6206 20.0753L43.1921 18.5307L42.4997 17.8383L40.3034 19.9972C40.2201 20.0791 40.1036 20.1212 39.9798 20.1142C39.8559 20.1072 39.7348 20.0517 39.6429 19.9599C39.5511 19.8681 39.4962 19.7475 39.4902 19.6246C39.4842 19.5018 39.5277 19.3867 39.6111 19.3048L41.8074 17.146L40.7688 16.1074L36.9985 19.8134L43.2297 26.0446L47 22.3386L43.8844 19.223ZM42.6011 26.6625L42.2868 26.9714C41.9534 27.2991 41.4877 27.4675 40.9923 27.4396C40.4968 27.4117 40.0122 27.1897 39.6449 26.8224L38.9526 26.1301L37.0674 27.983C36.8174 28.2288 36.4681 28.3552 36.0966 28.3342C35.725 28.3133 35.3615 28.1467 35.086 27.8713C34.8106 27.5959 34.6458 27.2341 34.6278 26.8655C34.6099 26.4969 34.7403 26.1518 34.9904 25.906L36.8762 24.0524L36.1838 23.36C35.8166 22.9928 35.5968 22.5104 35.5729 22.019C35.549 21.5275 35.7229 21.0673 36.0563 20.7396L36.3699 20.4313L42.6011 26.6625Z" fill="#C87F07"/>
<path d="M17.1156 19.1156L18.6871 20.6603C18.7704 20.7422 18.8868 20.7843 19.0107 20.7773C19.1346 20.7704 19.2557 20.7148 19.3475 20.623C19.4393 20.5312 19.4943 20.4106 19.5003 20.2878C19.5062 20.1649 19.4628 20.0499 19.3794 19.9679L17.8079 18.4233L18.5003 17.7309L20.6966 19.8897C20.7799 19.9717 20.8964 20.0138 21.0202 20.0068C21.1441 19.9998 21.2652 19.9443 21.3571 19.8525C21.4489 19.7607 21.5038 19.6401 21.5098 19.5172C21.5158 19.3944 21.4723 19.2793 21.3889 19.1974L19.1926 17.0386L20.2312 16L24.0015 19.706L17.7703 25.9372L14 22.2312L17.1156 19.1156ZM18.3989 26.555L18.7132 26.864C19.0466 27.1917 19.5123 27.3601 20.0077 27.3322C20.5032 27.3043 20.9878 27.0822 21.3551 26.715L22.0474 26.0226L23.9326 27.8756C24.1826 28.1214 24.5319 28.2477 24.9034 28.2268C25.275 28.2058 25.6385 28.0393 25.914 27.7639C26.1894 27.4885 26.3542 27.1267 26.3722 26.7581C26.3901 26.3895 26.2597 26.0444 26.0096 25.7986L24.1238 23.945L24.8162 23.2526C25.1834 22.8854 25.4032 22.403 25.4271 21.9115C25.451 21.4201 25.2771 20.9599 24.9437 20.6322L24.6301 20.3239L18.3989 26.555Z" fill="#C87F07"/>
<mask id="path-5-inside-1_301_936" fill="white">
<path fill-rule="evenodd" clip-rule="evenodd" d="M24.7741 12.5299C24.9478 12.2037 25.2872 12 25.6567 12H35.1275C35.5008 12 35.8429 12.2079 36.015 12.5391L37.6289 15.6465C37.9447 16.2546 37.569 16.9707 36.93 17.0901V27.7816H36.9299V29.9042C36.9299 30.9431 36.21 31.9007 34.903 32.603C33.6844 33.2589 32.068 33.6187 30.3631 33.6187C28.6583 33.6187 27.1303 33.3053 25.8233 32.603C24.5162 31.9007 23.7964 30.9431 23.7964 29.9042L23.7964 27.1183C23.7964 27.1105 23.7965 27.1028 23.7966 27.095V17.087C23.1635 16.9577 22.7973 16.2409 23.1188 15.6373L24.7741 12.5299ZM30.8683 30.8212V32.6785C32.0048 32.6262 33.053 32.3883 33.8991 32.0342V30.2582C32.9961 30.5833 31.9543 30.7748 30.8683 30.8212ZM34.9093 29.8171V31.4829C35.5407 31.0302 35.9196 30.4846 35.9196 29.9042V29.1207C35.6124 29.387 35.2735 29.6206 34.9093 29.8171ZM24.8067 29.1207V29.9042C24.8067 30.4846 25.1855 31.0302 25.8169 31.4829V29.8171C25.4528 29.6206 25.1139 29.387 24.8067 29.1207ZM26.8272 30.2582L26.8272 32.0342C27.6733 32.3883 28.7215 32.6262 29.858 32.6785L29.858 30.8212C28.772 30.7748 27.7301 30.5833 26.8272 30.2582Z"/>
</mask>
<path fill-rule="evenodd" clip-rule="evenodd" d="M24.7741 12.5299C24.9478 12.2037 25.2872 12 25.6567 12H35.1275C35.5008 12 35.8429 12.2079 36.015 12.5391L37.6289 15.6465C37.9447 16.2546 37.569 16.9707 36.93 17.0901V27.7816H36.9299V29.9042C36.9299 30.9431 36.21 31.9007 34.903 32.603C33.6844 33.2589 32.068 33.6187 30.3631 33.6187C28.6583 33.6187 27.1303 33.3053 25.8233 32.603C24.5162 31.9007 23.7964 30.9431 23.7964 29.9042L23.7964 27.1183C23.7964 27.1105 23.7965 27.1028 23.7966 27.095V17.087C23.1635 16.9577 22.7973 16.2409 23.1188 15.6373L24.7741 12.5299ZM30.8683 30.8212V32.6785C32.0048 32.6262 33.053 32.3883 33.8991 32.0342V30.2582C32.9961 30.5833 31.9543 30.7748 30.8683 30.8212ZM34.9093 29.8171V31.4829C35.5407 31.0302 35.9196 30.4846 35.9196 29.9042V29.1207C35.6124 29.387 35.2735 29.6206 34.9093 29.8171ZM24.8067 29.1207V29.9042C24.8067 30.4846 25.1855 31.0302 25.8169 31.4829V29.8171C25.4528 29.6206 25.1139 29.387 24.8067 29.1207ZM26.8272 30.2582L26.8272 32.0342C27.6733 32.3883 28.7215 32.6262 29.858 32.6785L29.858 30.8212C28.772 30.7748 27.7301 30.5833 26.8272 30.2582Z" fill="black"/>
<path d="M24.7741 12.5299L25.6567 13L25.6567 13L24.7741 12.5299ZM36.015 12.5391L35.1275 13V13L36.015 12.5391ZM37.6289 15.6465L38.5163 15.1856V15.1856L37.6289 15.6465ZM36.93 17.0901L36.7462 16.1072L35.93 16.2598V17.0901H36.93ZM36.93 27.7816V28.7816H37.93V27.7816H36.93ZM36.9299 27.7816V26.7816H35.9299V27.7816H36.9299ZM34.903 32.603L34.4297 31.7221L34.4291 31.7224L34.903 32.603ZM25.8233 32.603L25.3499 33.4839H25.35L25.8233 32.603ZM23.7964 29.9042H24.7964H23.7964ZM23.7964 27.1183H24.7964H23.7964ZM23.7966 27.095L24.7966 27.1066V27.095H23.7966ZM23.7966 17.087H24.7966V16.2705L23.9966 16.1072L23.7966 17.087ZM23.1188 15.6373L24.0014 16.1074L23.1188 15.6373ZM30.8683 32.6785H29.8683V33.7255L30.9142 33.6774L30.8683 32.6785ZM30.8683 30.8212L30.8256 29.8221L29.8683 29.8631V30.8212H30.8683ZM33.8991 32.0342L34.2851 32.9567L34.8991 32.6998V32.0342H33.8991ZM33.8991 30.2582H34.8991V28.8355L33.5604 29.3173L33.8991 30.2582ZM34.9093 31.4829H33.9093V33.4303L35.492 32.2956L34.9093 31.4829ZM34.9093 29.8171L34.4344 28.9371L33.9093 29.2205V29.8171H34.9093ZM35.9196 29.1207H36.9196V26.9304L35.2646 28.365L35.9196 29.1207ZM24.8067 29.9042H25.8067H24.8067ZM24.8067 29.1207L25.4617 28.365L23.8067 26.9304V29.1207H24.8067ZM25.8169 31.4829L25.2343 32.2956L26.8169 33.4303V31.4829H25.8169ZM25.8169 29.8171H26.8169V29.2205L26.2919 28.9371L25.8169 29.8171ZM26.8272 32.0342H25.8272V32.6998L26.4412 32.9567L26.8272 32.0342ZM26.8272 30.2582L27.1659 29.3173L25.8272 28.8355L25.8272 30.2582H26.8272ZM29.858 32.6785L29.8121 33.6774L30.858 33.7255L30.858 32.6785H29.858ZM29.858 30.8212H30.858L30.858 29.8631L29.9007 29.8221L29.858 30.8212ZM25.6567 11C24.9177 11 24.2389 11.4075 23.8915 12.0597L25.6567 13L25.6567 13V11ZM35.1275 11H25.6567V13H35.1275V11ZM36.9024 12.0782C36.5584 11.4157 35.874 11 35.1275 11V13L35.1275 13L36.9024 12.0782ZM38.5163 15.1856L36.9024 12.0782L35.1275 13L36.7414 16.1074L38.5163 15.1856ZM37.1138 18.0731C38.3942 17.8337 39.1498 16.4054 38.5163 15.1856L36.7414 16.1074C36.7435 16.1115 36.7436 16.1127 36.7433 16.1114C36.743 16.1102 36.7428 16.1085 36.7428 16.1067C36.7428 16.1033 36.7436 16.1033 36.7422 16.1061C36.7407 16.1091 36.739 16.1105 36.7393 16.1103C36.7397 16.11 36.7407 16.1092 36.7425 16.1085C36.7443 16.1076 36.7458 16.1073 36.7462 16.1072L37.1138 18.0731ZM37.93 27.7816V17.0901H35.93V27.7816H37.93ZM36.9299 28.7816H36.93V26.7816H36.9299V28.7816ZM37.9299 29.9042V27.7816H35.9299V29.9042H37.9299ZM35.3763 33.4839C36.8511 32.6915 37.9299 31.4603 37.9299 29.9042H35.9299C35.9299 30.4259 35.569 31.11 34.4297 31.7221L35.3763 33.4839ZM30.3631 34.6187C32.1942 34.6187 33.9816 34.2345 35.3769 33.4836L34.4291 31.7224C33.3871 32.2832 31.9417 32.6187 30.3631 32.6187V34.6187ZM25.35 33.4839C26.8376 34.2832 28.5382 34.6187 30.3631 34.6187V32.6187C28.7784 32.6187 27.423 32.3273 26.2966 31.7221L25.35 33.4839ZM22.7964 29.9042C22.7964 31.4603 23.8752 32.6915 25.3499 33.4839L26.2966 31.7221C25.1573 31.11 24.7964 30.4259 24.7964 29.9042H22.7964ZM22.7964 27.1183L22.7964 29.9042H24.7964L24.7964 27.1183H22.7964ZM22.7966 27.0834C22.7965 27.095 22.7964 27.1067 22.7964 27.1183H24.7964C24.7964 27.1144 24.7964 27.1105 24.7965 27.1066L22.7966 27.0834ZM22.7966 17.087V27.095H24.7966V17.087H22.7966ZM22.2362 15.1672C21.591 16.3784 22.3283 17.8079 23.5965 18.0668L23.9966 16.1072C23.9972 16.1073 23.9988 16.1078 24.0006 16.1086C24.0023 16.1094 24.0033 16.1102 24.0036 16.1104C24.0038 16.1106 24.002 16.109 24.0006 16.1059C23.9992 16.1032 24 16.1032 24 16.1067C24 16.1086 23.9997 16.1103 23.9994 16.1115C23.9991 16.1128 23.9992 16.1115 24.0014 16.1074L22.2362 15.1672ZM23.8915 12.0597L22.2362 15.1672L24.0014 16.1074L25.6567 13L23.8915 12.0597ZM31.8683 32.6785V30.8212H29.8683V32.6785H31.8683ZM33.5131 31.1117C32.7849 31.4164 31.8532 31.6321 30.8224 31.6795L30.9142 33.6774C32.1565 33.6203 33.3211 33.3601 34.2851 32.9567L33.5131 31.1117ZM32.8991 30.2582V32.0342H34.8991V30.2582H32.8991ZM30.911 31.8203C32.0828 31.7702 33.2263 31.5632 34.2377 31.1991L33.5604 29.3173C32.766 29.6033 31.8258 29.7794 30.8256 29.8221L30.911 31.8203ZM35.9093 31.4829V29.8171H33.9093V31.4829H35.9093ZM34.9196 29.9042C34.9196 30.0215 34.8365 30.3046 34.3266 30.6702L35.492 32.2956C36.245 31.7557 36.9196 30.9476 36.9196 29.9042H34.9196ZM34.9196 29.1207V29.9042H36.9196V29.1207H34.9196ZM35.3843 30.6972C35.8117 30.4665 36.2111 30.1914 36.5746 29.8763L35.2646 28.365C35.0136 28.5826 34.7353 28.7747 34.4344 28.9371L35.3843 30.6972ZM25.8067 29.9042V29.1207H23.8067V29.9042H25.8067ZM26.3996 30.6702C25.8898 30.3046 25.8067 30.0215 25.8067 29.9042H23.8067C23.8067 30.9476 24.4813 31.7557 25.2343 32.2956L26.3996 30.6702ZM24.8169 29.8171V31.4829H26.8169V29.8171H24.8169ZM24.1517 29.8763C24.5152 30.1914 24.9146 30.4665 25.342 30.6972L26.2919 28.9371C25.991 28.7747 25.7126 28.5826 25.4617 28.365L24.1517 29.8763ZM27.8272 32.0342V30.2582H25.8272L25.8272 32.0342H27.8272ZM29.9039 31.6795C28.8731 31.6321 27.9414 31.4164 27.2132 31.1117L26.4412 32.9567C27.4052 33.3601 28.5698 33.6203 29.8121 33.6774L29.9039 31.6795ZM28.858 30.8212L28.858 32.6785H30.858L30.858 30.8212H28.858ZM26.4885 31.1991C27.5 31.5632 28.6435 31.7702 29.8153 31.8203L29.9007 29.8221C28.9004 29.7794 27.9603 29.6033 27.1659 29.3173L26.4885 31.1991Z" fill="#C87F07" mask="url(#path-5-inside-1_301_936)"/>
<rect x="28" y="19.9999" width="4.37781" height="7.29635" rx="1" fill="#C87F07"/>
</svg>
