<svg width="60" height="60" viewBox="0 0 60 60" fill="none" xmlns="http://www.w3.org/2000/svg">
<path d="M50 22C50 30.722 37.5297 48.1163 32.2829 55.0487C31.1241 56.5799 28.8759 56.5799 27.7171 55.0487C22.4703 48.1163 10 30.722 10 22C10 10.9543 18.9543 2 30 2C41.0457 2 50 10.9543 50 22Z" fill="#D9D9D9"/>
<rect x="12" y="4" width="36" height="36" rx="18" fill="white"/>
<path d="M18.187 17.7183L19.0776 16.8278L30.3582 26.921L23.8273 34.3425L17.5933 20.9838L18.187 17.7183Z" fill="#C5CEE0"/>
<path d="M24.126 34.3424L30.0632 26.9209L40.7501 22.468L41.3438 28.9989L40.4532 34.3424H24.126Z" fill="#2E3A59"/>
<path d="M30.3588 26.921L18.7812 16.5309L30.3588 10.5937L32.7336 11.1875L40.7488 22.1713L30.3588 26.921Z" fill="#EDF1F7"/>
<path fill-rule="evenodd" clip-rule="evenodd" d="M30.126 10.0635C30.2464 10.0028 30.3839 9.98495 30.5158 10.0128L32.7832 10.492C32.9384 10.5248 33.0741 10.6183 33.1599 10.7517L34.7271 13.1889L35.7686 14.7661L41.2139 21.8676C41.2814 21.9556 41.3229 22.0607 41.3337 22.1711L42.0093 29.0831C42.0148 29.1393 42.0123 29.1959 42.0018 29.2514L41.0168 34.4529C40.9637 34.7333 40.7187 34.9362 40.4334 34.9362H23.9417C23.7103 34.9362 23.4999 34.8017 23.4028 34.5915L17.0548 20.8529C17.004 20.7431 16.988 20.6205 17.0089 20.5014L17.4916 17.7459C17.5091 17.646 17.5519 17.5523 17.6159 17.4736L19.064 15.6942C19.1168 15.6294 19.1827 15.5764 19.2574 15.5388L30.126 10.0635ZM30.4742 11.2177L19.9049 16.5422L19.8112 16.6573L30.4732 26.2258L39.9464 22.1659L34.8136 15.472C34.8051 15.4609 34.797 15.4496 34.7893 15.4379L33.7303 13.8342L32.2952 11.6025L30.4742 11.2177ZM18.6345 18.1032L19.0608 17.5794L29.5261 26.9713L24.0707 33.2061L18.2106 20.5234L18.6345 18.1032ZM25.1737 33.7488H39.9416L40.8192 29.114L40.2535 23.3262L30.7174 27.4131L25.1737 33.7488Z" fill="black"/>
</svg>
