<svg width="60" height="60" viewBox="0 0 60 60" fill="none" xmlns="http://www.w3.org/2000/svg">
<path d="M50 22C50 30.722 37.5297 48.1163 32.2829 55.0487C31.1241 56.5799 28.8759 56.5799 27.7171 55.0487C22.4703 48.1163 10 30.722 10 22C10 10.9543 18.9543 2 30 2C41.0457 2 50 10.9543 50 22Z" fill="#D9D9D9"/>
<rect x="12" y="4" width="36" height="36" rx="18" fill="white"/>
<path d="M26.0344 12.7008L24.5231 13.9691L26.4193 13.4229C27.4146 13.2253 28.3381 13.2916 28.794 14.1462C29.0128 14.5566 29.0594 15.037 28.9237 15.4817C28.788 15.9265 28.481 16.2992 28.0703 16.5179L27.2958 16.9302L27.4334 17.188L27.7086 17.7035C27.817 17.9067 27.8843 18.1293 27.9065 18.3585C27.9288 18.5877 27.9057 18.8191 27.8384 19.0393C27.7712 19.2596 27.6612 19.4645 27.5146 19.6423C27.3681 19.8201 27.188 19.9673 26.9845 20.0755C26.129 20.5309 25.341 20.0796 24.6103 19.3526L23.3407 17.843L23.8874 19.7372C24.0877 20.7052 24.0189 21.6539 23.1637 22.1093C22.3086 22.5646 21.245 22.241 20.7891 21.3863L20.3763 20.6127L20.1182 20.7502L19.6022 21.0247C18.7462 21.48 17.683 21.1564 17.2276 20.3018C16.7721 19.4471 17.1489 18.5904 17.9513 17.9301L19.8189 16.4737L19.8242 16.4696L17.9595 17.0792C17.5974 17.1978 17.2231 17.2829 16.8426 17.2972C16.1656 17.3226 15.5881 17.1459 15.2383 16.567C14.7125 15.6972 15.0974 14.5484 15.9948 14.0705L16.6898 13.7007L16.5522 13.4429L16.3134 12.995C15.8437 12.1137 16.1598 10.9657 17.0572 10.5263C17.8919 10.1172 18.6819 10.5157 19.3753 11.2779L20.6449 12.7875L20.0982 10.8933C19.8918 10.0669 19.9667 8.97662 20.8223 8.52127C21.2332 8.30274 21.7141 8.25618 22.1593 8.39182C22.6046 8.52747 22.9776 8.83421 23.1965 9.24459L23.6093 10.0182L23.8674 9.88076L24.3838 9.60583C24.7947 9.38715 25.2757 9.34045 25.721 9.47603C26.1663 9.6116 26.5395 9.91833 26.7585 10.3287C27.2139 11.1838 26.8613 11.9922 26.0344 12.7008Z" fill="#166C29"/>
<path d="M20.5915 12.5022L20.0013 10.617C19.7759 9.79451 19.8259 8.70112 20.6714 8.22573C21.5168 7.75035 22.5877 8.05033 23.0631 8.89578L23.4934 9.66091L23.7487 9.51747L24.2589 9.2306C25.1048 8.75522 26.1756 9.0552 26.651 9.90065C27.1264 10.7461 26.792 11.5645 25.981 12.2923L24.4978 13.5968L26.3826 13.0066C27.3735 12.7862 28.2989 12.8317 28.7743 13.6771C29.2497 14.5226 28.9497 15.5934 28.1042 16.0688L27.3387 16.4991L27.4821 16.7544L27.769 17.2646C28.2444 18.1101 27.9448 19.1809 27.0994 19.6563C26.2539 20.1317 25.4548 19.6973 24.7073 18.9863L23.4032 17.5031L23.9934 19.3883C24.2155 20.3526 24.1683 21.3046 23.3229 21.78C22.4774 22.2554 21.407 21.955 20.9316 21.1099L20.5013 20.3444L20.246 20.4878L19.7358 20.7747C19.3298 21.003 18.8497 21.0606 18.4012 20.9349C17.9527 20.8093 17.5724 20.5106 17.3441 20.1047C16.8687 19.2592 17.2265 18.3929 18.0141 17.713L19.8538 16.2081L18.0023 16.861C17.6428 16.9876 17.2703 17.0814 16.89 17.1044C16.2134 17.1454 15.6319 16.9814 15.2688 16.4098C14.7229 15.5508 15.0815 14.3914 15.9688 13.8927L16.6556 13.5062L16.5122 13.2513L16.263 12.8083C15.7729 11.9362 16.063 10.7797 16.9507 10.3191C17.7764 9.89041 18.5756 10.2715 19.2866 11.019L20.5911 12.5026" stroke="black" stroke-miterlimit="10" stroke-linecap="round" stroke-linejoin="round"/>
<path d="M33.9656 12.7008L35.4769 13.9691L33.5807 13.4229C32.5854 13.2253 31.6619 13.2916 31.206 14.1462C30.9872 14.5566 30.9406 15.037 31.0763 15.4817C31.212 15.9265 31.519 16.2992 31.9297 16.5179L32.7042 16.9302L32.5666 17.188L32.2914 17.7035C32.183 17.9067 32.1157 18.1293 32.0935 18.3585C32.0712 18.5877 32.0943 18.8191 32.1616 19.0393C32.2288 19.2596 32.3388 19.4645 32.4854 19.6423C32.6319 19.8201 32.812 19.9673 33.0155 20.0755C33.871 20.5309 34.659 20.0796 35.3897 19.3526L36.6593 17.843L36.1126 19.7372C35.9123 20.7052 35.9811 21.6539 36.8363 22.1093C37.6914 22.5646 38.755 22.241 39.2109 21.3863L39.6237 20.6127L39.8818 20.7502L40.3978 21.0247C41.2538 21.48 42.317 21.1564 42.7724 20.3018C43.2279 19.4471 42.8511 18.5904 42.0487 17.9301L40.1811 16.4737L40.1758 16.4696L42.0405 17.0792C42.4026 17.1978 42.7769 17.2829 43.1574 17.2972C43.8344 17.3226 44.4119 17.1459 44.7617 16.567C45.2875 15.6972 44.9026 14.5484 44.0052 14.0705L43.3102 13.7007L43.4478 13.4429L43.6866 12.995C44.1563 12.1137 43.8402 10.9657 42.9428 10.5263C42.1081 10.1172 41.3181 10.5157 40.6247 11.2779L39.3551 12.7875L39.9018 10.8933C40.1082 10.0669 40.0333 8.97662 39.1777 8.52127C38.7668 8.30274 38.2859 8.25618 37.8407 8.39182C37.3954 8.52747 37.0224 8.83421 36.8035 9.24459L36.3907 10.0182L36.1326 9.88076L35.6162 9.60583C35.2053 9.38715 34.7243 9.34045 34.279 9.47603C33.8337 9.6116 33.4605 9.91833 33.2415 10.3287C32.7861 11.1838 33.1387 11.9922 33.9656 12.7008Z" fill="#166C29"/>
<path d="M39.4085 12.5022L39.9987 10.617C40.2241 9.79451 40.1741 8.70112 39.3286 8.22573C38.4832 7.75035 37.4123 8.05033 36.9369 8.89578L36.5066 9.66091L36.2513 9.51747L35.7411 9.2306C34.8952 8.75522 33.8244 9.0552 33.349 9.90065C32.8736 10.7461 33.208 11.5645 34.019 12.2923L35.5022 13.5968L33.6174 13.0066C32.6265 12.7862 31.7011 12.8317 31.2257 13.6771C30.7503 14.5226 31.0503 15.5934 31.8958 16.0688L32.6613 16.4991L32.5179 16.7544L32.231 17.2646C31.7556 18.1101 32.0552 19.1809 32.9006 19.6563C33.7461 20.1317 34.5452 19.6973 35.2927 18.9863L36.5968 17.5031L36.0066 19.3883C35.7845 20.3526 35.8317 21.3046 36.6771 21.78C37.5226 22.2554 38.593 21.955 39.0684 21.1099L39.4987 20.3444L39.754 20.4878L40.2642 20.7747C40.6702 21.003 41.1503 21.0606 41.5988 20.9349C42.0473 20.8093 42.4276 20.5106 42.6559 20.1047C43.1313 19.2592 42.7735 18.3929 41.9859 17.713L40.1462 16.2081L41.9977 16.861C42.3572 16.9876 42.7297 17.0814 43.11 17.1044C43.7866 17.1454 44.3681 16.9814 44.7312 16.4098C45.2771 15.5508 44.9185 14.3914 44.0312 13.8927L43.3444 13.5062L43.4878 13.2513L43.737 12.8083C44.2271 11.9362 43.937 10.7797 43.0493 10.3191C42.2236 9.89041 41.4244 10.2715 40.7134 11.019L39.4089 12.5026" stroke="black" stroke-miterlimit="10" stroke-linecap="round" stroke-linejoin="round"/>
<path d="M25.8106 18.7575C25.9219 18.3123 26.3219 18 26.7808 18H33.6951C34.165 18 34.5716 18.3272 34.672 18.7863L37.7345 32.7863C37.8709 33.4099 37.396 34 36.7576 34H23.2808C22.6302 34 22.1528 33.3886 22.3106 32.7575L25.8106 18.7575Z" fill="black"/>
<path d="M30 18C32.2092 18 34 16.2092 34 14C34 11.7908 32.2092 10 30 10V18ZM30 18C30 20.2092 31.7908 22 34 22C36.2092 22 38 20.2092 38 18H30ZM30 18C30 15.7908 28.2092 14 26 14C23.7908 14 22 15.7908 22 18H30ZM30 18C27.7908 18 26 19.7908 26 22C26 24.2092 27.7908 26 30 26V18Z" fill="white"/>
<path d="M30 18C32.2092 18 34 16.2092 34 14C34 11.7908 32.2092 10 30 10V18ZM30 18C30 20.2092 31.7908 22 34 22C36.2092 22 38 20.2092 38 18H30ZM30 18C30 15.7908 28.2092 14 26 14C23.7908 14 22 15.7908 22 18H30ZM30 18C27.7908 18 26 19.7908 26 22C26 24.2092 27.7908 26 30 26V18Z" stroke="black" stroke-linejoin="round"/>
<path d="M26.0344 31.6147L24.5231 30.3465L26.4193 30.8927C27.4146 31.0903 28.3381 31.024 28.794 30.1693C29.0128 29.759 29.0594 29.2786 28.9237 28.8338C28.788 28.3891 28.481 28.0164 28.0703 27.7977L27.2958 27.3853L27.4334 27.1276L27.7086 26.6121C27.817 26.4088 27.8843 26.1863 27.9065 25.957C27.9288 25.7278 27.9057 25.4965 27.8384 25.2762C27.7712 25.056 27.6612 24.8511 27.5146 24.6733C27.3681 24.4955 27.188 24.3483 26.9845 24.24C26.129 23.7847 25.341 24.2359 24.6103 24.9629L23.3407 26.4726L23.8874 24.5784C24.0877 23.6104 24.0189 22.6616 23.1637 22.2063C22.3086 21.751 21.245 22.0746 20.7891 22.9292L20.3763 23.7028L20.1182 23.5654L19.6022 23.2909C18.7462 22.8355 17.683 23.1591 17.2276 24.0138C16.7721 24.8684 17.1489 25.7251 17.9513 26.3854L19.8189 27.8419L19.8242 27.846L17.9595 27.2364C17.5974 27.1177 17.2231 27.0326 16.8426 27.0183C16.1656 26.993 15.5881 27.1697 15.2383 27.7486C14.7125 28.6184 15.0974 29.7672 15.9948 30.245L16.6898 30.6149L16.5522 30.8726L16.3134 31.3206C15.8437 32.2018 16.1598 33.3498 17.0572 33.7892C17.8919 34.1983 18.6819 33.7998 19.3753 33.0377L20.6449 31.528L20.0982 33.4222C19.8918 34.2486 19.9667 35.3389 20.8223 35.7943C21.2332 36.0128 21.7141 36.0594 22.1593 35.9237C22.6046 35.7881 22.9776 35.4813 23.1965 35.071L23.6093 34.2973L23.8674 34.4348L24.3838 34.7097C24.7947 34.9284 25.2757 34.9751 25.721 34.8395C26.1663 34.704 26.5395 34.3972 26.7585 33.9868C27.2139 33.1318 26.8613 32.3233 26.0344 31.6147Z" fill="#166C29"/>
<path d="M20.5915 31.8134L20.0013 33.6985C19.7759 34.521 19.8259 35.6144 20.6714 36.0898C21.5168 36.5652 22.5877 36.2652 23.0631 35.4198L23.4934 34.6546L23.7487 34.7981L24.2589 35.0849C25.1048 35.5603 26.1756 35.2604 26.651 34.4149C27.1264 33.5695 26.792 32.751 25.981 32.0232L24.4978 30.7188L26.3826 31.3089C27.3735 31.5294 28.2989 31.4839 28.7743 30.6384C29.2497 29.793 28.9497 28.7221 28.1042 28.2468L27.3387 27.8165L27.4821 27.5611L27.769 27.0509C28.2444 26.2055 27.9448 25.1346 27.0994 24.6592C26.2539 24.1838 25.4548 24.6183 24.7073 25.3293L23.4032 26.8124L23.9934 24.9273C24.2155 23.963 24.1683 23.011 23.3229 22.5356C22.4774 22.0602 21.407 22.3606 20.9316 23.2056L20.5013 23.9712L20.246 23.8277L19.7358 23.5408C19.3298 23.3126 18.8497 23.255 18.4012 23.3806C17.9527 23.5063 17.5724 23.8049 17.3441 24.2109C16.8687 25.0563 17.2265 25.9227 18.0141 26.6026L19.8538 28.1074L18.0023 27.4546C17.6428 27.328 17.2703 27.2341 16.89 27.2112C16.2134 27.1702 15.6319 27.3341 15.2688 27.9058C14.7229 28.7648 15.0815 29.9241 15.9688 30.4229L16.6556 30.8093L16.5122 31.0642L16.263 31.5073C15.7729 32.3793 16.063 33.5358 16.9507 33.9965C17.7764 34.4251 18.5756 34.044 19.2866 33.2965L20.5911 31.813" stroke="black" stroke-miterlimit="10" stroke-linecap="round" stroke-linejoin="round"/>
<path d="M33.9656 31.6147L35.4769 30.3465L33.5807 30.8927C32.5854 31.0903 31.6619 31.024 31.206 30.1693C30.9872 29.759 30.9406 29.2786 31.0763 28.8338C31.212 28.3891 31.519 28.0164 31.9297 27.7977L32.7042 27.3853L32.5666 27.1276L32.2914 26.6121C32.183 26.4088 32.1157 26.1863 32.0935 25.957C32.0712 25.7278 32.0943 25.4965 32.1616 25.2762C32.2288 25.056 32.3388 24.8511 32.4854 24.6733C32.6319 24.4955 32.812 24.3483 33.0155 24.24C33.871 23.7847 34.659 24.2359 35.3897 24.9629L36.6593 26.4726L36.1126 24.5784C35.9123 23.6104 35.9811 22.6616 36.8363 22.2063C37.6914 21.751 38.755 22.0746 39.2109 22.9292L39.6237 23.7028L39.8818 23.5654L40.3978 23.2909C41.2538 22.8355 42.317 23.1591 42.7724 24.0138C43.2279 24.8684 42.8511 25.7251 42.0487 26.3854L40.1811 27.8419L40.1758 27.846L42.0405 27.2364C42.4026 27.1177 42.7769 27.0326 43.1574 27.0183C43.8344 26.993 44.4119 27.1697 44.7617 27.7486C45.2875 28.6184 44.9026 29.7672 44.0052 30.245L43.3102 30.6149L43.4478 30.8726L43.6866 31.3206C44.1563 32.2018 43.8402 33.3498 42.9428 33.7892C42.1081 34.1983 41.3181 33.7998 40.6247 33.0377L39.3551 31.528L39.9018 33.4222C40.1082 34.2486 40.0333 35.3389 39.1777 35.7943C38.7668 36.0128 38.2859 36.0594 37.8407 35.9237C37.3954 35.7881 37.0224 35.4813 36.8035 35.071L36.3907 34.2973L36.1326 34.4348L35.6162 34.7097C35.2053 34.9284 34.7243 34.9751 34.279 34.8395C33.8337 34.704 33.4605 34.3972 33.2415 33.9868C32.7861 33.1318 33.1387 32.3233 33.9656 31.6147Z" fill="#166C29"/>
<path d="M39.4085 31.8134L39.9987 33.6985C40.2241 34.521 40.1741 35.6144 39.3286 36.0898C38.4832 36.5652 37.4123 36.2652 36.9369 35.4198L36.5066 34.6546L36.2513 34.7981L35.7411 35.0849C34.8952 35.5603 33.8244 35.2604 33.349 34.4149C32.8736 33.5695 33.208 32.751 34.019 32.0232L35.5022 30.7188L33.6174 31.3089C32.6265 31.5294 31.7011 31.4839 31.2257 30.6384C30.7503 29.793 31.0503 28.7221 31.8958 28.2468L32.6613 27.8165L32.5179 27.5611L32.231 27.0509C31.7556 26.2055 32.0552 25.1346 32.9006 24.6592C33.7461 24.1838 34.5452 24.6183 35.2927 25.3293L36.5968 26.8124L36.0066 24.9273C35.7845 23.963 35.8317 23.011 36.6771 22.5356C37.5226 22.0602 38.593 22.3606 39.0684 23.2056L39.4987 23.9712L39.754 23.8277L40.2642 23.5408C40.6702 23.3126 41.1503 23.255 41.5988 23.3806C42.0473 23.5063 42.4276 23.8049 42.6559 24.2109C43.1313 25.0563 42.7735 25.9227 41.9859 26.6026L40.1462 28.1074L41.9977 27.4546C42.3572 27.328 42.7297 27.2341 43.11 27.2112C43.7866 27.1702 44.3681 27.3341 44.7312 27.9058C45.2771 28.7648 44.9185 29.9241 44.0312 30.4229L43.3444 30.8093L43.4878 31.0642L43.737 31.5073C44.2271 32.3793 43.937 33.5358 43.0493 33.9965C42.2236 34.4251 41.4244 34.044 40.7134 33.2965L39.4089 31.813" stroke="black" stroke-miterlimit="10" stroke-linecap="round" stroke-linejoin="round"/>
</svg>
