<svg height="100%" width="100%" viewBox="0 0 400 100" fill="none" xmlns="http://www.w3.org/2000/svg">
<path fill-rule="evenodd" clip-rule="evenodd" d="M72.3391 51.9553C74.5725 48.9803 75.9111 45.1864 75.9111 41.0541C75.9111 38.81 75.5163 36.6657 74.7978 34.6981C75.3032 34.4787 75.7779 34.1501 76.1912 33.7119C77.8725 31.9294 79.0421 27.7986 77.3954 25.9787C75.7487 24.1587 71.9093 25.3387 70.2281 27.1212C70.1065 27.2501 69.9936 27.385 69.8893 27.5249C67.1583 25.1665 63.6973 23.7568 59.9321 23.7568C54.0398 23.7568 48.8924 27.2093 46.122 32.3474C44.2768 30.8436 41.0111 30.0049 39.5089 31.6311C37.8448 33.4324 38.9747 37.5761 40.6387 39.3774C41.5482 40.3619 42.7665 40.8083 43.956 40.7167C43.9541 40.8289 43.9531 40.9414 43.9531 41.0541C43.9531 46.2958 46.1069 50.9929 49.5087 54.165C50.1217 55.5804 50.595 56.9269 50.3445 57.198C50.1475 57.4113 49.5131 57.3879 48.792 57.3613C47.5636 57.3159 46.0834 57.2613 46.0834 58.3512C46.0834 60.0809 46.6161 62.9638 47.6813 63.5404C48.1368 63.7869 47.8133 64.4551 47.4602 65.1843C46.9875 66.1606 46.4618 67.2464 47.6813 67.5764C48.6711 67.8443 47.9366 68.4854 46.973 69.3265C45.8625 70.2959 44.4478 71.5307 45.0182 72.7656C46.0834 75.0719 36.496 79.6845 35.4307 79.6845C34.5785 79.6845 34.7205 80.8377 34.8981 81.4142C34.0104 81.0299 31.5958 80.607 29.0392 81.9908C26.4825 83.3746 24.0679 86.0269 23.1802 87.18H82.3026C80.7047 81.4142 77.0828 69.7674 75.3783 69.3061C73.6739 68.8449 74.6682 67.5764 75.3783 66.9998C75.5559 66.4232 75.6979 65.2701 74.8457 65.2701C74.3779 65.2701 74.6291 64.9365 75.0581 64.3669C75.606 63.6396 76.4436 62.5275 76.4436 61.2341C76.4436 58.9278 73.2478 55.4683 72.1825 56.6214C71.542 57.3149 71.8644 54.464 72.3391 51.9553ZM58.0754 37.3355C57.9013 39.2368 55.8617 40.5744 53.5198 40.323C51.178 40.0717 49.4207 38.3267 49.5948 36.4254C49.769 34.5241 51.8086 33.1865 54.1504 33.4379C56.4923 33.6892 58.2495 35.4342 58.0754 37.3355ZM65.2897 32.6323C63.5073 33.7134 62.6873 35.797 63.4582 37.2863C64.229 38.7756 66.2988 39.1065 68.0812 38.0255C69.8636 36.9444 70.6836 34.8607 69.9127 33.3715C69.1419 31.8822 67.0721 31.5513 65.2897 32.6323Z" fill="#FF352B"/>
<ellipse cx="2.2269" cy="2.35058" rx="2.2269" ry="2.35058" transform="matrix(0.99429 0.10671 -0.0912055 0.995832 52.4583 34.4443)" fill="#FF352B"/>
<ellipse cx="2.2269" cy="2.35058" rx="2.2269" ry="2.35058" transform="matrix(0.99429 0.10671 -0.0912055 0.995832 64.1948 33.4224)" fill="#FF352B"/>
<path fill-rule="evenodd" clip-rule="evenodd" d="M385.45 15H25.415C22.7778 15 22.55 19.2386 22.55 22L17.775 80C17.775 82.7614 19.9128 85 22.55 85L383.54 81.5C386.177 81.5 385.45 78.2614 385.45 75.5L390.225 20C390.225 17.2386 388.087 15 385.45 15ZM22.55 10C17.2757 10 13 14.4772 13 20V80C13 85.5229 17.2757 90 22.55 90H385.45C390.724 90 395 85.5229 395 80V20C395 14.4772 390.724 10 385.45 10H22.55Z" fill="#FF352B"/>
<path d="M1.43929 86.6245C4.26018 64.9152 9.14812 26.6561 9.14812 24L10.9134 86.9159C10.9608 88.605 9.60443 90 7.91462 90H4.41647C2.60562 90 1.20595 88.4203 1.43929 86.6245Z" fill="#FF352B"/>
<path d="M378.898 25.8527C317.607 23.0053 198.966 20.9942 191 20.9942L378.969 19.0316C380.638 19.0141 382 20.3623 382 22.0314L382 22.8508C382 24.5648 380.61 25.9322 378.898 25.8527Z" fill="#FF352B"/>
<path d="M108.019 36.5127V72.0596H99.4492V36.5127H108.019ZM118.712 36.5127V43.1289H89V36.5127H118.712Z" fill="#FF352B"/>
<path d="M151.744 53.5781V55.0186C151.744 57.7367 151.362 60.1781 150.597 62.3428C149.848 64.4912 148.782 66.3304 147.398 67.8604C146.015 69.374 144.379 70.5378 142.491 71.3516C140.603 72.1491 138.52 72.5479 136.241 72.5479C133.946 72.5479 131.847 72.1491 129.942 71.3516C128.054 70.5378 126.41 69.374 125.011 67.8604C123.627 66.3304 122.553 64.4912 121.788 62.3428C121.039 60.1781 120.665 57.7367 120.665 55.0186V53.5781C120.665 50.86 121.039 48.4186 121.788 46.2539C122.553 44.0892 123.619 42.25 124.986 40.7363C126.37 39.2064 128.006 38.0426 129.894 37.2451C131.798 36.4313 133.897 36.0244 136.192 36.0244C138.471 36.0244 140.554 36.4313 142.442 37.2451C144.347 38.0426 145.991 39.2064 147.374 40.7363C148.757 42.25 149.832 44.0892 150.597 46.2539C151.362 48.4186 151.744 50.86 151.744 53.5781ZM143.053 55.0186V53.5293C143.053 51.7715 142.898 50.2253 142.589 48.8906C142.296 47.5397 141.856 46.4085 141.271 45.4971C140.685 44.5856 139.96 43.902 139.098 43.4463C138.251 42.9743 137.283 42.7383 136.192 42.7383C135.053 42.7383 134.06 42.9743 133.214 43.4463C132.368 43.902 131.66 44.5856 131.09 45.4971C130.52 46.4085 130.089 47.5397 129.796 48.8906C129.519 50.2253 129.381 51.7715 129.381 53.5293V55.0186C129.381 56.7601 129.519 58.3063 129.796 59.6572C130.089 60.9919 130.52 62.123 131.09 63.0508C131.676 63.9785 132.392 64.6784 133.238 65.1504C134.101 65.6224 135.102 65.8584 136.241 65.8584C137.332 65.8584 138.3 65.6224 139.146 65.1504C139.993 64.6784 140.701 63.9785 141.271 63.0508C141.856 62.123 142.296 60.9919 142.589 59.6572C142.898 58.3063 143.053 56.7601 143.053 55.0186Z" fill="#FF352B"/>
<path d="M170.372 59.999H161.534V53.3828H170.372C171.576 53.3828 172.553 53.1794 173.302 52.7725C174.05 52.3656 174.596 51.804 174.938 51.0879C175.296 50.3555 175.475 49.5335 175.475 48.6221C175.475 47.6455 175.296 46.7422 174.938 45.9121C174.596 45.082 174.05 44.4147 173.302 43.9102C172.553 43.3893 171.576 43.1289 170.372 43.1289H164.757V72.0596H156.188V36.5127H170.372C173.22 36.5127 175.67 37.0335 177.721 38.0752C179.788 39.1169 181.375 40.5492 182.481 42.3721C183.588 44.1787 184.142 46.2458 184.142 48.5732C184.142 50.8682 183.588 52.8701 182.481 54.5791C181.375 56.2881 179.788 57.6227 177.721 58.583C175.67 59.527 173.22 59.999 170.372 59.999Z" fill="#FF352B"/>
<path d="M219.518 62.6113C219.518 62.0579 219.436 61.5615 219.273 61.1221C219.111 60.6663 218.81 60.2432 218.37 59.8525C217.931 59.4619 217.296 59.0713 216.466 58.6807C215.652 58.2738 214.578 57.8506 213.243 57.4111C211.681 56.8903 210.175 56.3044 208.727 55.6533C207.278 54.986 205.984 54.2129 204.845 53.334C203.705 52.4388 202.802 51.3971 202.135 50.209C201.467 49.0046 201.134 47.6048 201.134 46.0098C201.134 44.4798 201.476 43.1045 202.159 41.8838C202.843 40.6468 203.795 39.597 205.016 38.7344C206.253 37.8555 207.701 37.1882 209.361 36.7324C211.021 36.2604 212.836 36.0244 214.806 36.0244C217.41 36.0244 219.705 36.4801 221.69 37.3916C223.692 38.2868 225.255 39.5645 226.378 41.2246C227.517 42.8685 228.087 44.8135 228.087 47.0596H219.566C219.566 46.1644 219.379 45.375 219.005 44.6914C218.647 44.0078 218.102 43.4707 217.369 43.0801C216.637 42.6895 215.717 42.4941 214.61 42.4941C213.536 42.4941 212.633 42.6569 211.9 42.9824C211.168 43.3079 210.615 43.7474 210.24 44.3008C209.866 44.8379 209.679 45.432 209.679 46.083C209.679 46.6201 209.825 47.1084 210.118 47.5479C210.427 47.971 210.859 48.3698 211.412 48.7441C211.982 49.1185 212.665 49.4766 213.463 49.8184C214.277 50.1602 215.188 50.4938 216.197 50.8193C218.085 51.4215 219.762 52.097 221.227 52.8457C222.708 53.5781 223.953 54.4163 224.962 55.3604C225.987 56.2881 226.76 57.346 227.281 58.5342C227.818 59.7223 228.087 61.0651 228.087 62.5625C228.087 64.1576 227.778 65.5736 227.159 66.8105C226.541 68.0475 225.654 69.0973 224.498 69.96C223.342 70.8063 221.959 71.4492 220.348 71.8887C218.736 72.3281 216.938 72.5479 214.952 72.5479C213.129 72.5479 211.331 72.32 209.557 71.8643C207.799 71.3923 206.204 70.6761 204.771 69.7158C203.339 68.7393 202.192 67.4941 201.329 65.9805C200.483 64.4505 200.06 62.6357 200.06 60.5361H208.653C208.653 61.5778 208.792 62.4567 209.068 63.1729C209.345 63.889 209.752 64.4668 210.289 64.9062C210.826 65.3294 211.485 65.6387 212.267 65.834C213.048 66.013 213.943 66.1025 214.952 66.1025C216.043 66.1025 216.922 65.9479 217.589 65.6387C218.256 65.3132 218.744 64.89 219.054 64.3691C219.363 63.832 219.518 63.2461 219.518 62.6113Z" fill="#FF352B"/>
<path d="M256.969 65.4678V72.0596H238.023V65.4678H256.969ZM241.075 36.5127V72.0596H232.506V36.5127H241.075ZM254.527 50.624V56.9961H238.023V50.624H254.527ZM257.042 36.5127V43.1289H238.023V36.5127H257.042Z" fill="#FF352B"/>
<path d="M280.699 60.0234H289.244C289.13 62.4974 288.463 64.6784 287.242 66.5664C286.021 68.4544 284.329 69.9274 282.164 70.9854C280.016 72.027 277.477 72.5479 274.547 72.5479C272.171 72.5479 270.047 72.1491 268.175 71.3516C266.319 70.554 264.741 69.4066 263.438 67.9092C262.153 66.4118 261.168 64.597 260.484 62.4648C259.817 60.3327 259.483 57.932 259.483 55.2627V53.334C259.483 50.6647 259.833 48.264 260.533 46.1318C261.249 43.9834 262.258 42.1605 263.561 40.6631C264.879 39.1494 266.458 37.9938 268.297 37.1963C270.136 36.3988 272.179 36 274.425 36C277.517 36 280.13 36.5534 282.262 37.6602C284.394 38.7669 286.046 40.2887 287.218 42.2256C288.39 44.1462 289.081 46.3353 289.293 48.793H280.748C280.715 47.4583 280.488 46.3434 280.064 45.4482C279.641 44.5368 278.974 43.8532 278.062 43.3975C277.151 42.9417 275.938 42.7139 274.425 42.7139C273.367 42.7139 272.447 42.9092 271.666 43.2998C270.885 43.6904 270.234 44.3089 269.713 45.1553C269.192 46.0016 268.801 47.1003 268.541 48.4512C268.297 49.7858 268.175 51.3971 268.175 53.2852V55.2627C268.175 57.1507 268.289 58.762 268.517 60.0967C268.744 61.4313 269.111 62.5218 269.615 63.3682C270.12 64.2145 270.771 64.8411 271.568 65.248C272.382 65.6387 273.375 65.834 274.547 65.834C275.849 65.834 276.948 65.6305 277.843 65.2236C278.738 64.8005 279.43 64.1657 279.918 63.3193C280.406 62.4567 280.667 61.3581 280.699 60.0234Z" fill="#FF352B"/>
<path d="M293.297 36.5127H307.286C310.021 36.5127 312.397 36.9196 314.415 37.7334C316.433 38.5472 317.988 39.7516 319.078 41.3467C320.185 42.9417 320.738 44.9111 320.738 47.2549C320.738 49.2894 320.421 50.9902 319.786 52.3574C319.151 53.7246 318.264 54.8558 317.125 55.751C316.002 56.6299 314.692 57.3542 313.194 57.9238L310.387 59.5107H298.644L298.595 52.8945H307.286C308.377 52.8945 309.28 52.6992 309.996 52.3086C310.712 51.918 311.249 51.3646 311.607 50.6484C311.982 49.916 312.169 49.0452 312.169 48.0361C312.169 47.0107 311.982 46.1318 311.607 45.3994C311.233 44.667 310.68 44.1055 309.947 43.7148C309.231 43.3242 308.344 43.1289 307.286 43.1289H301.866V72.0596H293.297V36.5127ZM312.755 72.0596L304.894 56.3369L313.976 56.2881L321.935 71.6934V72.0596H312.755Z" fill="#FF352B"/>
<path d="M350.377 65.4678V72.0596H331.432V65.4678H350.377ZM334.483 36.5127V72.0596H325.914V36.5127H334.483ZM347.936 50.624V56.9961H331.432V50.624H347.936ZM350.45 36.5127V43.1289H331.432V36.5127H350.45Z" fill="#FF352B"/>
<path d="M371.593 36.5127V72.0596H363.023V36.5127H371.593ZM382.286 36.5127V43.1289H352.574V36.5127H382.286Z" fill="#FF352B"/>
</svg>
