<svg width="100%" height="100%" viewBox="0 0 50 50" fill="none" xmlns="http://www.w3.org/2000/svg">
    <path d="M23.3125 33.3125C23.7708 33.7708 24.3442 33.9892 25.0325 33.9675C25.7192 33.9475 26.2917 33.7083 26.75 33.25C27.2083 32.7917 27.4375 32.2083 27.4375 31.5C27.4375 30.7917 27.2083 30.2083 26.75 29.75L24.5 27.5H32.5625C33.2708 27.5 33.8542 27.26 34.3125 26.78C34.7708 26.3017 35 25.7083 35 25C35 24.2917 34.7608 23.6975 34.2825 23.2175C33.8025 22.7392 33.2083 22.5 32.5 22.5H24.5L26.8125 20.1875C27.2708 19.7292 27.49 19.1558 27.47 18.4675C27.4483 17.7808 27.2083 17.2083 26.75 16.75C26.2917 16.2917 25.7083 16.0625 25 16.0625C24.2917 16.0625 23.7083 16.2917 23.25 16.75L16.75 23.25C16.2917 23.7083 16.0625 24.2917 16.0625 25C16.0625 25.7083 16.2917 26.2917 16.75 26.75L23.3125 33.3125ZM25 50C21.5417 50 18.2917 49.3433 15.25 48.03C12.2083 46.7183 9.5625 44.9375 7.3125 42.6875C5.0625 40.4375 3.28167 37.7917 1.97 34.75C0.656667 31.7083 0 28.4583 0 25C0 21.5417 0.656667 18.2917 1.97 15.25C3.28167 12.2083 5.0625 9.5625 7.3125 7.3125C9.5625 5.0625 12.2083 3.28083 15.25 1.9675C18.2917 0.655833 21.5417 0 25 0C28.4583 0 31.7083 0.655833 34.75 1.9675C37.7917 3.28083 40.4375 5.0625 42.6875 7.3125C44.9375 9.5625 46.7183 12.2083 48.03 15.25C49.3433 18.2917 50 21.5417 50 25C50 28.4583 49.3433 31.7083 48.03 34.75C46.7183 37.7917 44.9375 40.4375 42.6875 42.6875C40.4375 44.9375 37.7917 46.7183 34.75 48.03C31.7083 49.3433 28.4583 50 25 50Z" fill="black"/>
</svg>
