<svg width="60" height="60" viewBox="0 0 60 60" fill="none" xmlns="http://www.w3.org/2000/svg">
<path d="M50 22C50 30.722 37.5297 48.1163 32.2829 55.0487C31.1241 56.5799 28.8759 56.5799 27.7171 55.0487C22.4703 48.1163 10 30.722 10 22C10 10.9543 18.9543 2 30 2C41.0457 2 50 10.9543 50 22Z" fill="#D9D9D9"/>
<rect x="12" y="4" width="36" height="36" rx="18" fill="white"/>
<path d="M30.5 8L17.6907 14.6111H43.3093L30.5 8ZM19.0093 15.7049V16.5556H41.9907V15.7049H19.0093ZM19.0093 31.2604V33.0833H41.9907V31.2604H19.0093ZM17 34.1771V36H44V34.1771H17Z" fill="black"/>
<path d="M22 30C23.491 30 25 29.1756 25 27.6V20.4C25 18.8244 23.491 18 22 18C20.509 18 19 18.8244 19 20.4V27.6C19 29.1756 20.509 30 22 30ZM22 28.8C20.6043 28.8 19.75 28.023 19.75 27.6V26.8392C20.3279 27.342 21.1664 27.6 22 27.6C22.8336 27.6 23.6721 27.342 24.25 26.8392V27.6C24.25 28.023 23.3958 28.8 22 28.8ZM22 19.2C23.3958 19.2 24.25 19.977 24.25 20.4C24.25 20.823 23.3958 21.6 22 21.6C20.6043 21.6 19.75 20.823 19.75 20.4C19.75 19.977 20.6043 19.2 22 19.2ZM19.75 22.0392C20.3279 22.542 21.1664 22.8 22 22.8C22.8336 22.8 23.6721 22.542 24.25 22.0392V22.8C24.25 23.223 23.3958 24 22 24C20.6043 24 19.75 23.223 19.75 22.8V22.0392ZM19.75 24.4392C20.3279 24.942 21.1664 25.2 22 25.2C22.8336 25.2 23.6721 24.942 24.25 24.4392V25.2C24.25 25.623 23.3958 26.4 22 26.4C20.6043 26.4 19.75 25.623 19.75 25.2V24.4392Z" fill="#8F9BB3"/>
<path d="M30 30C31.491 30 33 29.1756 33 27.6V20.4C33 18.8244 31.491 18 30 18C28.509 18 27 18.8244 27 20.4V27.6C27 29.1756 28.509 30 30 30ZM30 28.8C28.6043 28.8 27.75 28.023 27.75 27.6V26.8392C28.3279 27.342 29.1664 27.6 30 27.6C30.8336 27.6 31.6721 27.342 32.25 26.8392V27.6C32.25 28.023 31.3958 28.8 30 28.8ZM30 19.2C31.3958 19.2 32.25 19.977 32.25 20.4C32.25 20.823 31.3958 21.6 30 21.6C28.6043 21.6 27.75 20.823 27.75 20.4C27.75 19.977 28.6043 19.2 30 19.2ZM27.75 22.0392C28.3279 22.542 29.1664 22.8 30 22.8C30.8336 22.8 31.6721 22.542 32.25 22.0392V22.8C32.25 23.223 31.3958 24 30 24C28.6043 24 27.75 23.223 27.75 22.8V22.0392ZM27.75 24.4392C28.3279 24.942 29.1664 25.2 30 25.2C30.8336 25.2 31.6721 24.942 32.25 24.4392V25.2C32.25 25.623 31.3958 26.4 30 26.4C28.6043 26.4 27.75 25.623 27.75 25.2V24.4392Z" fill="#8F9BB3"/>
<path d="M38 30C39.491 30 41 29.1756 41 27.6V20.4C41 18.8244 39.491 18 38 18C36.509 18 35 18.8244 35 20.4V27.6C35 29.1756 36.509 30 38 30ZM38 28.8C36.6043 28.8 35.75 28.023 35.75 27.6V26.8392C36.3279 27.342 37.1664 27.6 38 27.6C38.8336 27.6 39.6721 27.342 40.25 26.8392V27.6C40.25 28.023 39.3958 28.8 38 28.8ZM38 19.2C39.3958 19.2 40.25 19.977 40.25 20.4C40.25 20.823 39.3958 21.6 38 21.6C36.6043 21.6 35.75 20.823 35.75 20.4C35.75 19.977 36.6043 19.2 38 19.2ZM35.75 22.0392C36.3279 22.542 37.1664 22.8 38 22.8C38.8336 22.8 39.6721 22.542 40.25 22.0392V22.8C40.25 23.223 39.3958 24 38 24C36.6043 24 35.75 23.223 35.75 22.8V22.0392ZM35.75 24.4392C36.3279 24.942 37.1664 25.2 38 25.2C38.8336 25.2 39.6721 24.942 40.25 24.4392V25.2C40.25 25.623 39.3958 26.4 38 26.4C36.6043 26.4 35.75 25.623 35.75 25.2V24.4392Z" fill="#8F9BB3"/>
</svg>
