<?xml version="1.0" encoding="UTF-8"?><svg id="_圖層_1" xmlns="http://www.w3.org/2000/svg" height="100%" width="100%" viewBox="0 0 800 500"><path d="M348.13,312.86c1.51-1.33,3.12-1.05,4.49-.76,3.33,.71,4.72-.59,5.64-3.79,3.53-12.36,2.72-9.82-7.46-10.43-9.35-.56-18.54,.17-27.85,.85-10.88,.8-21.97-.9-32.75-3.01-21.6-4.21-43.45-6.34-65.3-8.23-9.57-.83-19.29-.14-28.22,4.6-5.16,2.74-10.63,4.81-16.54,5.38-5.29,.5-9.89,2.38-14.01,5.89-1.95,1.67-4.69,2.43-7.11,3.53-.91,.42-2.5,.78-2.76-.07-1.52-5.09-5.68-3.04-8.95-3.79-4.72-1.07-9.32-2.77-11.36-7.95-.73-1.85-1.67-3.63-2.62-5.4-3.99-7.44-2.37-13.9,2.77-20.27,5.53-6.85,9.07-15.07,14.52-22.05,2.15-2.75-.07-4.85-2.6-4.8-6.62,.13-12.58-3.1-19.11-3.22-2.62-.05-11.33-7.61-12.07-10.1-.5-1.69,.52-2.52,1.57-3.3,3.15-2.35,4.95-5.3,4.67-9.37-.17-2.54,1.48-3.84,3.54-4.92,6.05-3.17,11.97-6.62,18.69-8.25,4.36-1.06,7.95-3.22,10.72-6.81,1.21-1.57,2.98-2.74,4.1-4.36,6.75-9.77,17.14-11.1,27.68-12.14,.99-.1,2.09,.19,2.98-.12,7.82-2.75,15.66-4.78,24.14-4.58,3.16,.07,5.39-3.77,7.28-6.43,1.83-2.59-1.28-2.87-2.62-3.51-7.96-3.8-16.52-6.36-23.89-11.34-3.66-2.47-7.57-3.95-11.76-5.22-7.39-2.24-14.81-1.86-22.3-1.42-5.37,.32-10.38,1.22-15.81-2.05-3.21-1.93-8.72-.32-13.16,.13-3.37,.34-6.65,.4-9.9-.52-4.99-1.42-9.85-.95-14.75,.54-4.89,1.49-9.98-1.38-10.91-6.31-.72-3.84-2.97-6.39-6.14-7.98-2.83-1.42-3.73-3.6-3.95-6.39-.08-.99,.23-2.11-.12-2.98-5.27-13.24-.68-26.03,1.62-38.95,1.18-6.64,8.03-14.06,14.67-15.24,6.22-1.11,9.62-6.29,14.24-9.7,1.73-1.27,2.87-3.39,5-4.06,13.07-4.12,22.74-12.89,31.2-23.14,3.45-4.17,6.61-5.08,10.74-1.29,4.04,3.7,8.21,4.02,12.37,.17,2.29-2.12,4.49-.91,6.36,.4,5.39,3.79,10.32,3.4,14.53-1.57,6.81-8.04,15.14-8.51,25.03-7.27,12.84,1.6,25.93,.82,38.9,1.54,6.76,.38,12.49,1.26,18.57,4.87,1.28,.76,2.73,1.22,4.08,1.86,8.87,4.18,17.54,8.14,23.36,17.04,6.45,9.86,17.67,13.75,27.84,18.68,.99,.48,1.91,.31,2.75-.45,6.47-5.86,14.58-5.68,22.09-4.44,15.91,2.63,31.86,2.61,47.85,2.46,12.48-.12,23.54-5.52,34.65-10.45,4.39-1.95,9.71-1.62,13.18-5.97,1.2-1.5,3.81-.55,5.78-.29,5.35,.71,10.76,2.66,15.41-2.3,1.66-1.77,3.42,.08,4.71,1.32,6.9,6.63,14.95,11.6,23.1,16.49,4.88,2.93,9.95,4.28,15.65,4.26,6.93-.03,13.75-.4,20.71,1.92,9.46,3.16,17.29,8.27,24.37,15.02,2.63,2.51,5.73,4.58,8.75,6.63,3.55,2.42,5.75,5.21,6.96,9.71,1.36,5.04,5.85,8.85,10.31,11.52,7.27,4.35,15.05,7.86,22.6,11.77,1.73,.9,3.41,1.06,5.29,.51,2.72-.78,5.48-1.46,8.25-2.04,11.56-2.41,10.15-1.8,17.14,7.12,1.33,1.7,2.31,3.67,3.57,5.42,5.04,6.97,8.58,14,10.45,23,2.39,11.49,2.22,23.53,6.56,34.63,.97,2.47,1.05,5.05-1.22,6.89-6.23,5.04-7.73,12.14-8.88,19.48-1.34,8.51-3.63,10.47-12.09,10.56-2.63,.03-5.2,.1-6.19,3.03-3.79,11.21-13.6,11.4-22.79,12.14-3.4,.28-5.72,.82-7.05,4.08-.35,.87-1.12,1.69-1.91,2.23-5.27,3.64-5.23,3.66-.93,8.18,11.77,12.37,24.8,23.16,39.03,32.62,6.89,4.58,14.25,7.87,21.96,10.62,4.83,1.73,5.16,3.43,1.51,6.93-2.72,2.6-5.8,4.17-9.81,4.08-8.66-.18-17.33-.08-26,.04-1.69,.02-4.2-.98-4.86,1.22-.56,1.84,.44,4.22,2.34,5.09,2.16,1,4.72,2.06,6.97-.06,.58-.55,.82-1.44,1.29-2.12,.86-1.27,1.39-3.69,3.55-2.04,1.71,1.31,3.04,3.3,1.23,5.61-1.35,1.72-3.15,2.91-4.94,4.15-2.24,1.55-1.97,3.75,.34,4.68,4.49,1.81,8.94,4.5,14.19,2.3,1.35-.57,2.92-.63,4.41-.8,1.04-.12,2.01,.21,2.45,1.29,.46,1.13-.17,1.92-.95,2.6-3.31,2.85-6.62,5.29-11.44,5.33-8.93,.09-10.28,2.28-10.22,11.32,.15,19.98,.02,39.96-.33,59.93-.08,4.71,1.27,7.13,6.03,7.8,14.67,2.07,29.32,4.3,43.97,6.48,21.23,3.16,41.59,9.27,61.14,18.13,3.24,1.47,6.11,3.4,8.77,5.67,4.97,4.25,4.55,8.53-1.5,11.45-3.72,1.8-7.74,3.23-11.78,4.04-25.35,5.08-51.01,7.61-76.81,9.16-37.25,2.23-74.53,3.4-111.84,4.07-22.15,.4-44.3,.99-66.43,1.95-31.6,1.36-63.25,2.42-94.73,5.66-28.15,2.9-56.17,7.1-84.33,9.89-33.85,3.36-67.86,4.37-101.84,3-22.11-.89-44.24-2.9-65.43-10.23-8.56-2.96-16.52-7.24-23.88-12.41-10.67-7.49-13.36-21.35-7.31-32.94,2.6-4.98,5.6-9.73,7.36-15.23,1.74-5.45,6.97-8.79,10.42-13.27,9.1-11.82,21.04-20.17,34.12-27.01,1.89-.99,3.14-1.96,2.66-4.61-.65-3.58,1.53-6.74,2.8-9.92,.93-2.32,3.38-2.66,5.52-1.22,1.94,1.3,3.68,2.92,4.6,5.15,.61,1.5,1.19,2.89,3.2,2.1,1.7-.67,2.02-2.08,1.71-3.71-.38-1.96-.94-3.9-1.18-5.88-.81-6.83-1.3-13.62,2.59-19.87,3.67-5.89,4.46-12.76,6.43-19.24,1.94-6.36,3.91-6.59,8.11-1.48,1.53,1.86,2.81,1.15,4.31,.29,16.74-9.45,33.05-8.14,48.98,1.99,5.75,3.66,13.21,1.29,15.76-5.08,.85-2.11,1.2-4.9,4.18-4.95,3.42-.06,3.35,3.17,4.28,5.34,.99,2.34,1.17,4.83,1.16,7.35-.01,7.67-.04,15.33,.11,23,.03,1.78-1.03,4.7,1.87,4.88,2.74,.18,6.56,.87,7.58-3.04,1.35-5.2,4.98-6.02,9.49-6.11,15.82-.32,31.65,.61,47.47-.6,3.36-.26,5.47-1.16,5.63-4.74,.41-8.99,4.26-17.16,6.23-25.79,.98-4.31,.34-5.82-3.89-6.02-.94-.04-1.99-.35-2.63-1.74Zm66.1,12.51c-2.31-1.15-1.97-2.82-2.33-4.17-.3-1.16-1.01-1.73-2.19-1.12-.97,.49-.84,1.35-.44,2.14,.38,.74,.88,1.41,1.34,2.1,5.85,8.97,13.46,16.49,20.28,24.66,1.31,1.57,3.05,1.86,4.91,2.01,11.27,.92,22.57,1.6,33.79,2.93,4.98,.59,7.87-.41,8.93-5.59,.39-1.9,1.63-3.63,2.49-5.43,.61-1.26,1.38-2.32,3.04-1.97,1.52,.32,2.3,1.42,2.47,2.8,.3,2.47,.5,4.97,.53,7.45,.03,2.98,1.24,4.67,4.33,4.97,3.48,.33,6.95,.74,10.4,1.26,13.33,2.03,26.65,4.08,39.96,6.2,3.7,.59,6.26,.25,5.98-4.53-.25-4.15-.45-8.37,.05-12.47,.81-6.66-2.53-9.66-9.35-10.61-3.31-.46-6.65-.9-8.92-3.81-1.15-1.47-3.74-2.46-2.43-4.87,1.27-2.34,3.54-1.22,5.39-.71,4.08,1.14,8.1,1.74,12.25,.26,1.53-.54,2.76-1.06,2.97-2.87,.18-1.59-.73-2.29-1.93-3.12-1.48-1.02-2.96-2.25-3.95-3.72-1.52-2.28-.12-4.22,1.68-5.54,1.53-1.13,2.26,.36,3.03,1.5,3.59,5.38,6.3,5.45,10.28,.06,1.85-2.51,3.19-1.99,4.39,.33,2.14,4.14-1.29,5.74-3.82,7.37-2.74,1.77-3.15,4.33-.52,5.26,3.09,1.09,5.88,3.15,9.25,3.4,1.97,.15,4.14,.56,4.78-2.24,.52-2.27,1.22-4.15-1.84-5.77-2.89-1.53-6.04-3.78-3.55-8.33,1.37-2.51-1.27-2.61-2.76-2.71-3.98-.27-8.03,.03-11.97-.48-10.21-1.32-20.6,.08-30.78-2.46-3.65-.91-5.5-4.33-9.69-4.52-11-.5-21.7-3.29-32.29-6.23-21.49-5.95-43.08-10.44-65.32-4.39-3.56,.97-8.35,1.27-9.97,4.64-1.84,3.83-.9,8.68,1,12.61,1.51,3.11,4.84,.66,7.29,1.18,1.11,.23,3.64-.68,2.85,1.29-1.78,4.42,1.06,8.46,.36,13.25Zm213.51,54.65h.04c0-10.49,.01-20.98,0-31.46-.01-6.88-2.27-9.2-9.13-9.41-10.46-.32-20.91-.6-31.37-.96-7.98-.27-15.96-.76-23.94-.9-6.43-.12-8.03,1.61-8.06,7.85-.02,4.16,.17,8.33-.04,12.48-.24,4.58-.33,8.76,5.74,9.52,1.29,.16,2.43,1.21,2.47,2.77,.04,1.59-1.09,2.57-2.38,2.85-4.03,.88-6.44,2.31-3.33,6.72,.33,.46,0,1.75-.44,2.33-3.43,4.48-2.12,9.65-1.81,14.48,.37,5.74,6.01,7.99,10.4,4.34,2.98-2.48,4.92-1.85,7.71,.48,3.74,3.13,7.79,6.81,12.3,7.96,12.23,3.11,24.65,5.58,37.25,7.03,3.6,.41,4.71-.55,4.65-4.12-.16-10.65-.06-21.31-.06-31.96Zm6.12-76.26c.05-.23,.1-.46,.15-.69-1.34-.53-2.67-1.1-4.02-1.6-14.45-5.35-27.52-12.61-36.09-26.1-.53-.84-1.26-1.55-1.82-2.38-1.89-2.79-3.57-2.33-5.35,.16-6.87,9.61-14.87,17.89-26.21,22.27-1.56,.6-3.06,1.48-2.41,3.71,.56,1.9,1.83,2.68,3.71,2.68,4.5,0,9-.02,13.49-.02,1.83,0,3.24-.55,3.83-2.49,.3-.98,.83-2.07,1.9-2.1,4.99-.14,9.98-.13,14.96-.18,2.65-.03,2.81,2.38,3.98,3.87,.51,.65,1.74,.96,2.67,1.02,10.4,.66,20.8,1.24,31.21,1.84Zm-105.47-31.79c5.59,4.16,10.36,7.71,15.15,11.25,1.39,1.03,2.92,1.83,4.54,.54,7.81-6.23,16.3-11.7,23.18-20.36-7.94,1.52-14.35,4.64-20.92,7.27-2.25,.9-4.42,1.61-6.66,.33-4.92-2.81-9.55-1.18-15.28,.98Zm88.4,58.9c3.33,.48,6.12-1.34,9.15-2.09,1.57-.39,1.85-1.71,2.16-3.03,.42-1.81-.88-2.04-2.06-2.76-3.1-1.9-6.68-3.8-3.8-8.49,.42-.68,.88-1.69-.15-2.14-1.39-.61-2.95-.51-4.38,0-.98,.35-1.02,1.32-.53,2.06,2.64,3.97-.49,6.15-3.01,7.54-2.9,1.59-3.66,3.28-2.96,6.28,.79,3.4,3.48,2.33,5.58,2.64Zm-20.56-87.05c2.78,.1,4.95-.48,5.25-3.49,.26-2.6-3.74-6.74-6.42-6.47-3.41,.35-7.76,.52-7.72,5.17,.05,6.38,5.8,3.61,8.89,4.79Z"/></svg>
