<?xml version="1.0" encoding="UTF-8"?><svg id="_圖層_1" xmlns="http://www.w3.org/2000/svg" height="100%" width="100%" viewBox="0 0 800 500"><path d="M120.03,431.88c-5.41,3.05-12.47,2.84-16.24,9.11-2.03,3.37-4.53,5.62-8.53,3.77-4.04-1.87-8.37-3.39-11.58-6.67-3.13-3.2-5.87-6.72-10.19-8.6-2.75-1.2-2.29-3.58-.56-5.77-2.34-.48-3.4,1.21-4.93,1.67-3.68,1.11-7.24,2.46-10.91-.38-1.19-.92-3.15-1.19-4.76-1.18-5.01,.03-8.4-2.53-11.17-6.34-.65-.9-1.04-2.38-2.59-1.77-7.12,2.81-9.25-3.23-12.4-7.13-2.45-3.03-2.57-8.32-8.3-7.99-.65,.04-1.21-.87-.79-1.49,2.94-4.42-2.42-1.59-2.81-3.27,.69-.65,1.38-1.3,2.11-1.98-.24-.22-.44-.58-.65-.59-1.85-.08-4.44,1.37-5.15-1.39-.9-3.51-1.7-7.56,.83-10.52,1.94-2.28,3.29-4.48,3.74-7.35,.37-2.38,2.8-2.6,4.13-3.93,1.84-1.83,7.34-2.65,2.83-7.14-.29-.29-.47-1.18-.28-1.36,2.89-2.77,5.46-6.97,8.88-7.86,7.47-1.95,13.17-6.31,19-10.72,1.23-.93,2.28-2.05,3.92-1.75,5.81,1.1,10.32-2.09,14.84-4.73,10.75-6.27,22.11-7.1,33.62-3.48,5.22,1.64,10.86,1.7,15.76,4.4,.98,.54,3.12,.65,2.78,1.64-1.76,5.2,2.75,3,3.74,2.73,5.14-1.39,10.91,1.69,15.94-2.14q-4.02-1.15-2.86-4.29c-3.28,.33-6.52,1.22-9.77-.43,4.66-.72,9.41-2.95,13.69-2.61,8.16,.65,14.52-3.97,21.88-5.33,2.13-.39,2.75-2.29,3.24-4.07,1.13-4.11,3.69-4.12,6.92-2.6,2.33,1.1,4.24,2.69,5.58,4.86,1.98,3.21,5.18,3.6,8.32,3.22,3.14-.38,5.36-2.15,3.99-5.89-1.49-4.05-2.95-8.19-4.08-12.28-1.77-6.4-2.91-13.17,.88-19.64,2.46-4.2,3.22-9.49,8.8-11.41,1.44-.5,.97-2.68,1.05-4.15,.11-2.16,.06-4.33,.21-6.49,.13-1.88,.56-3.75,2.68-4.36,2.17-.62,3.89,.32,5.29,1.97,2.04,2.4,2.7,5.34,3.02,8.34,.32,3.04,1.85,4.41,4.9,4.41,2.58,0,3.42-.76,2.09-3.25-2.01-3.75-1.01-7.83-1.1-11.78-.04-1.55,.5-3.01,2.22-3.54,1.66-.51,2.87,.37,3.99,1.46,2.44,2.36,2.51,5.68,3.33,8.97,2.32-.76,2.87-2.97,4.38-4.14,1.67-1.29,3.4-2.32,5.45-1.08,1.94,1.17,1.68,3.07,1.19,4.92-.85,3.22-1.77,6.41-2.58,9.64-.37,1.48-.62,3.13,1.15,3.91,2.01,.9,3.04-.69,4.06-1.99,.51-.64,1.03-1.39,1.2-2.17,1.31-5.91,3.4-11.4,7.72-15.86,.85-.87,.73-2.17,.49-3.35-3.27-15.97,.36-15.18,12.24-22.72,6.23-3.95,13.72-5.94,20.73-8.57,4.85-1.82,10.22-1.27,14.73,.12,4.18,1.29,5.29,6.63,5.78,10.89,1.71,15.05,3.63,30.07,4.04,45.25,.37,13.56-.33,10.49,11.34,10.18,6.64-.18,13.24-1.31,19.88-1.7,3.43-.21,4.77-1.65,4.59-4.98-.37-6.65-.95-13.3-.89-19.94,.11-12.82,.6-25.63,.91-38.45,.04-1.66,.08-3.36-.18-4.99-.99-6.11-2.59-6.96-8.2-4.55-4.29,1.84-8.61,3.59-12.86,5.52-2.33,1.06-3.6,.49-4.67-1.85-4.4-9.6-3.83-10.89,6.29-13.22,.97-.22,1.96-.41,2.93-.66,2.72-.69,6.43-.25,7.88-2.45,1.55-2.36-1.62-4.63-2.79-6.88-1.33-2.57-.18-4.1,1.74-5.48,1.86-1.33,3.75-2.6,5.66-3.92-.43-.51-.59-.89-.83-.96q-10.23-2.72-8.11-13.24c.76-3.76,1.76-7.47,2.37-11.25,.63-3.92,2.24-5.13,6.45-4.35,13.36,2.47,26.25,6.19,38.32,12.49,2.72,1.42,5.51,2.2,8.61,2.13,2.98-.07,5.95-.13,8.64,1.76,1.84,1.29,3.92,.14,5.78-.4,18.56-5.37,37.27-10.27,55.33-17.23,4.29-1.65,6.52-.84,8.57,3.39,5.62,11.57,5.63,11.27-4.42,19.02-5.51,4.24-11.39,7.36-17.93,8.8-.38,1.83,.85,2.13,1.61,2.57,4.15,2.37,4.55,5.33,1.65,8.98-2.62,3.3-1.98,5.14,2.36,5.86,4.26,.71,8.44,1.92,12.68,2.84,2.68,.58,3.66,2.07,2.83,4.71-.1,.32-.19,.64-.29,.96-3.92,12.11-2.49,9.47-12.03,5.85-2.33-.89-4.6-1.95-6.91-2.91-6.38-2.65-8.27-1.75-8.38,5.13-.16,10.82,.09,21.66,.54,32.48,.25,6.17,.88,12.32-.12,18.44-.74,4.5,.96,6.17,5.39,5.73,7.61-.76,15.27-1.21,22.86-2.13,8.14-.99,16.28-1.01,24.44-.99,2.53,0,3.09-.43,3.41-3.57,.97-9.45-4.12-17.3-5.7-26.03-1.26-6.94-1.89-13.81-2.03-20.81-.12-6.26,2.02-11.03,7.84-13.82,12.44-5.94,24.7-12.37,39.13-11.93,3.57,.11,5.41,1.32,6.43,4.8,1.28,4.36,2.49,8.66,1.94,13.23-.43,3.56,.81,4.31,4.18,3.16,4.26-1.46,6.99-5.4,11.47-6.51,1.25-.31,1.14-2.28,1.14-3.61,.03-8.65,1.53-17.24,1.01-25.93-.31-5.15-.18-10.35,1.19-15.39,.72-2.65,.29-4.56-2.56-5.51-1.96-.66-3.45-2.06-4.62-3.7-1.43-2.01-3.36-4.17-2.33-6.76,.91-2.28,3.5-1.42,5.39-1.51,2.78-.13,3.76-1.6,3.84-4.16,.78-25.14,4.19-50.06,6.17-75.11,.47-5.97,1.24-11.92,1.84-17.88,.2-1.94,.56-3.78,3.01-3.82,2.88-.05,2.96,2.17,3.08,4.2,.47,7.98,.65,15.98,1.41,23.93,.6,6.27,.33,5.08,8.72,4.71,4.32-.19,3.76-3.35,3.05-6.28-1.61-6.66-3.65-13.35,1.29-19.57,.92-1.16,1.78-2.49,2.97-3.29,1.99-1.32,4.51-3.82,6.59-1.92,2,1.84-1.01,3.76-2.1,5.37-3.76,5.6,.95,9.34,2.78,13.68,1.44,3.42,4.4,2.89,7.29,2.4,1.47-.24,3.01-.41,4.48-.26,3.9,.39,5.68-1.3,6.48-5.12,1.18-5.59,4.69-10.22,7.25-15.24,.96-1.87,2.65-3.1,4.95-2.52,2.13,.54,1.97,2.48,2.1,4.09,.63,7.97,1.31,15.93,1.7,23.91,.16,3.31,1.27,4.68,4.75,4.79,5.92,.19,7.02,2.38,7.43,8.18,.66,9.43,2.05,18.83,3.34,28.21,1.37,9.91,2.49,19.83,2.58,29.83,.03,2.99,1.01,4.63,3.96,5.34,1.57,.38,3.07,1.25,4.46,2.12,1.78,1.11,3.1,2.67,2.44,4.98-.65,2.25-2.72,2.44-4.49,2.34-4.83-.28-5.77,1.24-4.46,6.06,1.81,6.71,2.51,13.73,1.51,20.78-1.1,7.74,.16,15.25,2.57,22.64,2.38,7.29,4.36,14.71,7.03,21.88,1.88,5.05,.86,8.81-2.64,12.68-5.89,6.52-6.06,10.13,.09,16.72,5.12,5.49,9.65,10.93,10.64,18.69,.4,3.13,3.52,2.68,5.63,3.1,11.3,2.21,22.47,4.88,33.35,8.66,4.07,1.41,8.02,3.28,11.85,5.28,2.26,1.18,4.97,2.56,3.43,6.13-.52,1.22,.47,1.77,1.35,2.29,.72,.42,1.44,.83,2.15,1.27,10.52,6.42,10.78,11.29,1.02,18.72-.63,.48-1.22,1.03-2.47,2.11,4.84-.32,7.63,2.69,10.7,4.5,4.88,2.88,10.59,4.65,14.36,9.4,2.31,2.91,5.8,4.38,9.01,6.17,1.52,.85,3.52,1.71,3.14,4.03-.36,2.21-2.41,2.11-3.97,2.25-4.88,.44-9.81,1.51-14.61-.45-1.51-.62-2.96-.52-4.36,.12-5.38,2.48-11.27,2.83-16.95,4.03-4.55,.96-9.07,1.71-13.08,4.54-2.99,2.11-6.62,3.2-10.45,2.33-9.22-2.11-16.8,2.21-23.45,7.31-4.58,3.51-8.69,5.62-14.45,4.94-6.51-.77-14.38,4.23-16.87,10.21-2.85,6.85-4.24,7.49-11.3,5.41-5.1-1.5-6.82,3.13-9.71,5.55-1.13,.95-2.59,2.67-1.25,3.81,3.58,3.05,6.37,7.46,11.78,7.78,3.02,.18,6.01,.08,8.87-1.05,3.67-1.45,6.64-.58,9.57,2.08,6.95,6.29,12.22,14.06,18.76,20.71,2.5,2.54,1.96,5.91-1.31,7.6-8.07,4.17-16.12,8.53-25.31,9.9-4.19,.63-8.42,1.95-11.45,4.63-5.9,5.21-12.88,5.87-20.04,6.24-3.55,.18-7,.37-10.07,2.34-2.35,1.51-4.84,.95-7.28,.53-8.1-1.4-15.93-1.54-22.79,4.08-.99,.81-2.43,1.67-3.6,1.59-9.19-.57-17.31,4.7-26.4,4.65-1.95-.01-4.23,.23-5.8,1.24-5.48,3.53-11.12,2.37-16.89,1.41-3.6-.6-7.28-.84-10.93-1.04-3.46-.19-6.57,.83-9.14,3.29-2.39,2.29-5.38,3.63-8.58,3.6-13.9-.11-27.85,.79-41.66-1.9-8.51-1.66-16.92-1.18-24.96,2.46-2.77,1.25-5.62,2.03-8.71,1.86-11.78-.67-23.14,1.64-34.55,4.29-6.24,1.44-12.8,2.2-19.29,.45-2.88-.78-5.86-1.28-8.74-2-10.52-2.63-21.2,.37-31.64-1.27-8.82-1.39-18.02-1.92-26.04-6.27-6.17-3.35-12.8-5.71-18.81-9.24-12.43-7.31-26.42-9.75-39.94-8.43-8.55,.83-14.68-1.58-21.54-4.63-1.47-.65-3.24-1-4.85-.93-12.57,.55-24.34-3.08-36.14-6.63-1.91-.57-4.03-1.69-5.78-1.32-10.46,2.27-18.88-3.49-27.95-6.69-1.89-.67-3.73-1.55-5.78-1.39-4.68,.38-8.87-.97-12.85-3.3-2.91-1.7-6-2.83-9.44-2.91-1.14-.03-2.48-.31-2.78-1.68-.35-1.62,.85-2.45,2.11-2.98,3.13-1.3,6.3-2.49,9.46-3.72-.25-.52-.49-1.04-.74-1.56Zm244.98-155.94c-.44-6.44,.85-12.6,3.09-18.59,.52-1.39,1.01-3.63,2.4-3.5,4.14,.39,3.82-2.64,4.49-5,.54-1.9,1.6-3.35,3.66-3.63,2.12-.3,3.41,1.02,4.4,2.68,1.03,1.73,1.98,3.56,2.01,5.59,.05,2.81,.95,5.07,2.94,7.14,2.11,2.2,2.53,5.17,1.77,7.98-1.51,5.59,2.03,8.78,5.41,11.94,2.45,2.29,5.09,.82,7.29-.7,1.72-1.19,3.65-2.66,2.93-5.28-1.75-6.42-1.79-6.41,4.34-8.45,6.43-2.14,8.55-6.3,8.58-12.98,.06-11.88-2.66-23.95,1.91-35.6,.71-1.82,.3-3.33-1.63-4.07-4.66-1.77-9.24-4.51-14.05-5.02-16.4-1.74-32.84-2.71-48.49,4.64-2.78,1.3-3.51,2.45-2.41,5.21,1.35,3.38,2.77,6.72,2.59,10.57-.41,8.81-.29,17.63-.8,26.45-.63,10.96-.67,21.96,.52,32.93,.47,4.32,3.35,3.78,6.17,3.76,3.12-.03,4.08-1.85,3.66-4.61-.58-3.8-.99-7.59-.78-11.43Zm7.02-14.77c-3.8,9.74-2.47,18.58-1.34,27.32,.35,2.72,3.06,2.62,5.27,2.36,2.11-.25,2.25-1.48,1.55-3.21-.57-1.44,.09-2.64,1.27-3.45,1.94-1.32,1.82-2.9,.88-4.75-2.82-5.56-5.55-11.16-7.64-18.27Zm.07-65.33c-1.22-.49-2.4-1.24-3.67-1.44-7.87-1.19-15.92,1.18-23.76-1.13-.81-.24-1.51,.23-1.53,1.4-.04,4.26,6.09,9.1,10.15,7.9,6.32-1.87,11.99-5.78,18.8-6.74Z"/></svg>
