<?xml version="1.0" encoding="UTF-8"?><svg id="_圖層_1" xmlns="http://www.w3.org/2000/svg" height="100%" width="100%" viewBox="0 0 800 500"><path d="M116.2,328.64c-13.28,9.78-14.85,23.47-12.83,38.28,1,7.31,.49,14.64,.68,21.96,.11,4.21-2.24,5.95-6.2,6.15-3.56,.18-6.34-.34-6.18-4.93,.09-2.57-1.1-3.25-3.86-2.69-7.49,1.5-8.56,.29-8.92-7.43-.84-17.96-1.95-35.91-2.73-53.87-.17-3.99-1.88-5.64-5.63-6.08-4.52-.54-8.67-2.12-12.44-4.82-5.34-3.84-5.2-10.91,1.15-14.06,4.43-2.2,4.27-4.92,5.01-9.07,1.36-7.69,.58-15.19,.63-22.77,.01-1.99-.28-3.99-.34-5.98-.15-4.81-.55-8.47-7.43-7.65-3.48,.41-8.33-1.52-9.85-5.58-1.65-4.42-.35-8.71,3.27-12.28,14.69-14.53,29.3-29.15,43.84-43.83,4.51-4.55,10.46-3.8,15.91-4.77,6.32-1.12,8.22-4.01,5.25-9.97-4.17-8.37-3.39-15.99,2.26-23.34,5.57-7.25,22.1-13,30.38-9.25,4.34,1.96,9.03,3.25,13.09,5.6,7.64,4.43,8.53,17.2,1.97,24.26-4.08,4.39-9.04,7.79-13.92,10.92,18.12,7.19,29.56,22.97,44.63,33.94,1.29,.94,2.23,3.15,3.99,2.44,1.82-.74,1.02-2.97,.98-4.53-.26-10.49-.71-20.97-.94-31.46-.07-2.97-.92-4.77-4.16-4.96-1.48-.09-2.97-.48-4.4-.91-6.26-1.9-7.92-7.54-3.36-12.31,4.72-4.93,9.86-9.45,14.74-14.23,6.78-6.65,13.64-13.23,20.17-20.13,3.43-3.63,7.03-5.84,12.19-5.39,2.02,.18,4.76,.37,5.7-2.04,.96-2.48-.73-4.5-2.57-6.04-10.93-9.12-7.16-25.27,2.04-32.65,8.43-6.76,17.09-8.26,27.05-5.97,8.21,1.89,14.57,13.4,11.49,21.52-2.48,6.56-5.56,12.87-11.77,16.96-1.87,1.23-3.4,2.94-2.69,5.42,.68,2.35,2.92,1.91,4.64,1.96,6.63,.17,12.03,2.75,16.82,7.35,10.68,10.27,21.57,20.31,32.43,30.39,2.61,2.42,4.39,5.04,3.44,8.76-.96,3.77-4.13,4.61-7.31,5-4.1,.5-5.78,2.48-5.5,6.64,.28,4.15,.05,8.33,.15,12.49,.03,1.43-.61,3.35,.96,4.11,1.7,.82,2.59-1.08,3.58-2.05,6.07-5.94,12.15-11.89,18.08-17.98,2.69-2.76,5.66-4.61,9.57-4.73,4.62-.14,5.22-2.64,3.79-6.4-1.47-3.85-1.74-7.86-.65-11.79,1.94-6.97,10.17-12.1,18.5-11.81,7.5,.26,15.59,6.58,16.85,13.37,.8,4.3-.01,8.3-3.19,11.57-1.15,1.18-2.26,2.39-3.66,3.88,12.65,3.27,18.88,14.27,27.95,21.63,4.51,3.66,8.1,8.38,12.82,11.87,2.79,2.06,4.64,4.73,4.42,8.48-.06,1.09-.31,2.57,1.09,3.05,1.3,.44,2.06-.8,2.9-1.56,3.95-3.57,7.98-7.07,11.78-10.79,2.35-2.3,4.88-4.1,8.19-4.35,2.9-.21,4.06-1.95,4.49-4.47,.25-1.47,.41-2.97,.48-4.46,1.09-23.25,.84-46.51,.95-69.77,.03-7.06,.07-6.6,6.98-7.15,14.05-1.13,12.13,3.05,14.27-12.12,.37-2.64,.58-5.32,1.18-7.9,.94-4.04-.61-5.56-4.6-5.36-10.67,.54-21.29-.61-31.93-1.03-3.13-.13-6.24-.69-9.34-1.04-.39-2.52,1.5-3.07,2.71-3.99,9.52-7.3,19.1-14.51,28.61-21.82,1.7-1.31,3.69-2.65,4.63-4.46,8.06-15.4,22.55-22.43,37.35-29.1,.91-.41,2.11-.46,2.76-1.1,7.53-7.43,17.32-5.6,26.37-6.33,22.89-1.83,45.81-3.3,68.72-4.87,3.65-.25,7.33-.21,10.98-.42,2.52-.15,4.44,.85,6.3,2.45,26.89,23.15,53.81,46.27,80.71,69.4,.85,.73,2.34,1.27,2.05,2.57-.38,1.7-2.21,1.33-3.37,1.35-14.66,.22-29.32,.38-43.98,.42-8.73,.03-8.99,.27-7.84,9.09,.56,4.29,1.05,8.6,1.34,12.91,.25,3.62,2.26,4.82,5.57,4.96,4.16,.17,8.3,.67,12.46,.78,3.21,.09,4.43,1.53,4.32,4.65-.54,15.15-.96,30.29-1.51,45.44-.45,12.31-1.01,24.62-1.58,36.92-.15,3.17,1.16,4.51,4.26,5.59,5.7,2,12.42,3.39,12.63,11.64,.05,1.94,1.55,2.68,3.38,3.06,4.61,.96,6.99,4.23,8.18,8.49,2.87,10.33,2.39,19.83-6.93,27.06-3.5,2.71-2.98,3.96,1.22,5.64,16.41,6.58,31.52,15.85,47.37,23.62,2.84,1.39,5.48,3.28,8.42,4.36,4.32,1.59,5.9,5.14,7.27,8.92,.77,2.14,.74,4.74-1.16,6-4.29,2.86-8.03,7.35-14.15,5.98-2.59-.58-3.72,.46-3.71,3.11,0,1.49-.24,3-.56,4.45-1.03,4.62,.5,7.83,5.01,9.48,5.17,1.9,7.49,5.7,7.68,11.1,.23,6.64-3.83,11.9-12.7,14.27-10.44,2.78-20.95,5.34-31.92,5.55-13.3,.26-26.59,1.9-39.9,.05-1.83-.25-3.66-.01-5.23,1.21-9.72,7.58-21.45,9.48-33.07,11.69-2.26,.43-4.53,.82-7.83,1.41,5.1,5.28,8.44,10.68,9.8,17.17,.47,2.26,2.9,2.55,4.77,3.16,5.49,1.78,8.85,4.96,12.27,10.22,4.91,7.55,3.5,15.24,4.59,22.83,.65,4.53-2.23,8.8-4.83,12.32-2.57,3.48-1.15,3.97,1.72,5.45,4.09,2.12,8.67,3.6,11.84,7.23,4.28,4.9,2.42,10.29-4.24,12.97-10.96,4.42-22.56,5.85-34.12,7.24-24.83,2.99-49.76,4.35-74.77,4.04-40.71-.51-80.04-8.04-118.18-22.39-18.65-7.02-35.76-17.07-53.71-25.44-1.06-.49-2.1-1.01-3.18-1.47-5.36-2.27-5.94-1.93-5.55,3.7,.23,3.31-1.44,5.75-3.3,8.11-1.39,1.77-3.63,1.77-4.93,.52-2.64-2.53-5.9-3.92-8.81-5.9-7.06-4.81-12.7-3.36-15.46,4.73-.5,1.46-.89,2.83-2.59,3.37-8.48,2.69-16.71,6.29-26.06,4.66-9.44-1.64-18.52-3.99-26.82-9.01-3.34-2.02-4.93-4.39-4.87-8.43,.12-7.6-.33-7.88-7.98-7.3-4.13,.31-8.35,.41-11.69,3.55-.67,.63-2.03,1.31-2.68,1.04-7.91-3.29-14.95,1.09-22.29,2.43-10.52,1.93-18.87-2.8-26.29-9-3.99-3.34-7.64-4.55-11.56-1.8-7.18,5.03-14.89,3.9-22.62,2.98-9.09-1.08-17.26-4.74-25.08-9.4-2.81-1.67-3.01-4.01-3.24-6.73-.85-9.84-4.04-13.73-13.33-16.61-5.01-1.55-6.61-4.91-4.5-9.79,.72-1.67,1.51-3.54,2.82-4.68,5.48-4.8,6.15-10.65,5.59-17.57-.98-11.94-1-23.96-1.44-35.94-.03-.78,.19-1.71-.48-2.08Zm90.53-97.22c4.37,11.58,2.45,15.77-8.89,19.82-.31,.11-.63,.26-.95,.31-3.14,.46-3.93,2.46-3.82,5.36,.4,10.15,.69,20.3,1.02,30.45,.06,1.71,.14,3.77,2.02,4.19,6.84,1.56,10.83,7.98,17.69,9.78,4.33,1.14,5.26,.5,5.14-3.71-.51-18.32-.75-36.64-1.31-54.96-.29-9.65-.49-9.64-9.93-11.32-.16-.03-.33,.02-.98,.08Zm84.4,19.41c.28,0,.56,0,.84,0,0,11.97,.08,23.95-.05,35.92-.04,3.81,1.35,5.5,5.27,5.31,4.32-.21,8.66,.04,12.98-.15,8.69-.38,9.71-1.5,9.66-9.95,0-1.33-.11-2.67-.01-3.99,.26-3.41-.69-5.47-4.54-6.35-4.98-1.14-7.83-4.18-7.45-10.04,.46-6.96,.05-13.98,0-20.97-.09-13.73-.12-13.69-13.23-9.81-2.56,.76-3.55,1.99-3.51,4.54,.08,5.16,.02,10.32,.02,15.48Zm-34.15,21.18c.39-11.14-1.06-22.23-1.06-33.36,0-1.33,.57-3.54-1.53-3.56-1.67-.02-1.34,2.01-1.37,3.26-.48,17.61,.86,35.19,1.01,52.78,0,1.1-.16,2.77,1.32,2.83,1.95,.08,1.59-1.81,1.6-3,.07-6.31,.03-12.63,.03-18.94Zm97,11.27c.59,1.97-1.46,5.54,1.6,6.69,2.42,.91,6.01,.7,7.86-1.7,2.52-3.26,1.48-7.36,.85-11.02-.43-2.5-3.13-1.83-5.05-2.02-6.32-.62-5.23,3.87-5.26,8.06Zm-205.03,55.47c0-3.53,.01-6.3,0-9.06-.04-9.11-1.03-7.53-7.36-6.69-1.99,.27-4.7-.62-5.19,2.48-.43,2.69-.22,5.43,2.37,7.11,3.15,2.04,6.41,3.89,10.18,6.16Zm120.89-73.8c0-3.83,.02-6.8,0-9.76-.06-5.8-.11-11.6-.26-17.4-.03-1.29-.21-3-1.94-2.96-1.85,.04-1.63,1.84-1.63,3.08,0,6.8,.07,13.59,.18,20.38,.04,2.39,.9,4.47,3.64,6.67Zm-30.81-4.69c6.68-7.89,4.6-15.89,4.64-23.53,0-1.53-.91-2.49-2.57-2.27-1.68,.22-2.05,1.56-2.06,2.93-.04,7.23-.02,14.46-.02,22.87Zm5.89,14.72c-.43-.04-.86-.08-1.29-.12-1.87,5.96-4.3,11.81-3.59,18.32,.16,1.5-.63,3.76,1.87,3.9,2.33,.13,3.01-1.67,3.01-3.72,0-6.13,0-12.25,0-18.38Z"/></svg>
