<?xml version="1.0" encoding="UTF-8"?><svg id="_圖層_1" xmlns="http://www.w3.org/2000/svg" height="100%" width="100%" viewBox="0 0 800 500"><path d="M195.03,393.39c4.32,4,9.53,4.13,13.64,6.69,2.44,1.52,3.68,3.02,3.53,5.9-.15,2.95-2.01,3.92-4.4,4.63-33.66,9.97-67.32,19.97-100.98,29.95-3.65,1.08-6.45,.63-9.1-2.87-3.45-4.55-9.12-6.82-14.05-9.08-9.83-4.5-18.8-10.53-28.67-14.89-7.37-3.26-13.73-8.73-22.13-9.81-2.75-.35-3.54-2.77-3.66-5.28-.13-2.7,1.57-3.81,3.89-4.39,4.03-1.01,8.02-2.24,12.09-3.06,3.68-.74,4.73-2.63,4.48-6.34-1.08-15.94-2.09-31.89-2.65-47.86-.18-5.25-1.8-8.55-6.9-10.1-1.89-.57-3.74-1.5-5.38-2.61-4.06-2.77-3.74-7.06,.65-9.27,1.38-.69,2.74-1.08,2.72-3.05-.06-5.1,3.58-6.35,7.61-6.84,7.67-.93,14.97,.53,21.75,4.17,8.95,4.8,17.77,9.84,26.69,14.69,2.99,1.63,5.87,3.6,7.58,6.38,3.1,5.04,7.72,7.56,12.91,9.61,1.34,.53,2.7,1.48,3.6,2.6,2.27,2.84,1.03,6.87-2.43,8-2.68,.88-5.46,1.81-8.24,1.99-5.04,.33-5.98,3.06-5.38,7.38,.48,3.46,.68,6.96,.9,10.44,.32,5.16,1.8,6.71,6.53,4.85,6.59-2.59,13.56-3.37,20.24-5.38,3.5-1.06,6.19-.42,9.67,1.52,5.71,3.16,12.43,4.49,18.22,7.83,.42,.24,1.42,.06,1.81-.3,8.4-7.84,19.63-10.42,29.38-15.73,2.76-1.51,4.72-2.15,2.78-5.99-1.68-3.33-1.04-6.94,1.22-10.38,3.25-4.95,3-5.12-2.98-6.27-3.44-.66-6.87-1.35-10.32-1.91-4.32-.7-6.35-3.42-6.65-7.53-.32-4.32-.62-8.65-.52-12.97,.09-3.95,3.07-5.87,6.41-6.71,8.63-2.16,17.33-3.81,25.88,.42,1.62,.8,3.21,.87,4.69-.31,1.75-1.39,.84-3.01,.3-4.55-.55-1.57-1.27-3.09-1.79-4.67-1.02-3.14,.26-5.57,3.24-6.22,6.5-1.42,13.1-2.39,19.68-3.41,2.76-.43,3.09,1.99,3.81,3.79,3.16,7.88,3.13,7.77,11.49,5.98,21.98-4.7,43.83-10,66-13.89,11.04-1.94,21.64-6.35,32.44-9.64,.8-.24,1.6-.62,2.41-.63,3.94-.05,4.77-1.63,3.39-5.35-3.14-8.49-.83-16.1,4.84-22.74,1.87-2.2,2.69-4.42,2.67-7.23-.06-9.5,.1-19-.03-28.5-.04-3.22,.43-5.23,4.34-4.37,1.27,.28,2.65-.02,3.99,0,4.58,.05,7.05,1.9,6.86,6.96-.25,6.65,.05,13.33-.03,19.99-.03,2.92,.83,4.34,4.03,5.03,15.99,3.45,23.03,14.66,19.37,30.73-.71,3.11,.04,3.94,2.99,4.64,26.26,6.26,52.47,12.69,78.69,19.09,6.64,1.62,6.61,1.6,6.82-5.22,.98-30.95,2.02-61.9,3.03-92.85,.1-3.17,.1-6.32-1.13-9.35-1.25-3.08-.17-4.94,3.19-5.03,4.16-.11,8.34-.15,12.49,.08,3.34,.19,5.12,1.68,2.95,5.2-1.27,2.07-1.48,4.36-1.5,6.73-.3,34.15-.64,68.3-.92,102.46-.06,7.23,.35,7.09,7.7,7.5,13.18,.74,25.96,3.55,37.89,9.44,3.89,1.92,8.11,1.41,12.17,1.99,2.19,.31,2.06-2.18,2.18-3.78,.63-8.3,1.39-16.59,1.79-24.9,1.29-26.94,2.45-53.88,3.66-80.82,.21-4.73-1.92-7.16-6.78-7.94-6.58-1.06-13.15-2.13-19.7-3.33-3.28-.6-6.1-1.85-6.16-5.97-.06-3.95-.24-7.94,4.67-9.27,2.92-.79,3.34-2.69,3.15-5.32-.71-9.65,.48-19.28,.52-28.92,.02-4.86,2.43-6.92,7.37-7.36,8.47-.76,16.85-1.99,25.2,.84,1.52,.52,3.31,.22,4.97,.39,2.45,.26,3.33-.93,3.19-3.22-.06-1,.05-2,.02-3-.3-7.9,3.04-12.75,10.68-15.92,30.46-12.63,61.3-24.44,90.5-39.94,1.32-.7,2.74-1.21,4.15-1.74,4.89-1.86,7.45-.76,8.33,4.36,1.13,6.55,1.85,13.19,2.39,19.82,1.14,13.94,2.05,27.89,3.04,41.84,.09,1.33,.4,2.8-.03,3.97-2.25,6.25,1.64,7.24,6.28,7.43,3.31,.14,6.68-.47,9.93-.05,15.16,1.94,30.23,4.56,45.5,5.55,4.76,.31,7.46,2,7.76,7.47,.65,12.04,.21,23.93-2.65,35.66-.68,2.77-1.51,4.86,1.9,7.13,4.19,2.78,1.24,13.49-3.76,15.54-8.88,3.64-17.81,3.25-26.95,1.04-8.18-1.98-9.52-.61-9.95,7.96-.81,15.96-1.72,31.92-2.76,47.86-.59,8.97-.74,8.96,7.81,10.84,9.04,1.99,11.14,5.29,11.17,14.62,.04,16.2-.78,32.28-3.85,48.2-.58,3.01,.46,4.69,3.52,5.44,8.9,2.18,17.69,4.85,26.66,6.69,6.01,1.24,11.34,3.72,16.62,6.59,2.82,1.53,4.25,3.75,3.47,6.98-1.07,4.44,.73,9.31-2.59,13.47-4.79,6-11.62,7.99-18.42,10.13-1.56,.49-3.41,.27-4.57,1.66-3,3.61-7.48,4.87-11.23,7.27-13.35,8.55-27.31,7.72-41.74,3.5-36.62-10.71-73.28-21.28-109.94-31.84-1.64-.47-3.67-1.99-5.12-.37-1.2,1.34,.22,3.16,.73,4.68,1.56,4.57,3.2,9.12,4.92,13.63,1.75,4.58,1.05,5.97-3.87,5.46-8.79-.92-17.39-3.02-25.89-5.39-14.65-4.08-29.35-6.76-44.75-6.66-16.63,.11-33.13-2.97-49.65-5-6.08-.75-10.14-4.07-10.67-10.64-.3-3.78-1.94-4.71-5.64-3.49-14.87,4.92-30,9.08-44.65,14.56-8.95,3.34-16.95,2.23-24.9-1.69-6.81-3.35-13.55-4.63-21.09-3.02-8.99,1.92-18.05,3.09-26.85-1.44-3.63-1.87-6.98,1.25-10.53,1.72-1.45,.19-2.93,1.42-4.24,1.21-4.06-.65-7.68-1.58-10.37,3.19-1.04,1.85-4.31,1.17-6.58,.32-16.08-5.99-32.16-11.96-48.21-18.02-2.05-.78-3.96-1.69-6.23-1.05-22.28,6.26-44.56,12.5-67.55,18.94Zm506.16-94.28c-.06,3.53-.28,6.98-2.11,10.17-1.26,2.2-1.33,5.26-5.55,4.09-2.23-.62-.9,2.97-2.42,4.28-.71,.61,1.46,1.27,2.54,1.31,1.32,.05,2.65-.16,3.98-.2,1.23-.04,3-1.18,3.54,.47,.68,2.07-1.57,2.31-2.82,2.69-5.63,1.69-11.42,2.28-17.25,1.45-4.25-.6-6.27,.79-6.17,5.3,.07,2.98-.33,5.98-.74,8.95-.66,4.78,.92,7.42,6.02,8.27,5.73,.96,11.38,2.52,16.98,4.08,6.84,1.91,7.14,1.78,7.68-5.38,1.09-14.6,2.17-29.2,3.33-43.79,1.83-23.05,3.76-46.08,5.55-69.13,.44-5.64-2.35-8.97-8.01-9.87-6.91-1.09-13.86-1.91-20.74-3.11-3.18-.56-5.34,.75-5.47,3.5-.38,8.04-3.23,16.85,5.75,22.64,1.32,.85,2.43,2.38,3.08,3.84,7.08,16.1,12.09,32.74,12.81,50.45Zm-91.57-33.86c-4.2-2.71-2.6-6-.72-8.95,1.86-2.92,2.84-5.91,2.97-9.34,.4-10.63,.96-21.25,1.39-31.87,.18-4.55-1.63-7.63-6.52-8.39-4.76-.74-9.48-1.77-14.25-2.47-6.73-.98-7.64-.58-7.93,6.34-.72,17.1-.93,34.23-1.38,51.34-.09,3.46,1.59,4.39,4.73,3.66,3.26-.76,6.55-.51,9.84-.19-3.53,.69-7.09,1.08-10.63,1.58-1.52,.22-4.03-.05-3.44,2.37,.5,2.04,2.94,1.32,4.33,.89,3.17-.98,6.22-1.76,9.7-.63-1.26,2.06-3.45-.13-4.71,1.83,3.19,1.99,6.46,1.39,9.65,.74,2.28-.46,6.08,.9,6.44-2.16,.43-3.6-4.11-1.98-6.02-3.59,2.04-1.05,4.38,.27,6.56-1.16Zm31.28-14.54c2.63-.17,7.46-.31,12.25-.85,3.22-.36,5.87-1.11,6.73-5.46,1.5-7.58,1.32-15.2,1.67-22.79,.13-2.94-.87-6.77-5.29-7.38-6.6-.92-13.18-1.94-19.76-2.93-4.21-.63-6.33,1.1-6.35,5.42-.03,8.16-.48,16.3-.88,24.45-.56,11.43-.32,9.72,11.64,9.54Zm-58.85,55.51c0,3.66,.13,7.33-.04,10.98-.15,3.19,1.09,4.95,4.26,5.64,5.53,1.19,11.03,2.5,16.5,3.93,3.14,.82,4.1-.3,4.25-3.4,.6-12.45,1.3-24.89,2.2-37.32,.25-3.4-1.2-3.85-4.02-3.87-6.3-.03-12.66,.5-18.86-1.21-3.06-.84-3.36,1.13-3.36,3.33,0,7.32-1.31,14.59-.94,21.92Zm45.23,6.51c-.27,5.62-.51,11.24-.81,16.86-.11,2.04,.98,3.12,2.77,3.57,7.09,1.76,14.19,3.47,21.3,5.19,1.71,.41,3.04,.01,3.26-1.96,.4-3.63,.76-7.26,1.04-10.9,.19-2.37-1.07-3.7-3.35-4.2-2.27-.49-4.58-.88-6.79-1.58-5.82-1.85-12.86-.89-17.41-6.97ZM63,375.94c-.7-7.55-1.07-16.35-1.26-25.17-.09-4.31-.63-8.62-1.18-12.9-.19-1.49-1.19-3.14-2.89-2.94-2.26,.27-1.32,2.27-1.22,3.62,.52,7.13,1.07,14.25,1.67,21.37,.65,7.78,1.34,15.57,2.05,23.35,.1,1.09-.11,2.75,1.45,2.69,1.49-.06,1.32-1.68,1.36-2.8,.06-1.99,.02-3.99,.02-7.23Zm14.81,1.1s-.08,0-.12,0c-.25-4.31-.5-8.62-.75-12.93-.35-6.14-.66-12.27-1.06-18.41-.14-2.12-.96-4.46-3.23-4.34-2.77,.14-1.57,2.88-1.46,4.38,.85,11.43,1.87,22.84,2.89,34.26,.11,1.21-.28,3.03,1.72,2.98,1.69-.04,1.93-1.57,2-2.95,.05-.99,.01-1.99,.01-2.99Zm14.98-4.98c-.95-5.21-.79-11.85-.94-18.47-.04-1.52-.24-2.99-1.25-4.2-.85-1.02-1.8-2.17-3.31-1.59-1.36,.52-1.15,1.93-1.06,3.04,.64,8.58,1.33,17.16,2.05,25.74,.11,1.35,.43,2.81,2.25,2.65,1.58-.14,2.18-1.36,2.26-2.81,.06-.99,.01-1.99,.01-4.35Zm117.58-19.25c6.52-3.05,12.14-5.67,19-8.88-4.34-1.61-7.12-2.65-9.9-3.66-1.14-.41-2.45-.69-3.12,.57-1.9,3.57-4.72,6.69-5.97,11.96Z"/></svg>
