<?xml version="1.0" encoding="UTF-8"?><svg id="_圖層_1" xmlns="http://www.w3.org/2000/svg" height="100%" width="100%" viewBox="0 0 800 500"><path d="M337.68,173.19c-7.33,9.47-17.07,16.63-24.46,26.02-1.24,1.58-2.2,1.83-3.64,.62-3.05-2.56-5.72-5.49-9.08-7.78-2.68-1.83-.19-3.79,1.25-5.29,10.86-11.28,21.77-22.51,32.6-33.82,1.95-2.03,3.74-4.26,5.31-6.59,1.29-1.91,1.55-4-1.7-4.12-2.72-.1-3.84-2.03-5.5-3.7-8.52-8.61-17.26-17.01-25.9-25.5-5.58-5.47-11.06-11.05-16.72-16.43-1.82-1.73-.95-2.82,.25-4.15,2.55-2.83,5.56-5.19,7.42-8.7,1.45-2.72,3.3-1.18,4.82,.32,6.03,5.97,12.05,11.95,18.06,17.94,9.18,9.15,18.32,18.33,27.53,27.45,1.04,1.03,2.33,1.89,3.65,2.54,1.19,.59,2.24-.19,3.09-1.05,1.11-1.11,.53-2.11-.26-3.07-.11-.13-.24-.24-.33-.38-1.85-2.88-6.42-4.87-5.72-8.17,.57-2.7,4.52-4.58,6.71-7.06,11.53-13.09,24.74-24.61,35.85-38.08,1.61-1.95,2.65-1.19,4.06,.05,2.98,2.62,5.14,6.12,8.92,7.9,2.05,.97,1.1,2.43-.01,3.63-3.49,3.76-6.95,7.54-10.5,11.24-10.7,11.16-21.43,22.27-32.14,33.42-.66,.69-1.76,1.47-1.13,2.51,.96,1.57,2.89,1.34,4.07,.79,3.99-1.89,7.77-.68,11.64,.16,2.67,.58,4.05,2.01,2.56,4.57-1.46,2.52,.21,3.7,1.59,5.07,10.45,10.46,20.84,21,31.48,31.28,2.17,2.1,2.1,3.23,.23,5.2-2.38,2.52-5.17,4.65-6.74,7.95-1.43,3.02-3.25,1.22-4.69-.2-5.35-5.25-10.62-10.59-15.96-15.85-3.38-3.32-6.85-6.56-11.28-9.38,1.34,5.92,2.66,11.84,4.03,17.74,1.99,8.6,4.09,17.18,6,25.8,.7,3.16,2.06,4.82,5.57,5.18,5.78,.58,11.53,1.66,17.24,2.78,2.87,.56,4.15-.19,3.95-3.16-.4-6.08,1.22-12.33-1.86-18.17-1.53-2.9,1.4-4.48,2.48-6.56,.41-.79,1.76-.7,2.16,.02,1.15,2.06,4.04,3.53,2.85,6.48-2.61,6.46-1.01,13.2-1.55,19.79-.21,2.57,.85,3.77,3.44,3.54,1.99-.17,3.97-.39,5.96-.53,3.58-.24,5.01-1.82,2.86-5.09-2.71-4.11,1.22-6.33,2.42-9.31,.27-.66,1.3-.78,1.71-.23,1.26,1.71,2.39,3.52,3.47,5.36,.2,.34-.17,.96-.15,1.45,.07,2.39-3.98,5.56-.41,6.84,4.03,1.44,8.86,1.32,13.21-.28,.99-.36,1.29-1.54,1.25-2.56-.21-6.44,1.33-13-1.28-19.28-.19-.46-.33-.95-.45-1.43-.67-2.58,1.53-3.87,2.63-5.61,.55-.87,1.56-.39,2.06,.36,1.07,1.61,2.82,3.06,1.77,5.36-2.32,5.1-1.17,10.51-1.39,15.79-.06,1.37-.69,3.39,1.19,3.9,1.58,.43,3.05-1.07,3.49-2.34,1.54-4.48,3.88-4.17,7.31-2.04,1.71,1.06,4,1.98,5.82-.43,.87-1.14,2.01-.87,3.11-.14,.82,.55,1.65,1.25,2.58,1.47,2.83,.66,6.32,3.8,8.25,1.69,2.18-2.4,1.13-6.62,.12-10.04-.71-2.39-3.26-4.79-.44-7.25,1.2-1.05,1.43-4.48,3.62-2.87,1.78,1.31,4.56,3.4,2.76,6.67-1.86,3.38-1.89,7.02-1.76,10.71,.05,1.55,.28,3.4,2.15,3.43,5.66,.08,7.68,3.83,9.14,9.5,1.42-4.58,1.55-8.25,1.65-11.94,.41-14.65-.66-29.32,.91-43.95,.34-3.15,.18-6.12-4.07-6.61-1.12-.13-2.43-.71-2.16-2.22,.21-1.18,1.41-1.36,2.4-1.34,6.85,.16,11.84-4.14,17.18-7.37,4.94-2.99,2.06-8.17,3.05-13.26-2.26,1.62-3.39,4.2-6.06,2.74-2.69-1.47-2.17-3.94-2.1-6.17,.21-6.82,.6-13.63,.91-20.44,.13-2.81-.12-5.3-3.62-6.13-3.15-.75-4.48,1.01-5.9,3.3-5.09,8.18-17.38,7.65-22.57-.42-5.98-9.31-8.92-19.02-7.98-30.18,.68-8.1-.05-16.31,.93-24.44,.75-6.2,2.22-7.81,8.49-7.83,13-.05,26-.06,38.99,.07,3.34,.03,6.06-.69,8.59-3.07,4-3.76,8.37-7.11,12.53-10.7,1.45-1.25,2.99-2.1,4.94-2.06,14.98,.31,29.97,.63,44.95,.94,2.47,.05,3.66,1.32,3.65,3.74-.03,5.67-.08,11.33-.11,17-.02,3.71-2.48,4.13-5.42,4.24-7.64,.27-8.01,.57-8.28,8.32-.24,6.99-.16,14-.19,20.99,0,2.04,.08,3.87,2.74,4.59,9.03,2.44,11.27,8.48,6.21,16.31-1.72,2.67-.63,4.6,3.02,4.68,8,.17,16,.09,24,.13,7.98,.04,8.32,.78,7.67,8.69-1.13,13.76-1.78,27.57-2.7,41.35-.26,3.92,.08,8.4-6.53,8.18,2.32,1.23,3.25,2.74,3.84,4.52,.57,1.72,1.79,2.96,3.59,3.06,4.94,.27,5.74,3.68,6.06,7.57,.75,9.13,1.54,18.25,2.24,27.38,.29,3.82,.72,7.14,5.59,8.02,3.92,.71,4.77,4.15,4.63,7.71,1.93,0,1.49-1.32,1.52-2.11,.41-9.48,.77-18.96,1.12-28.44,.14-3.84,.08-7.66-1.39-11.32-1.26-3.14-.17-4.8,3.28-4.8,10.83-.01,21.66,0,32.5-.08,2.71-.02,4.39,1.13,5.34,3.6,1.8,4.66,3.64,9.31,5.5,13.95,.76,1.91,.81,3.53-1.31,4.66-1.6,.85-2.28,2.89-1.08,3.73,3.23,2.26,5.24,6.37,10.11,6.29,5.99-.09,11.99,.19,17.96,.6,2.2,.15,5.51,.46,2.11,4-1.27,1.32-.87,3.14-.95,4.78-.34,6.65-.75,13.3-.97,19.95-.16,4.76-3.95,7.56-5.77,11.4-2.29,4.85-6.39,4.59-10.62,4.42-2.31-.09-4.35,.17-4.6,3.23-.24,2.96,.72,4.82,3.84,5.32,15.95,2.54,31.51,6.95,47.47,9.5,11.03,1.76,21.7,5.22,32.4,8.38,10.81,3.19,12.9,11.81,4.89,20.2-8.01,8.39-17.87,14.38-27.51,20.63-14.95,9.69-30.34,18.73-43.95,30.37-3.13,2.67-5.85,5.55-7.07,9.46-2.12,6.83-7.17,10.03-13.59,11.96-10.3,3.1-20.95,3.95-31.56,4.73-31.86,2.34-63.72,4.75-95.51,7.94-41.46,4.16-82.62,10.19-123.51,18.16-9.81,1.91-19.51,4.38-29.3,6.39-3.62,.74-5.42,2.46-4.51,6.17,1.09,4.41-.4,8.03-2.57,11.8-4.07,7.07-7.84,14.32-11.51,21.61-1.64,3.25-3.67,5.45-7.53,5.52-4.33,.08-6.83,2.29-8.41,6.4-2.36,6.14-7.01,10.56-12.79,13.48-15.27,7.72-30.16,16.61-47.49,19.06-12.46,1.77-24.92,.57-37.26-1.75-40.35-7.59-78.86-20.74-115.94-38.23-15.36-7.25-31.1-13.82-44.53-24.55-11-8.79-19.16-19.14-20.14-34.02-.95-14.45-1.88-28.9-1.98-43.38-.04-5.38,1.53-10.52,3.53-15.51,2.46-6.12,2.43-6.07-4.15-7.81-15.97-4.22-32.4-6.18-48.44-10.03-6.8-1.63-13.62-3.36-19.61-7.19-5.67-3.62-5.79-7.53-.09-11.05,9.17-5.67,19.74-6.93,30.06-8.66,5.62-.94,10.23-3.04,14.75-6.53,6.12-4.73,13.81-6.53,21.12-8.67,12-3.51,24.23-6.13,36.63-7.8,2.85-.38,4.87-1.61,5.54-4.23,1.56-6.08,5.78-7.76,11.34-7.18,5.06,.53,8.09-.71,7.28-6.61-.41-2.94,1.34-3.94,4.14-4.33,6.6-.92,8.87-3.9,6.2-9.69-2.4-5.2,.88-5.47,3.86-5.88,9.4-1.3,18.83-2.33,28.27-3.34,13.9-1.48,27.82-2.81,41.73-4.31,2.19-.24,4.85-.13,5.4-3.33,.37-2.15-.95-5.26,2.06-6.07,3.46-.93,7.13-2,10.76-.28,2.86,1.35,5.71,2.72,8.57,4.07,1.93,.91,3.84,2.32,5.65-.32,.63-.93,1.71-.74,2.72-.32,6.83,2.81,14.2,3.32,21.29,5.03,2.31,.56,4.46,.35,5.89-1.61,6.19-8.45,15.61-8.98,24.67-9.66,5.46-.41,7.98-2.38,8.98-7.76,1.9-10.28,4.37-20.45,6.61-30.66-.39-.19-.78-.38-1.17-.57Zm180.06-126.66c-2.02-.89-4.01-.52-5.95-.57-2.18-.06-2.76,1.08-2.75,3.15,.06,11.81,.05,23.63-.04,35.44-.02,3.18,1.09,4.25,4.23,3.21,2.83-.94,5.71-1.87,8.79-1.29,2.83,.53,3.94-.84,4.03-3.55,.28-7.97,1.04-15.91,1-23.91-.03-4.48-1.42-6.52-6.06-6.09-1.73,.16-3.95,.72-5.12-1.03-1.39-2.08,1.59-2.97,1.87-5.36Z"/></svg>
