<?xml version="1.0" encoding="UTF-8"?><svg id="_圖層_1" xmlns="http://www.w3.org/2000/svg" height="100%" width="100%" viewBox="0 0 800 500"><path d="M531.63,182.64c4.19,2.5,7.45,4.82,11.02,6.51,24.71,11.65,48.11,25.91,73.37,36.47,5.18,2.16,10.13,5.11,14.21,9.17,2.8,2.79,5.25,6.06,4.12,10.12-1.07,3.83-5,4.44-8.39,5.43-4.87,1.43-9.6,.02-14.37-.53-3.14-.36-6.22-1.14-9.33-1.75-10.49-2.06-12.89-.11-14.17,10.64-.89,7.51-.01,14.96,.02,22.43,0,2.47,.99,4.53,2.92,6.1,6.18,5.06,12.44,10.04,18.52,15.21,2.49,2.12,3.8,1.68,5.24-1.1,2.95-5.68,7.52-9.82,13.64-11.67,7.94-2.4,14.58,2.02,15.53,10.23,1.23,10.66-.31,21.26-1.24,31.86-1.49,17.07-2.96,34.15-4.35,51.23-.32,3.92,7.33,11.52,11.86,11.94,1.49,.14,3.03,.26,4.49,.02,5.55-.9,10.9-1.62,16.35,1.19,2.78,1.44,5.17-1.69,7.53-3.06,3.24-1.88,5.06-1.68,7.05,1.94,6.32,11.49,11.86,23.51,21.28,33.03,1.25,1.26,2.34,2.97,2.82,4.67,1.55,5.54,4.13,9.69,10.53,10.24,1.97,.17,2.8,1.89,2.55,3.7-.6,4.38,.43,9.08-5.32,11.75-3.69,1.72-4.42,6.88-6.07,10.6-2.38,5.36-5.17,8.55-11.65,7.1-2.47-.55-5.29,.21-7.91,.63-6.05,.98-6.56,1.9-4.97,7.99,1.89,7.24,1.95,7.4-5.33,9.93-5.5,1.91-11.18,3.3-16.76,4.97-1.85,.55-3.59,.28-5.39-.27-5.26-1.6-10.76-2.62-15.77-4.8-8.2-3.57-16.57-2.9-25.02-2.27-5.81,.43-11.61,1.04-17.4,1.61-2.56,.25-4.93-.3-7.3-1.23-9.46-3.71-19.02-7.19-28.41-11.07-5.19-2.15-10.53-3.13-16.04-3.37-25.12-1.09-50.2-2.72-75.24-5.02-12.81-1.17-25.6,.93-38.41,1.32-23.33,.72-46.39,5.49-69.62,5.82-21.77,.32-43.64,.52-65.43-.89-2.31-.15-4.09,.11-5.76,2.01-3.63,4.12-8.56,5.03-13.72,4.31-3.78-.53-7.76-1.02-11.15-2.61-14.78-6.91-30.86-8.05-46.53-10.88-6.84-1.23-13.07-3.35-19.13-6.73-11.35-6.33-23-12.11-34.46-18.23-2.36-1.26-4.79-1.32-7.27-1.25-20.71,.57-41.29-.37-61.61-4.9-2.68-.6-5.07-1.42-7.29-2.98-4.77-3.35-9.65-6.56-14.36-9.99-2.64-1.93-5.12-3.34-8.68-2.51-3.7,.86-5.44-1.26-4.68-4.87,2.4-11.41,5-22.78,7.43-34.19,.75-3.53,2.56-3.13,5.07-1.89,6.13,3.01,12.32,5.9,18.51,8.79,2.72,1.27,4.58,1.05,5.5-2.46,4.22-16.1,12.34-29.93,23.69-42.21,12.83-13.87,29.12-22.53,44.95-32.02,6.99-4.2,13.88-8.55,20.34-13.58,11.66-9.07,19.33-20.11,18.64-35.61-.57-12.81,.07-25.64-.23-38.43-.67-28.46-2.17-56.9-3.24-85.36-.24-6.33,.07-12.6,1.78-18.83,1.37-4.97,3.86-8.78,8.28-11.36,2.59-1.51,5.07-3.27,7.79-4.49,5.88-2.64,11.64-5.08,11.51-13.14-.03-1.52,1.66-3.22,2.87-4.57,2.76-3.07,1.13-6.31,.62-9.5-.2-1.26-1.25-1.15-2.34-1.14-7.41,.11-10.05-2.88-10.46-11.65-.27-5.93,3.65-11.78,8.96-11.1,10.47,1.33,17.78-2.64,24.11-10.44,2.5-3.07,6.61-4.84,10.59-5.18,7.43-.63,14.86-2.5,22.37-1.03,3.13,.62,5.41-.32,7.59-2.55,10.04-10.26,21.99-17.17,36.11-20.14,2.21-.46,3.97-1.43,5.35-3.32,4.07-5.56,9.87-8.34,16.48-9.38,6.57-1.04,13.19-1.27,19.88-1.37,8.7-.13,15.46,3.58,21.76,8.61,2.27,1.81,4.42,2.58,7.2,2.68,7.82,.3,15.64,.89,23.24,2.91,2.46,.65,4.33,.13,6.5-1.25,10.78-6.9,30.3-4.91,39.25,4.16,3.01,3.06,6.35,3.43,10.03,3,6.67-.78,10.71,5.37,7.45,12.88-.76,1.75-2.35,2.94-4.31,3.02-4.53,.17-4.03,3.41-2.71,5.57,3.06,5.02,3.15,9.66-.12,14.42-.86,1.25-.31,2.17,.36,3.17,.91,1.37,2.08,1.33,3.5,.83,10.6-3.68,21.36-2.49,32.01-.48,5.01,.95,9.19,4.12,12.21,8.22,2.44,3.3,5.22,4.55,9.29,4.49,9.26-.14,12.1,3.76,10.27,12.95-.7,3.54-2.75,5.53-6.08,5.32-2.57-.16-3.26,.72-3.46,2.87-.16,1.82-.58,3.64-.58,5.46-.02,4.53-1.01,8.54-4.76,11.56-2.44,1.96-2.22,3.74,.57,5.4,6.92,4.12,9.7,11.02,10.71,18.36,1.04,7.57,.73,15.3,.06,22.95-.76,8.62-5.33,14.49-13.19,17.93-1.67,.73-3.27,1.59-5.89,2.88Z"/></svg>
