<svg width="24" height="25" viewBox="0 0 24 25" fill="none" xmlns="http://www.w3.org/2000/svg">
<path d="M22.7334 10.775L12 24.8333L1.24335 10.7866L1.34835 10.6933C1.59335 10.4483 1.88502 10.25 2.17669 10.0866L10.5184 20.9716L8.01002 13.1666L8.78002 11.7783L12 21.7766L15.185 11.7666L15.9667 13.1666L13.4817 20.9716L21.8117 10.075C22.1034 10.25 22.3834 10.4133 22.6167 10.6583L22.7334 10.775ZM3.83335 8.49998C5.58335 8.49998 7.11169 9.50331 7.91669 10.95C8.31173 10.2102 8.90023 9.59152 9.61938 9.16002C10.3385 8.72853 11.1614 8.5004 12 8.49998C13.75 8.49998 15.2667 9.49165 16.0834 10.9383C16.4759 10.1973 17.0642 9.57822 17.7841 9.14831C18.5041 8.7184 19.3282 8.49415 20.1667 8.49998C21.4384 8.49998 22.605 8.98998 23.445 9.82998C22.43 4.41665 17.6934 0.333313 12 0.333313C6.27169 0.333313 1.53502 4.41665 0.52002 9.86498C1.37169 9.02498 2.53835 8.49998 3.83335 8.49998Z" fill="black"/>
</svg>
