<svg width="120" height="120" viewBox="0 0 120 120" fill="none" xmlns="http://www.w3.org/2000/svg">
<rect width="120" height="120" rx="5" fill="white"/>
<path fill-rule="evenodd" clip-rule="evenodd" d="M115 3H5C3.89543 3 3 3.89543 3 5V115C3 116.105 3.89543 117 5 117H115C116.105 117 117 116.105 117 115V5C117 3.89543 116.105 3 115 3ZM5 0C2.23858 0 0 2.23858 0 5V115C0 117.761 2.23858 120 5 120H115C117.761 120 120 117.761 120 115V5C120 2.23858 117.761 0 115 0H5Z" fill="black"/>
<path d="M8 109.744V93.4449H11.4636L17.8438 102.922L15.474 102.898L21.9226 93.4449H25.295V109.744H21.5352V104.575C21.5352 103.224 21.5656 101.99 21.6263 100.873C21.7023 99.7394 21.8238 98.6062 21.9909 97.473L22.4011 98.7304L17.3653 105.786H15.8614L10.8711 98.7304L11.304 97.473C11.4711 98.5752 11.5851 99.685 11.6458 100.803C11.7218 101.905 11.7598 103.162 11.7598 104.575V109.744H8Z" fill="black"/>
<path d="M29.3038 109.744V97.3799H32.9724V109.744H29.3038ZM31.1267 94.8419C30.4431 94.8419 29.9114 94.6789 29.5317 94.3529C29.1519 94.0114 28.962 93.5302 28.962 92.9093C28.962 92.3505 29.1519 91.8926 29.5317 91.5355C29.9266 91.1785 30.4583 91 31.1267 91C31.8103 91 32.342 91.1708 32.7218 91.5123C33.1016 91.8382 33.2915 92.3039 33.2915 92.9093C33.2915 93.4837 33.094 93.9493 32.699 94.3064C32.3192 94.6634 31.7951 94.8419 31.1267 94.8419Z" fill="black"/>
<path d="M37.0452 109.744V97.3799H40.5087L40.6227 100.267L39.7568 100.523C39.9543 99.9179 40.2885 99.3591 40.7594 98.8468C41.2455 98.3346 41.8304 97.9232 42.5139 97.6127C43.2127 97.2868 43.9647 97.1238 44.7698 97.1238C45.8028 97.1238 46.6763 97.3333 47.3903 97.7525C48.1042 98.1716 48.6435 98.7692 49.0081 99.5453C49.3727 100.306 49.555 101.214 49.555 102.27V109.744H45.8864V102.805C45.8864 102.262 45.7876 101.804 45.5901 101.431C45.4078 101.059 45.1268 100.772 44.747 100.57C44.3824 100.368 43.9571 100.267 43.471 100.267C43.0456 100.267 42.6583 100.345 42.3089 100.5C41.9747 100.64 41.686 100.834 41.443 101.082C41.1999 101.315 41.01 101.579 40.8733 101.874C40.7518 102.169 40.691 102.471 40.691 102.782V109.744H38.8909C38.3896 109.744 37.987 109.744 37.6832 109.744C37.3794 109.744 37.1667 109.744 37.0452 109.744Z" fill="black"/>
<path d="M57.9164 110C56.7315 110 55.6909 109.728 54.7946 109.185C53.8984 108.626 53.1996 107.866 52.6983 106.903C52.197 105.925 51.9463 104.815 51.9463 103.574C51.9463 102.332 52.2046 101.23 52.7211 100.267C53.2376 99.2892 53.9515 98.5208 54.863 97.962C55.7897 97.4032 56.853 97.1238 58.0531 97.1238C58.7215 97.1238 59.3444 97.2169 59.9216 97.4032C60.4989 97.5739 61.0154 97.8068 61.4711 98.1017C61.942 98.3967 62.3142 98.7382 62.5876 99.1262C62.8763 99.4988 63.0434 99.8791 63.0889 100.267L62.2231 100.477V92.5135H65.8917V109.744H62.4965L62.2914 106.74L63.0206 106.926C62.975 107.315 62.8079 107.695 62.5193 108.067C62.2307 108.424 61.8509 108.75 61.38 109.045C60.9242 109.325 60.4001 109.558 59.8077 109.744C59.2152 109.915 58.5848 110 57.9164 110ZM58.9418 106.857C59.6254 106.857 60.2178 106.717 60.7191 106.438C61.2356 106.158 61.6306 105.778 61.904 105.297C62.1775 104.8 62.3142 104.225 62.3142 103.574C62.3142 102.906 62.1775 102.332 61.904 101.85C61.6306 101.354 61.2356 100.973 60.7191 100.71C60.2178 100.43 59.6254 100.29 58.9418 100.29C58.2582 100.29 57.6657 100.43 57.1644 100.71C56.6631 100.973 56.2682 101.354 55.9795 101.85C55.7061 102.332 55.5694 102.906 55.5694 103.574C55.5694 104.225 55.7061 104.8 55.9795 105.297C56.2682 105.778 56.6631 106.158 57.1644 106.438C57.6657 106.717 58.2582 106.857 58.9418 106.857Z" fill="black"/>
<path d="M70.5887 109.744V93.9804H74.2346V109.744H70.5887ZM67.8999 100.64V97.3799H77.3108V100.64H67.8999Z" fill="black"/>
<path d="M79.9755 109.744V97.3799H83.4391L83.5986 101.641L82.7327 101.199C82.9302 100.438 83.272 99.7549 83.7581 99.1495C84.2594 98.5286 84.8291 98.0396 85.4671 97.6826C86.1203 97.31 86.8115 97.1238 87.5407 97.1238C87.9356 97.1238 88.3078 97.1626 88.6572 97.2402C89.0218 97.3178 89.3332 97.4187 89.5915 97.5429L88.5888 101.618C88.361 101.447 88.0496 101.315 87.6546 101.222C87.2748 101.129 86.8875 101.082 86.4925 101.082C86.0519 101.082 85.6494 101.16 85.2848 101.315C84.9354 101.455 84.6392 101.656 84.3961 101.92C84.1531 102.169 83.9632 102.456 83.8265 102.782C83.7049 103.108 83.6442 103.457 83.6442 103.83V109.744H79.9755Z" fill="black"/>
<path d="M92.0424 109.744V97.3799H95.7111V109.744H92.0424ZM93.8654 94.8419C93.1818 94.8419 92.6501 94.6789 92.2703 94.3529C91.8905 94.0114 91.7006 93.5302 91.7006 92.9093C91.7006 92.3505 91.8905 91.8926 92.2703 91.5355C92.6653 91.1785 93.197 91 93.8654 91C94.549 91 95.0806 91.1708 95.4604 91.5123C95.8402 91.8382 96.0301 92.3039 96.0301 92.9093C96.0301 93.4837 95.8326 93.9493 95.4376 94.3064C95.0579 94.6634 94.5338 94.8419 93.8654 94.8419Z" fill="black"/>
<path d="M108.443 109.744L105.093 105.297L104.159 104.039L98.8496 97.3799H103.452L106.46 101.455L107.463 102.805L113 109.744H108.443ZM98.5533 109.744L103.977 102.759L106.187 105.064L103.088 109.744H98.5533ZM107.44 104.365L105.298 102.037L108.352 97.3799H112.863L107.44 104.365Z" fill="black"/>
<path d="M102.574 50.4524C102.163 48.975 101.507 47.5224 100.626 46.1375C99.8196 44.863 98.8078 43.6202 97.6178 42.4473C96.2566 41.0939 94.6396 39.8082 92.8056 38.6218C92.7233 38.3421 92.6388 38.0624 92.5566 37.7827C91.8257 35.3241 91.0698 32.782 90.2498 30.2828C90.1539 29.9896 90.0031 29.4437 89.8273 28.8099C89.2609 26.7596 88.3153 23.3288 87.0089 20.4078C85.1566 16.2643 83.0554 14.25 80.5841 14.25C79.3919 14.25 78.2317 14.7417 77.1377 15.7116C77.0098 15.8244 76.8978 15.9552 76.8065 16.0996C74.6299 19.5416 72.958 23.2702 71.8366 27.1859C70.9527 29.8994 70.0597 32.7144 69.1758 35.57C66.4396 35.5384 63.3997 35.5136 60.4443 35.4888C57.1006 35.4617 53.6564 35.4324 50.5959 35.394L50.4634 35.1797C48.6705 32.2813 46.8136 29.2836 44.5343 27.231C42.7482 25.6228 41.0261 24.8401 39.2675 24.8401C36.3988 24.8401 34.1697 26.9333 32.1872 29.1934C30.1065 31.5685 28.3205 34.1715 26.5915 36.6865C25.4519 38.3466 24.2756 40.0609 23.04 41.6646C19.5844 44.8021 17.4649 48.4179 16.9076 52.1351C16.8048 52.8073 16.75 53.5043 16.75 54.199C16.75 55.4802 16.9304 56.7659 17.2867 58.0177C17.6956 59.4703 18.3488 60.9094 19.2304 62.2898C20.3175 63.9996 21.7656 65.6439 23.5333 67.171C23.6338 67.2567 23.7275 67.3379 23.8234 67.4146C25.5409 68.8491 27.7244 70.2273 30.3167 71.5085C33.1259 72.8979 36.312 74.1363 39.7882 75.1874C39.9618 75.2393 40.1422 75.2663 40.3227 75.2663H40.3364C44.7307 75.237 49.4562 75.1761 54.4603 75.1107C61.9928 75.0137 69.7833 74.9145 76.9709 74.9145C78.894 74.9145 80.7212 74.9212 82.4022 74.937H82.4181C82.642 74.937 82.8635 74.8964 83.0714 74.8175C87.8814 72.9972 92.198 70.5363 95.5554 67.6988C96.5718 66.8416 97.5014 65.9462 98.3167 65.0439C99.4541 63.7876 100.404 62.4793 101.142 61.1598C101.768 60.0478 102.247 58.9087 102.569 57.7786C102.912 56.5944 103.086 55.3877 103.086 54.199C103.086 52.9381 102.912 51.6772 102.569 50.4479L102.574 50.4524ZM99.8698 50.2517C98.6342 50.2381 97.3072 50.1705 95.7861 50.0464C95.3727 49.3066 94.9844 48.5464 94.6167 47.775C96.0236 47.775 97.3849 47.775 98.6844 47.775C99.1732 48.587 99.5683 49.4149 99.8698 50.2539V50.2517ZM97.7731 46.4194C96.5741 46.4194 95.3202 46.4194 94.0412 46.4194C93.8173 45.7518 93.5981 45.0841 93.3834 44.4164C94.3335 44.3984 95.2037 44.3894 96.0236 44.3894C96.6746 45.0503 97.257 45.7269 97.7731 46.4194V46.4194ZM94.587 43.045C94.0686 43.0518 93.5296 43.0608 92.9609 43.0721C92.785 42.5059 92.6114 41.942 92.4401 41.3759C93.2075 41.915 93.9224 42.4721 94.587 43.045V43.045ZM74.2393 27.9144L74.2462 27.8919C75.2945 24.222 76.8567 20.7258 78.8872 17.4958C79.6683 16.8282 80.3877 16.6003 81.0843 16.8033C84.1585 17.7011 86.5156 26.2408 87.404 29.4573C87.5959 30.1497 87.7466 30.6956 87.8608 31.0475C87.9202 31.2257 87.975 31.4061 88.0344 31.5866C86.5727 28.14 84.5651 24.416 81.9339 23.3514C80.9952 22.9702 79.8921 22.5213 78.5971 23.5634C78.5469 23.604 78.476 23.613 78.4304 23.6604C76.2652 25.8844 74.5796 28.4716 73.4217 31.3542C73.1019 32.0557 72.7844 32.764 72.4693 33.47C73.0539 31.6114 73.6432 29.7573 74.2416 27.9167L74.2393 27.9144ZM54.2799 37.9045C59.3525 37.9789 64.6444 38.0579 69.5892 38.1256C69.153 39.5556 68.7213 40.9834 68.2988 42.409C68.18 42.7901 68.059 43.2119 67.9356 43.6721C64.9916 43.5931 62.4656 43.4104 60.2433 43.1127C56.6483 42.63 53.9556 40.4082 51.2514 37.8639L54.2799 37.909V37.9045ZM67.5793 45.0142C67.5359 45.1788 67.4925 45.348 67.4491 45.5194C67.2915 45.9367 67.1271 46.3698 66.9535 46.8164C64.0552 46.8773 61.9174 46.7217 60.0674 46.3179C57.329 45.7202 55.1683 43.8164 53.2681 41.4052C55.2483 42.9165 57.4317 44.1007 60.056 44.4525C62.2463 44.7458 64.7175 44.9307 67.577 45.0164L67.5793 45.0142ZM23.5356 44.6262L23.5151 44.6082C25.3902 42.4112 27.0438 40.1173 28.6448 37.8932C30.3395 35.5361 32.0936 33.0978 34.092 30.8197C36.191 28.4242 37.639 27.4137 39.0848 27.328C40.2427 27.2603 41.4738 27.8287 42.8464 29.0648C44.8654 30.8828 46.551 33.6053 48.3348 36.4902C51.377 41.4075 54.522 46.4916 59.7751 47.6397C61.4698 48.0096 63.3723 48.1833 65.8047 48.1833C66.0034 48.1833 66.209 48.1833 66.4122 48.1788C65.8846 49.46 65.2908 50.775 64.617 51.9908C62.8927 52.0449 61.4104 51.9073 60.0994 51.5622C55.1638 50.2652 52.624 45.5352 49.9358 40.53C47.8962 36.7316 45.7859 32.8023 42.5061 30.5106C41.154 29.5655 39.7814 29.2114 38.4247 29.4573C35.483 29.9896 33.3132 33.1768 31.5706 35.7369C31.413 35.9692 31.2577 36.1948 31.1092 36.4113C30.5519 37.2166 29.9992 38.0331 29.4442 38.8541C26.7331 42.8556 23.2593 47.4818 19.5456 50.9284C19.9727 49.0359 21.0233 47.2788 23.5379 44.6307L23.5356 44.6262ZM19.2669 54.2012C19.2669 53.7682 19.2738 53.3599 19.292 52.9674C23.5722 49.3359 27.5417 44.0894 30.5816 39.6007C31.1343 38.7842 31.6848 37.9699 32.2398 37.1692C32.3905 36.9504 32.5481 36.7203 32.7057 36.4857C34.3067 34.1354 36.296 31.2121 38.6714 30.7836C39.6626 30.6031 40.6584 30.8738 41.7136 31.6114C44.7261 33.7159 46.7588 37.5008 48.7253 41.1616C51.4341 46.2051 54.2342 51.4178 59.7477 52.8682C60.9604 53.1862 62.2943 53.3464 63.7925 53.3554C62.6483 55.0877 61.303 56.4478 59.7088 56.9238C56.9407 57.7516 53.0877 53.7862 49.3625 49.9517C45.9298 46.4194 42.6865 43.0811 39.7722 42.8127C35.2728 42.3954 31.687 46.2841 28.22 50.0419C25.4861 53.0035 22.67 56.0576 19.5661 56.7568C19.372 55.9132 19.2669 55.0606 19.2669 54.2012V54.2012ZM19.9452 58.0583C23.4283 57.2418 26.3746 54.0524 29.2341 50.9532C32.6257 47.2788 35.8256 43.8074 39.6466 44.1593C42.0539 44.3826 45.2674 47.6893 48.3759 50.8878C51.964 54.5802 55.6594 58.3831 58.9551 58.3831C59.3457 58.3831 59.7294 58.329 60.1085 58.2162C61.9265 57.6726 63.4111 56.2967 64.6536 54.5351C63.4248 57.4335 61.8329 59.8651 59.6837 60.6681C58.2334 61.2094 55.6297 60.9816 53.5376 60.7989C52.5692 60.7154 51.6556 60.6342 50.8996 60.6275C48.0515 60.6004 44.7398 60.5711 41.4875 60.5666C38.258 60.5643 34.9759 60.5869 31.8012 60.6094C28.3182 60.6342 24.7324 60.659 21.1831 60.65C20.6693 59.8019 20.2581 58.9358 19.9475 58.0561L19.9452 58.0583ZM81.3287 73.1303V73.1145L81.3356 73.1303H81.3287ZM81.1163 72.4716L81.1209 72.4852C72.2957 72.3679 63.0914 72.4964 54.1862 72.625C49.431 72.6927 44.5183 72.7626 39.7585 72.7942C37.4198 72.0859 35.2431 71.2626 33.2538 70.3469C35.1175 70.3694 36.9675 70.4078 38.7764 70.4461C41.5035 70.5047 44.1688 70.5634 46.8251 70.5634C51.1646 70.5634 55.4675 70.4078 59.9212 69.8506C64.7838 69.2416 67.8169 65.8289 70.7517 62.5289C71.6036 61.5703 72.4852 60.5801 73.3943 59.6778C75.0821 58.0042 76.9275 57.2057 79.0288 57.2441C84.0717 57.3275 89.5395 62.2786 93.4108 66.3093C90.1744 68.7837 85.9788 70.8927 81.1163 72.4716V72.4716ZM95.3088 64.7191C95.0415 64.9672 94.7629 65.2108 94.4774 65.4544C90.428 61.2297 84.6313 55.9854 79.0516 55.8929C76.5895 55.8636 74.3604 56.8042 72.4236 58.726C71.4826 59.6575 70.5873 60.6658 69.7217 61.6402C66.8279 64.8928 64.0963 67.9672 59.7499 68.5108C52.6743 69.3972 45.9389 69.2506 38.8084 69.095C36.1293 69.0363 33.3566 68.9777 30.577 68.9777V68.9957C29.1473 68.2063 27.8386 67.3627 26.6578 66.474C29.0948 66.4244 31.3741 66.298 33.5896 66.1717C36.3897 66.0138 39.2857 65.8514 42.4627 65.8514C43.977 65.8514 45.7219 65.971 47.5673 66.0973C51.8155 66.3883 56.6323 66.7176 60.1314 65.6304C63.9478 64.4417 65.96 59.4613 67.4309 55.8253C67.6798 55.2095 67.9151 54.6276 68.1389 54.111L68.2873 53.7727C71.1035 47.2923 73.1362 42.612 76.9481 36.479L77.06 36.2963C77.6196 35.3895 79.3234 32.6287 80.5133 32.6129H80.5248C81.7672 32.6129 83.5122 35.4685 84.0854 36.409L84.2316 36.6481C87.5639 42.0435 90.3343 48.3254 93.0134 54.402C94.2856 57.2847 95.5965 60.2575 96.9327 63.041C96.4393 63.6116 95.9003 64.1733 95.311 64.7214L95.3088 64.7191ZM97.8782 61.8477C96.6631 59.2854 95.496 56.6395 94.2696 53.8584C91.5722 47.7412 88.7812 41.4142 85.401 35.9399L85.2571 35.7076C83.8456 33.3956 82.2948 31.2572 80.5225 31.2572C80.5133 31.2572 80.5019 31.2572 80.4928 31.2572C78.7821 31.2798 77.2678 33.3527 75.8883 35.588L75.7787 35.7662C71.9143 41.9849 69.8656 46.7036 67.0266 53.2358L66.8781 53.5742C66.6475 54.1065 66.4077 54.6975 66.1564 55.3223C64.7883 58.7079 62.9155 63.3432 59.718 64.3379C56.4656 65.3507 51.7881 65.0281 47.661 64.7462C45.7904 64.6176 44.0227 64.4958 42.4604 64.4958C39.2446 64.4958 36.328 64.6605 33.5096 64.8206C30.8214 64.9717 28.0441 65.1274 25.0156 65.1387C23.8851 64.1394 22.9098 63.0928 22.099 62.0101C25.3536 62.0147 28.6265 61.9921 31.8127 61.9673C34.9851 61.9447 38.2648 61.9199 41.4875 61.9244C44.733 61.9289 48.0401 61.9583 50.8859 61.9853C51.5871 61.9921 52.4756 62.0688 53.4143 62.1522C54.5996 62.256 55.8672 62.3665 57.0549 62.3665C58.2425 62.3665 59.3023 62.2605 60.1656 61.938C65.1172 60.0906 67.2984 51.6073 68.7441 45.9931L68.7624 45.9254C68.8104 45.7991 68.8583 45.6728 68.904 45.5465C69.2557 44.6104 69.5892 43.7262 69.893 43.0112C71.3958 39.2895 73.006 35.5497 74.6756 31.8956L74.687 31.8663C75.701 29.34 77.1422 27.0551 78.9762 25.0611C79.344 24.6619 79.8601 24.4092 80.406 24.4025C80.7417 24.398 81.0752 24.4656 81.4132 24.601C84.4783 25.8415 86.8787 32.2339 88.1691 35.6692C88.4432 36.3978 88.6785 37.0271 88.868 37.4624C89.4938 38.9105 90.0922 40.4308 90.6678 41.9014C91.3827 43.7217 92.1044 45.5623 92.9152 47.3555C94.4523 51.8441 96.2863 56.2696 98.8215 60.4019C98.5406 60.8891 98.2231 61.3696 97.8782 61.8455V61.8477ZM99.5501 58.9718C98.7575 57.623 98.0381 56.2403 97.3735 54.8328C98.1797 55.8072 99.0704 56.723 100.071 57.5598C99.9269 58.0335 99.7556 58.5049 99.5501 58.9718V58.9718ZM100.42 56.0599C98.9288 54.7088 97.6955 53.1524 96.6312 51.4675C97.9604 51.5599 99.1504 51.605 100.274 51.6073C100.475 52.4644 100.578 53.3306 100.578 54.2012C100.578 54.8238 100.521 55.4418 100.418 56.0599H100.42Z" fill="black"/>
</svg>
