<svg width="100" height="100" viewBox="0 0 100 100" fill="none" xmlns="http://www.w3.org/2000/svg">
<path d="M92.074 54.4524C91.6629 52.975 91.0074 51.5224 90.1258 50.1375C89.3196 48.863 88.3078 47.6202 87.1178 46.4473C85.7566 45.0939 84.1396 43.8082 82.3056 42.6218C82.2233 42.3421 82.1388 42.0624 82.0566 41.7827C81.3257 39.3241 80.5698 36.782 79.7498 34.2828C79.6539 33.9896 79.5031 33.4437 79.3273 32.8099C78.7609 30.7596 77.8153 27.3288 76.5089 24.4078C74.6566 20.2643 72.5554 18.25 70.0841 18.25C68.8919 18.25 67.7317 18.7417 66.6377 19.7116C66.5098 19.8244 66.3978 19.9552 66.3065 20.0996C64.1299 23.5416 62.458 27.2702 61.3366 31.1859C60.4527 33.8994 59.5597 36.7144 58.6758 39.57C55.9396 39.5384 52.8997 39.5136 49.9443 39.4888C46.6006 39.4617 43.1564 39.4324 40.0959 39.394L39.9634 39.1797C38.1705 36.2813 36.3136 33.2836 34.0343 31.231C32.2482 29.6228 30.5261 28.8401 28.7675 28.8401C25.8988 28.8401 23.6697 30.9333 21.6872 33.1934C19.6065 35.5685 17.8205 38.1715 16.0915 40.6865C14.9519 42.3466 13.7756 44.0609 12.54 45.6646C9.08438 48.8021 6.96488 52.4179 6.40759 56.1351C6.30481 56.8073 6.25 57.5043 6.25 58.199C6.25 59.4802 6.43043 60.7659 6.78673 62.0177C7.19556 63.4703 7.84877 64.9094 8.73037 66.2898C9.81753 67.9996 11.2656 69.6439 13.0333 71.171C13.1338 71.2567 13.2275 71.3379 13.3234 71.4146C15.0409 72.8491 17.2244 74.2273 19.8167 75.5085C22.6259 76.8979 25.812 78.1363 29.2882 79.1874C29.4618 79.2393 29.6422 79.2663 29.8227 79.2663H29.8364C34.2307 79.237 38.9562 79.1761 43.9603 79.1107C51.4928 79.0137 59.2833 78.9145 66.4709 78.9145C68.394 78.9145 70.2212 78.9212 71.9022 78.937H71.9181C72.142 78.937 72.3635 78.8964 72.5714 78.8175C77.3814 76.9972 81.698 74.5363 85.0554 71.6988C86.0718 70.8416 87.0014 69.9462 87.8167 69.0439C88.9541 67.7876 89.9043 66.4793 90.642 65.1598C91.2678 64.0478 91.7474 62.9087 92.0694 61.7786C92.412 60.5944 92.5856 59.3877 92.5856 58.199C92.5856 56.9381 92.412 55.6772 92.0694 54.4479L92.074 54.4524ZM89.3698 54.2517C88.1342 54.2381 86.8072 54.1705 85.2861 54.0464C84.8727 53.3066 84.4844 52.5464 84.1167 51.775C85.5236 51.775 86.8849 51.775 88.1844 51.775C88.6732 52.587 89.0683 53.4149 89.3698 54.2539V54.2517ZM87.2731 50.4194C86.0741 50.4194 84.8202 50.4194 83.5412 50.4194C83.3173 49.7518 83.0981 49.0841 82.8834 48.4164C83.8335 48.3984 84.7037 48.3894 85.5236 48.3894C86.1746 49.0503 86.757 49.7269 87.2731 50.4194ZM84.087 47.045C83.5686 47.0518 83.0296 47.0608 82.4609 47.0721C82.285 46.5059 82.1114 45.942 81.9401 45.3759C82.7075 45.915 83.4224 46.4721 84.087 47.045ZM63.7393 31.9144L63.7462 31.8919C64.7945 28.222 66.3567 24.7258 68.3872 21.4958C69.1683 20.8282 69.8877 20.6003 70.5843 20.8033C73.6585 21.7011 76.0156 30.2408 76.904 33.4573C77.0959 34.1497 77.2466 34.6956 77.3608 35.0475C77.4202 35.2257 77.475 35.4061 77.5344 35.5866C76.0726 32.14 74.0651 28.416 71.434 27.3514C70.4952 26.9702 69.3921 26.5213 68.0971 27.5634C68.0469 27.604 67.976 27.613 67.9304 27.6604C65.7652 29.8844 64.0796 32.4716 62.9217 35.3542C62.6019 36.0557 62.2844 36.764 61.9693 37.47C62.5539 35.6114 63.1432 33.7573 63.7416 31.9167L63.7393 31.9144ZM43.7799 41.9045C48.8525 41.9789 54.1444 42.0579 59.0892 42.1256C58.653 43.5556 58.2213 44.9834 57.7988 46.409C57.68 46.7901 57.5589 47.2119 57.4356 47.6721C54.4916 47.5931 51.9656 47.4104 49.7433 47.1127C46.1483 46.63 43.4556 44.4082 40.7514 41.8639L43.7799 41.909V41.9045ZM57.0793 49.0142C57.0359 49.1788 56.9925 49.348 56.9491 49.5194C56.7915 49.9367 56.6271 50.3698 56.4535 50.8164C53.5552 50.8773 51.4174 50.7217 49.5674 50.3179C46.829 49.7202 44.6683 47.8164 42.7681 45.4052C44.7483 46.9165 46.9317 48.1007 49.556 48.4525C51.7463 48.7458 54.2175 48.9307 57.077 49.0164L57.0793 49.0142ZM13.0356 48.6262L13.0151 48.6082C14.8902 46.4112 16.5438 44.1173 18.1448 41.8932C19.8395 39.5361 21.5936 37.0978 23.592 34.8197C25.691 32.4242 27.139 31.4137 28.5848 31.328C29.7427 31.2603 30.9738 31.8287 32.3464 33.0648C34.3654 34.8828 36.051 37.6053 37.8348 40.4902C40.877 45.4075 44.022 50.4916 49.2751 51.6397C50.9698 52.0096 52.8723 52.1833 55.3047 52.1833C55.5034 52.1833 55.709 52.1833 55.9122 52.1788C55.3846 53.46 54.7908 54.775 54.117 55.9908C52.3927 56.0449 50.9104 55.9073 49.5994 55.5622C44.6638 54.2652 42.124 49.5352 39.4358 44.53C37.3962 40.7316 35.2859 36.8023 32.0061 34.5106C30.654 33.5655 29.2814 33.2114 27.9247 33.4573C24.983 33.9896 22.8132 37.1768 21.0706 39.7369C20.913 39.9692 20.7577 40.1948 20.6092 40.4113C20.0519 41.2166 19.4992 42.0331 18.9442 42.8541C16.2331 46.8556 12.7593 51.4818 9.04556 54.9284C9.47265 53.0359 10.5233 51.2788 13.0379 48.6307L13.0356 48.6262ZM8.76691 58.2012C8.76691 57.7682 8.77377 57.3599 8.79204 56.9674C13.0722 53.3359 17.0417 48.0894 20.0816 43.6007C20.6343 42.7842 21.1848 41.9699 21.7398 41.1692C21.8905 40.9504 22.0481 40.7203 22.2057 40.4857C23.8067 38.1354 25.796 35.2121 28.1714 34.7836C29.1626 34.6031 30.1584 34.8738 31.2136 35.6114C34.2261 37.7159 36.2588 41.5008 38.2253 45.1616C40.9341 50.2051 43.7342 55.4178 49.2477 56.8682C50.4604 57.1862 51.7943 57.3464 53.2925 57.3554C52.1483 59.0877 50.803 60.4478 49.2088 60.9238C46.4407 61.7516 42.5877 57.7862 38.8625 53.9517C35.4298 50.4194 32.1865 47.0811 29.2722 46.8127C24.7728 46.3954 21.187 50.2841 17.72 54.0419C14.9861 57.0035 12.17 60.0576 9.06611 60.7568C8.87198 59.9132 8.76691 59.0606 8.76691 58.2012ZM9.44525 62.0583C12.9283 61.2418 15.8746 58.0524 18.7341 54.9532C22.1257 51.2788 25.3256 47.8074 29.1466 48.1593C31.5539 48.3826 34.7674 51.6893 37.8759 54.8878C41.464 58.5802 45.1594 62.3831 48.4551 62.3831C48.8457 62.3831 49.2294 62.329 49.6085 62.2162C51.4265 61.6726 52.9111 60.2967 54.1536 58.5351C52.9248 61.4335 51.3329 63.8651 49.1837 64.6681C47.7334 65.2094 45.1297 64.9816 43.0376 64.7989C42.0692 64.7154 41.1556 64.6342 40.3996 64.6275C37.5515 64.6004 34.2398 64.5711 30.9875 64.5666C27.758 64.5643 24.4759 64.5869 21.3012 64.6094C17.8182 64.6342 14.2324 64.659 10.6831 64.65C10.1693 63.8019 9.75815 62.9358 9.44753 62.0561L9.44525 62.0583ZM70.8287 77.1303V77.1145L70.8356 77.1303H70.8287ZM70.6163 76.4716L70.6209 76.4852C61.7957 76.3679 52.5914 76.4964 43.6862 76.625C38.931 76.6927 34.0183 76.7626 29.2585 76.7942C26.9198 76.0859 24.7431 75.2626 22.7538 74.3469C24.6175 74.3694 26.4675 74.4078 28.2764 74.4461C31.0035 74.5047 33.6688 74.5634 36.3251 74.5634C40.6646 74.5634 44.9675 74.4078 49.4212 73.8506C54.2838 73.2416 57.3169 69.8289 60.2517 66.5289C61.1036 65.5703 61.9852 64.5801 62.8943 63.6778C64.5821 62.0042 66.4275 61.2057 68.5288 61.2441C73.5717 61.3275 79.0395 66.2786 82.9108 70.3093C79.6744 72.7837 75.4788 74.8927 70.6163 76.4716ZM84.8088 68.7191C84.5415 68.9672 84.2629 69.2108 83.9774 69.4544C79.928 65.2297 74.1313 59.9854 68.5516 59.8929C66.0895 59.8636 63.8604 60.8042 61.9236 62.726C60.9826 63.6575 60.0873 64.6658 59.2217 65.6402C56.3279 68.8928 53.5963 71.9672 49.2499 72.5108C42.1743 73.3972 35.4389 73.2506 28.3084 73.095C25.6293 73.0363 22.8566 72.9777 20.077 72.9777V72.9957C18.6473 72.2063 17.3386 71.3627 16.1578 70.474C18.5948 70.4244 20.8741 70.298 23.0896 70.1717C25.8897 70.0138 28.7857 69.8514 31.9627 69.8514C33.477 69.8514 35.2219 69.971 37.0673 70.0973C41.3155 70.3883 46.1323 70.7176 49.6314 69.6304C53.4478 68.4417 55.46 63.4613 56.9309 59.8253C57.1798 59.2095 57.4151 58.6276 57.6389 58.111L57.7873 57.7727C60.6035 51.2923 62.6362 46.612 66.4481 40.479L66.56 40.2963C67.1196 39.3895 68.8234 36.6287 70.0133 36.6129H70.0248C71.2672 36.6129 73.0122 39.4685 73.5854 40.409L73.7316 40.6481C77.0639 46.0435 79.8343 52.3254 82.5134 58.402C83.7856 61.2847 85.0965 64.2575 86.4327 67.041C85.9393 67.6116 85.4003 68.1733 84.8111 68.7214L84.8088 68.7191ZM87.3782 65.8477C86.1631 63.2854 84.9961 60.6395 83.7696 57.8584C81.0722 51.7412 78.2812 45.4142 74.901 39.9399L74.7571 39.7076C73.3456 37.3956 71.7948 35.2572 70.0225 35.2572C70.0133 35.2572 70.0019 35.2572 69.9928 35.2572C68.2821 35.2798 66.7678 37.3527 65.3883 39.588L65.2787 39.7662C61.4143 45.9849 59.3656 50.7036 56.5266 57.2358L56.3781 57.5742C56.1475 58.1065 55.9077 58.6975 55.6564 59.3223C54.2883 62.7079 52.4155 67.3432 49.218 68.3379C45.9656 69.3507 41.2881 69.0281 37.161 68.7462C35.2904 68.6176 33.5227 68.4958 31.9604 68.4958C28.7446 68.4958 25.828 68.6605 23.0096 68.8206C20.3214 68.9718 17.5441 69.1274 14.5156 69.1387C13.3851 68.1394 12.4098 67.0928 11.599 66.0101C14.8536 66.0147 18.1265 65.9921 21.3127 65.9673C24.4851 65.9447 27.7648 65.9199 30.9875 65.9244C34.233 65.9289 37.5401 65.9583 40.3859 65.9853C41.0871 65.9921 41.9756 66.0688 42.9143 66.1522C44.0996 66.256 45.3672 66.3665 46.5549 66.3665C47.7425 66.3665 48.8023 66.2605 49.6656 65.938C54.6172 64.0906 56.7984 55.6073 58.2441 49.9931L58.2624 49.9254C58.3104 49.7991 58.3583 49.6728 58.404 49.5465C58.7557 48.6104 59.0892 47.7262 59.393 47.0112C60.8958 43.2895 62.506 39.5497 64.1756 35.8956L64.187 35.8663C65.201 33.34 66.6422 31.0551 68.4762 29.0611C68.844 28.6619 69.3601 28.4092 69.906 28.4025C70.2417 28.398 70.5752 28.4656 70.9132 28.601C73.9783 29.8415 76.3787 36.2339 77.6691 39.6692C77.9432 40.3978 78.1785 41.0271 78.368 41.4624C78.9938 42.9105 79.5922 44.4308 80.1678 45.9014C80.8826 47.7217 81.6044 49.5623 82.4152 51.3555C83.9523 55.8441 85.7863 60.2696 88.3215 64.4019C88.0406 64.8891 87.7231 65.3695 87.3782 65.8455V65.8477ZM89.0501 62.9718C88.2575 61.623 87.5381 60.2403 86.8735 58.8328C87.6797 59.8072 88.5704 60.723 89.5708 61.5598C89.4269 62.0335 89.2556 62.5049 89.0501 62.9718ZM89.9202 60.0599C88.4288 58.7088 87.1955 57.1524 86.1312 55.4675C87.4604 55.5599 88.6504 55.605 89.7741 55.6073C89.9751 56.4644 90.0778 57.3306 90.0778 58.2012C90.0778 58.8238 90.0207 59.4418 89.918 60.0599H89.9202Z" fill="black"/>
</svg>
