<svg width="196" height="44" viewBox="0 0 196 44" fill="none" xmlns="http://www.w3.org/2000/svg">
<path d="M76 30.7439V14.4449H79.5295L86.0313 23.9216L83.6163 23.8983L90.1878 14.4449H93.6244V30.7439H89.793V25.5748C89.793 24.2243 89.824 22.9902 89.8859 21.8726C89.9633 20.7394 90.0871 19.6062 90.2574 18.473L90.6754 19.7304L85.5437 26.7855H84.0111L78.9258 19.7304L79.367 18.473C79.5373 19.5752 79.6534 20.685 79.7153 21.8027C79.7927 22.9048 79.8314 24.1622 79.8314 25.5748V30.7439H76Z" fill="black"/>
<path d="M97.7096 30.7439V18.3799H101.448V30.7439H97.7096ZM99.5672 15.8419C98.8706 15.8419 98.3288 15.6789 97.9418 15.3529C97.5548 15.0114 97.3613 14.5302 97.3613 13.9093C97.3613 13.3505 97.5548 12.8926 97.9418 12.5355C98.3443 12.1785 98.8861 12 99.5672 12C100.264 12 100.806 12.1708 101.193 12.5123C101.58 12.8382 101.773 13.3039 101.773 13.9093C101.773 14.4837 101.572 14.9493 101.169 15.3064C100.782 15.6634 100.248 15.8419 99.5672 15.8419Z" fill="black"/>
<path d="M105.598 30.7439V18.3799H109.128L109.244 21.2672L108.362 21.5233C108.563 20.9179 108.903 20.3591 109.383 19.8468C109.879 19.3346 110.475 18.9232 111.171 18.6127C111.883 18.2868 112.65 18.1238 113.47 18.1238C114.523 18.1238 115.413 18.3333 116.141 18.7525C116.868 19.1716 117.418 19.7692 117.789 20.5453C118.161 21.306 118.347 22.2141 118.347 23.2696V30.7439H114.608V23.8051C114.608 23.2618 114.507 22.8039 114.306 22.4314C114.12 22.0588 113.834 21.7717 113.447 21.5699C113.075 21.3681 112.642 21.2672 112.147 21.2672C111.713 21.2672 111.318 21.3448 110.962 21.5C110.622 21.6397 110.328 21.8337 110.08 22.0821C109.832 22.315 109.639 22.5788 109.499 22.8738C109.376 23.1687 109.314 23.4714 109.314 23.7819V30.7439H107.479C106.968 30.7439 106.558 30.7439 106.249 30.7439C105.939 30.7439 105.722 30.7439 105.598 30.7439Z" fill="black"/>
<path d="M126.867 31C125.66 31 124.599 30.7284 123.686 30.1851C122.773 29.6262 122.061 28.8656 121.55 27.9032C121.039 26.9252 120.783 25.8154 120.783 24.5735C120.783 23.3317 121.047 22.2296 121.573 21.2672C122.099 20.2892 122.827 19.5208 123.756 18.962C124.7 18.4032 125.784 18.1238 127.007 18.1238C127.688 18.1238 128.322 18.2169 128.911 18.4032C129.499 18.5739 130.025 18.8068 130.49 19.1017C130.969 19.3967 131.349 19.7382 131.627 20.1262C131.922 20.4988 132.092 20.8791 132.138 21.2672L131.256 21.4767V13.5135H134.994V30.7439H131.535L131.326 27.7402L132.069 27.9265C132.022 28.3145 131.852 28.6949 131.558 29.0674C131.264 29.4244 130.877 29.7504 130.397 30.0453C129.932 30.3248 129.398 30.5576 128.794 30.7439C128.191 30.9146 127.548 31 126.867 31ZM127.912 27.8566C128.609 27.8566 129.212 27.7169 129.723 27.4375C130.25 27.1581 130.652 26.7778 130.931 26.2966C131.209 25.7998 131.349 25.2255 131.349 24.5735C131.349 23.906 131.209 23.3317 130.931 22.8505C130.652 22.3538 130.25 21.9734 129.723 21.7096C129.212 21.4301 128.609 21.2904 127.912 21.2904C127.215 21.2904 126.612 21.4301 126.101 21.7096C125.59 21.9734 125.188 22.3538 124.893 22.8505C124.615 23.3317 124.475 23.906 124.475 24.5735C124.475 25.2255 124.615 25.7998 124.893 26.2966C125.188 26.7778 125.59 27.1581 126.101 27.4375C126.612 27.7169 127.215 27.8566 127.912 27.8566Z" fill="black"/>
<path d="M139.781 30.7439V14.9804H143.496V30.7439H139.781ZM137.041 21.6397V18.3799H146.631V21.6397H137.041Z" fill="black"/>
<path d="M149.347 30.7439V18.3799H152.876L153.039 22.6409L152.156 22.1985C152.357 21.4379 152.706 20.7549 153.201 20.1495C153.712 19.5286 154.292 19.0396 154.943 18.6826C155.608 18.31 156.313 18.1238 157.056 18.1238C157.458 18.1238 157.837 18.1626 158.194 18.2402C158.565 18.3178 158.882 18.4187 159.146 18.5429L158.124 22.6176C157.892 22.4469 157.574 22.315 157.172 22.2218C156.785 22.1287 156.39 22.0821 155.988 22.0821C155.539 22.0821 155.128 22.1597 154.757 22.315C154.401 22.4547 154.099 22.6565 153.851 22.9203C153.604 23.1687 153.41 23.4559 153.271 23.7819C153.147 24.1078 153.085 24.4571 153.085 24.8297V30.7439H149.347Z" fill="black"/>
<path d="M161.643 30.7439V18.3799H165.382V30.7439H161.643ZM163.501 15.8419C162.804 15.8419 162.262 15.6789 161.875 15.3529C161.488 15.0114 161.295 14.5302 161.295 13.9093C161.295 13.3505 161.488 12.8926 161.875 12.5355C162.278 12.1785 162.82 12 163.501 12C164.198 12 164.739 12.1708 165.126 12.5123C165.513 12.8382 165.707 13.3039 165.707 13.9093C165.707 14.4837 165.506 14.9493 165.103 15.3064C164.716 15.6634 164.182 15.8419 163.501 15.8419Z" fill="black"/>
<path d="M178.356 30.7439L174.942 26.2966L173.99 25.0392L168.58 18.3799H173.271L176.336 22.4547L177.357 23.8051L183 30.7439H178.356ZM168.278 30.7439L173.805 23.7586L176.057 26.0637L172.899 30.7439H168.278ZM177.334 25.3652L175.151 23.0368L178.263 18.3799H182.861L177.334 25.3652Z" fill="black"/>
<path d="M55.3502 25.2388C55.109 24.3721 54.7245 23.5199 54.2073 22.7074C53.7343 21.9597 53.1407 21.2306 52.4426 20.5425C51.644 19.7485 50.6953 18.9942 49.6194 18.2982C49.5711 18.1341 49.5216 17.97 49.4733 17.8059C49.0446 16.3635 48.601 14.8722 48.12 13.4059C48.0637 13.2339 47.9753 12.9137 47.8721 12.5418C47.5398 11.339 46.9851 9.32624 46.2187 7.61258C45.132 5.1817 43.8993 4 42.4495 4C41.75 4 41.0693 4.28848 40.4275 4.85749C40.3525 4.92366 40.2868 5.00041 40.2332 5.0851C38.9563 7.10444 37.9755 9.29184 37.3176 11.5891C36.799 13.181 36.2751 14.8325 35.7565 16.5077C34.1513 16.4892 32.3679 16.4747 30.634 16.4601C28.6724 16.4442 26.6518 16.427 24.8563 16.4045L24.7786 16.2788C23.7267 14.5784 22.6374 12.8197 21.3001 11.6155C20.2523 10.672 19.242 10.2128 18.2103 10.2128C16.5273 10.2128 15.2196 11.4409 14.0565 12.7668C12.8359 14.1602 11.788 15.6873 10.7737 17.1628C10.1051 18.1367 9.41504 19.1424 8.69014 20.0833C6.66284 21.924 5.4194 24.0452 5.09245 26.226C5.03216 26.6203 5 27.0292 5 27.4368C5 28.1884 5.10585 28.9427 5.31488 29.6771C5.55473 30.5293 5.93794 31.3736 6.45515 32.1834C7.09296 33.1865 7.94247 34.1512 8.97957 35.047C9.03852 35.0973 9.09346 35.145 9.14974 35.19C10.1574 36.0316 11.4383 36.8401 12.9591 37.5917C14.6072 38.4069 16.4764 39.1334 18.5158 39.75C18.6176 39.7805 18.7235 39.7963 18.8293 39.7963H18.8374C21.4154 39.7791 24.1877 39.7434 27.1234 39.705C31.5425 39.6481 36.113 39.5899 40.3297 39.5899C41.4579 39.5899 42.5299 39.5939 43.516 39.6031H43.5254C43.6567 39.6031 43.7867 39.5793 43.9086 39.533C46.7305 38.4651 49.263 37.0214 51.2326 35.3567C51.8289 34.8538 52.3743 34.3285 52.8526 33.7992C53.5199 33.0621 54.0773 32.2946 54.5101 31.5205C54.8772 30.8681 55.1586 30.1998 55.3475 29.5369C55.5485 28.8421 55.6504 28.1342 55.6504 27.4368C55.6504 26.6971 55.5485 25.9574 55.3475 25.2362L55.3502 25.2388ZM53.7638 25.121C53.0389 25.1131 52.2604 25.0734 51.368 25.0006C51.1254 24.5666 50.8977 24.1206 50.6819 23.6681C51.5073 23.6681 52.3059 23.6681 53.0683 23.6681C53.3551 24.1444 53.5869 24.6301 53.7638 25.1224V25.121ZM52.5337 22.8728C51.8302 22.8728 51.0946 22.8728 50.3443 22.8728C50.213 22.4811 50.0843 22.0894 49.9584 21.6977C50.5158 21.6871 51.0263 21.6818 51.5073 21.6818C51.8892 22.0695 52.2309 22.4665 52.5337 22.8728ZM50.6645 20.8931C50.3604 20.8971 50.0441 20.9024 49.7105 20.909C49.6073 20.5769 49.5055 20.246 49.405 19.9139C49.8552 20.2302 50.2746 20.557 50.6645 20.8931ZM38.7272 12.0165L38.7312 12.0033C39.3462 9.85027 40.2627 7.79917 41.4539 5.90421C41.9121 5.51252 42.3342 5.37887 42.7429 5.49796C44.5464 6.02463 45.9292 11.0346 46.4505 12.9216C46.563 13.3279 46.6515 13.6481 46.7184 13.8545C46.7533 13.9591 46.7854 14.0649 46.8203 14.1708C45.9627 12.1488 44.7849 9.96407 43.2414 9.33948C42.6906 9.11584 42.0435 8.85251 41.2837 9.46387C41.2542 9.48769 41.2127 9.49298 41.1859 9.52077C39.9157 10.8255 38.9268 12.3433 38.2475 14.0345C38.0599 14.4461 37.8736 14.8616 37.6887 15.2758C38.0317 14.1854 38.3774 13.0976 38.7285 12.0178L38.7272 12.0165ZM27.0176 17.8773C29.9935 17.921 33.0981 17.9673 35.9991 18.007C35.7432 18.846 35.4899 19.6836 35.242 20.52C35.1723 20.7436 35.1013 20.991 35.029 21.261C33.3018 21.2147 31.8199 21.1075 30.5161 20.9328C28.4071 20.6496 26.8273 19.3462 25.2408 17.8535L27.0176 17.88V17.8773ZM34.8199 22.0484C34.7945 22.145 34.769 22.2442 34.7436 22.3448C34.6511 22.5896 34.5546 22.8437 34.4528 23.1057C32.7524 23.1414 31.4983 23.0501 30.4129 22.8132C28.8064 22.4625 27.5388 21.3457 26.424 19.9311C27.5857 20.8177 28.8667 21.5124 30.4062 21.7189C31.6912 21.8909 33.141 21.9994 34.8186 22.0497L34.8199 22.0484ZM8.98091 21.8208L8.96885 21.8102C10.0689 20.5213 11.039 19.1755 11.9783 17.8707C12.9725 16.4879 14.0016 15.0574 15.174 13.7209C16.4054 12.3156 17.2549 11.7227 18.1031 11.6724C18.7824 11.6327 19.5046 11.9662 20.3099 12.6914C21.4944 13.7579 22.4833 15.3552 23.5298 17.0476C25.3145 19.9324 27.1596 22.9151 30.2414 23.5887C31.2357 23.8057 32.3518 23.9076 33.7788 23.9076C33.8954 23.9076 34.016 23.9076 34.1352 23.9049C33.8257 24.6566 33.4773 25.428 33.0821 26.1413C32.0704 26.1731 31.2008 26.0923 30.4317 25.8899C27.5361 25.129 26.0461 22.354 24.4691 19.4177C23.2725 17.1892 22.0344 14.8841 20.1103 13.5396C19.3171 12.9851 18.5118 12.7774 17.7159 12.9216C15.99 13.2339 14.7171 15.1037 13.6947 16.6057C13.6023 16.742 13.5112 16.8743 13.4241 17.0013C13.0971 17.4737 12.7729 17.9528 12.4473 18.4345C10.8568 20.782 8.81878 23.496 6.64006 25.518C6.89063 24.4078 7.50699 23.3769 8.98225 21.8234L8.98091 21.8208ZM6.47659 27.4381C6.47659 27.184 6.48061 26.9445 6.49133 26.7143C9.00234 24.5838 11.3311 21.5058 13.1146 18.8725C13.4388 18.3934 13.7617 17.9157 14.0873 17.446C14.1758 17.3176 14.2682 17.1826 14.3607 17.045C15.3 15.6661 16.467 13.9511 17.8606 13.6997C18.4421 13.5939 19.0263 13.7527 19.6453 14.1854C21.4127 15.42 22.6052 17.6405 23.7589 19.7882C25.348 22.7471 26.9908 25.8052 30.2254 26.6561C30.9369 26.8426 31.7194 26.9366 32.5984 26.9419C31.9271 27.9582 31.1378 28.7561 30.2026 29.0353C28.5786 29.521 26.3181 27.1946 24.1327 24.945C22.1188 22.8728 20.2161 20.9143 18.5064 20.7568C15.8668 20.512 13.7631 22.7934 11.7291 24.998C10.1252 26.7355 8.47308 28.5272 6.65212 28.9374C6.53823 28.4425 6.47659 27.9423 6.47659 27.4381ZM6.87455 29.7009C8.91793 29.2219 10.6464 27.3508 12.324 25.5326C14.3138 23.3769 16.191 21.3404 18.4327 21.5468C19.845 21.6778 21.7303 23.6178 23.5539 25.4942C25.6589 27.6604 27.8269 29.8915 29.7604 29.8915C29.9895 29.8915 30.2146 29.8597 30.4371 29.7936C31.5036 29.4747 32.3746 28.6675 33.1035 27.634C32.3826 29.3344 31.4487 30.7609 30.1878 31.232C29.337 31.5496 27.8095 31.4159 26.5821 31.3087C26.014 31.2598 25.478 31.2121 25.0345 31.2082C23.3636 31.1923 21.4207 31.1751 19.5127 31.1724C17.618 31.1711 15.6926 31.1844 13.8301 31.1976C11.7867 31.2121 9.68302 31.2267 7.60079 31.2214C7.2993 30.7239 7.05812 30.2157 6.87589 29.6996L6.87455 29.7009ZM42.8863 38.5432V38.5339L42.8903 38.5432H42.8863ZM42.7617 38.1568L42.7643 38.1647C37.5869 38.0959 32.187 38.1713 26.9626 38.2468C24.1729 38.2865 21.2908 38.3275 18.4984 38.346C17.1263 37.9305 15.8493 37.4475 14.6823 36.9102C15.7756 36.9235 16.861 36.946 17.9222 36.9685C19.5221 37.0029 21.0858 37.0373 22.6441 37.0373C25.1899 37.0373 27.7143 36.946 30.3272 36.6191C33.1799 36.2618 34.9593 34.2597 36.6811 32.3237C37.1809 31.7613 37.6981 31.1804 38.2314 30.6511C39.2216 29.6692 40.3042 29.2007 41.537 29.2232C44.4955 29.2722 47.7033 32.1768 49.9745 34.5415C48.0758 35.9932 45.6144 37.2305 42.7617 38.1568ZM51.0879 33.6086C50.9312 33.7542 50.7677 33.8971 50.6002 34.04C48.2245 31.5615 44.8238 28.4848 41.5504 28.4306C40.1059 28.4134 38.7982 28.9652 37.6619 30.0926C37.1099 30.6392 36.5846 31.2307 36.0768 31.8023C34.3791 33.7105 32.7766 35.5142 30.2267 35.8331C26.0756 36.3531 22.1242 36.2671 17.941 36.1758C16.3692 36.1414 14.7426 36.107 13.1119 36.107V36.1176C12.2731 35.6544 11.5053 35.1595 10.8126 34.6381C12.2423 34.609 13.5795 34.5349 14.8792 34.4608C16.522 34.3682 18.221 34.2729 20.0848 34.2729C20.9732 34.2729 21.9969 34.3431 23.0796 34.4172C25.5718 34.5879 28.3977 34.7811 30.4505 34.1432C32.6895 33.4459 33.8699 30.524 34.7329 28.3909C34.8789 28.0296 35.0169 27.6882 35.1482 27.3852L35.2353 27.1867C36.8874 23.3849 38.08 20.6391 40.3163 17.041L40.382 16.9338C40.7102 16.4019 41.7098 14.7822 42.4079 14.7729H42.4146C43.1435 14.7729 44.1672 16.4482 44.5036 17L44.5893 17.1403C46.5443 20.3056 48.1696 23.9909 49.7413 27.5559C50.4876 29.2471 51.2568 30.9912 52.0406 32.6241C51.7512 32.9589 51.435 33.2884 51.0893 33.6099L51.0879 33.6086ZM52.5953 31.9241C51.8825 30.4208 51.1978 28.8686 50.4783 27.237C48.8958 23.6482 47.2584 19.9364 45.2753 16.7248L45.1909 16.5885C44.3629 15.2321 43.4531 13.9776 42.4133 13.9776C42.4079 13.9776 42.4012 13.9776 42.3959 13.9776C41.3923 13.9908 40.5039 15.2069 39.6946 16.5183L39.6303 16.6229C37.3631 20.2712 36.1612 23.0395 34.4957 26.8718L34.4086 27.0702C34.2733 27.3825 34.1326 27.7292 33.9852 28.0958C33.1826 30.0821 32.0838 32.8014 30.2079 33.385C28.2999 33.9791 25.5557 33.7899 23.1345 33.6245C22.0371 33.5491 21 33.4776 20.0835 33.4776C18.1969 33.4776 16.4858 33.5742 14.8323 33.6682C13.2553 33.7568 11.6259 33.8481 9.84917 33.8548C9.18591 33.2685 8.61377 32.6545 8.1381 32.0194C10.0475 32.022 11.9676 32.0088 13.8368 31.9942C15.6979 31.981 17.6221 31.9664 19.5127 31.9691C21.4167 31.9717 23.3569 31.9889 25.0265 32.0048C25.4378 32.0088 25.959 32.0538 26.5098 32.1027C27.2052 32.1636 27.9488 32.2284 28.6456 32.2284C29.3423 32.2284 29.9641 32.1662 30.4706 31.977C33.3755 30.8932 34.6551 25.9163 35.5033 22.6227L35.514 22.583C35.5422 22.5089 35.5703 22.4348 35.5971 22.3607C35.8034 21.8115 35.9991 21.2928 36.1773 20.8733C37.059 18.6898 38.0036 16.4958 38.9831 14.3521L38.9898 14.3349C39.5847 12.8528 40.4302 11.5123 41.5062 10.3425C41.7219 10.1083 42.0247 9.9601 42.3449 9.95613C42.5419 9.95348 42.7375 9.99318 42.9358 10.0726C44.734 10.8004 46.1423 14.5506 46.8993 16.566C47.0601 16.9934 47.1981 17.3626 47.3094 17.618C47.6765 18.4675 48.0275 19.3594 48.3652 20.2222C48.7846 21.2901 49.208 22.3699 49.6837 23.4219C50.5855 26.0553 51.6614 28.6516 53.1487 31.0758C52.9839 31.3617 52.7977 31.6435 52.5953 31.9228V31.9241ZM53.5762 30.2369C53.1112 29.4456 52.6891 28.6344 52.2992 27.8086C52.7722 28.3803 53.2948 28.9176 53.8817 29.4085C53.7972 29.6864 53.6968 29.963 53.5762 30.2369ZM54.0867 28.5285C53.2117 27.7359 52.4881 26.8228 51.8637 25.8343C52.6436 25.8885 53.3417 25.915 54.0009 25.9163C54.1188 26.4192 54.1791 26.9273 54.1791 27.4381C54.1791 27.8033 54.1456 28.1659 54.0853 28.5285H54.0867Z" fill="black"/>
</svg>
