<svg width="200" height="200" viewBox="0 0 200 200" fill="none" xmlns="http://www.w3.org/2000/svg">
<rect width="200" height="200" rx="10" fill="white"/>
<path fill-rule="evenodd" clip-rule="evenodd" d="M191.667 5H8.33333C6.49239 5 5 6.49239 5 8.33334V191.667C5 193.508 6.49239 195 8.33334 195H191.667C193.508 195 195 193.508 195 191.667V8.33333C195 6.49239 193.508 5 191.667 5ZM8.33333 0C3.73096 0 0 3.73096 0 8.33334V191.667C0 196.269 3.73096 200 8.33334 200H191.667C196.269 200 200 196.269 200 191.667V8.33333C200 3.73096 196.269 0 191.667 0H8.33333Z" fill="black"/>
<path d="M13.3333 182.906V155.741H19.1058L29.7396 171.536L25.7899 171.497L36.5375 155.741H42.1582V182.906H35.8919V174.291C35.8919 172.04 35.9426 169.984 36.0438 168.121C36.1704 166.232 36.373 164.344 36.6515 162.455L37.3351 164.551L28.942 176.309H26.4355L18.1184 164.551L18.84 162.455C19.1185 164.292 19.3084 166.142 19.4097 168.005C19.5363 169.841 19.5995 171.937 19.5995 174.291V182.906H13.3333Z" fill="black"/>
<path d="M48.8396 182.906V162.3H54.954V182.906H48.8396ZM51.8778 158.07C50.7385 158.07 49.8523 157.798 49.2194 157.255C48.5864 156.686 48.2699 155.884 48.2699 154.849C48.2699 153.918 48.5864 153.154 49.2194 152.559C49.8777 151.964 50.7638 151.667 51.8778 151.667C53.0171 151.667 53.9033 151.951 54.5362 152.52C55.1692 153.064 55.4857 153.84 55.4857 154.849C55.4857 155.806 55.1565 156.582 54.4983 157.177C53.8653 157.772 52.9918 158.07 51.8778 158.07Z" fill="black"/>
<path d="M61.7419 182.906V162.3H67.5145L67.7044 167.112L66.2612 167.539C66.5903 166.53 67.1474 165.598 67.9322 164.745C68.7424 163.891 69.7172 163.205 70.8565 162.688C72.0211 162.145 73.2744 161.873 74.6163 161.873C76.3379 161.873 77.7937 162.222 78.9837 162.921C80.1737 163.619 81.0725 164.615 81.6801 165.909C82.2877 167.177 82.5916 168.69 82.5916 170.449V182.906H76.4772V171.342C76.4772 170.436 76.3126 169.673 75.9835 169.052C75.6796 168.431 75.2113 167.953 74.5783 167.616C73.9707 167.28 73.2617 167.112 72.4515 167.112C71.7426 167.112 71.097 167.241 70.5147 167.5C69.9577 167.733 69.4766 168.056 69.0715 168.47C68.6665 168.858 68.35 169.298 68.1221 169.79C67.9196 170.281 67.8183 170.786 67.8183 171.303V182.906H64.8181C63.9826 182.906 63.3116 182.906 62.8052 182.906C62.2989 182.906 61.9444 182.906 61.7419 182.906Z" fill="black"/>
<path d="M96.5273 183.333C94.5524 183.333 92.8181 182.881 91.3243 181.975C89.8305 181.044 88.6659 179.776 87.8304 178.172C86.9949 176.542 86.5771 174.692 86.5771 172.623C86.5771 170.553 87.0075 168.716 87.8684 167.112C88.7292 165.482 89.9192 164.201 91.4383 163.27C92.9827 162.339 94.755 161.873 96.7551 161.873C97.8691 161.873 98.9072 162.028 99.8693 162.339C100.831 162.623 101.692 163.011 102.452 163.503C103.237 163.994 103.857 164.564 104.313 165.21C104.794 165.831 105.072 166.465 105.148 167.112L103.705 167.461V154.189H109.819V182.906H104.161L103.819 177.9L105.034 178.211C104.958 178.858 104.68 179.491 104.199 180.112C103.718 180.707 103.085 181.251 102.3 181.742C101.54 182.208 100.667 182.596 99.6794 182.906C98.692 183.191 97.6413 183.333 96.5273 183.333ZM98.2362 178.094C99.3756 178.094 100.363 177.862 101.198 177.396C102.059 176.93 102.718 176.296 103.173 175.494C103.629 174.666 103.857 173.709 103.857 172.623C103.857 171.51 103.629 170.553 103.173 169.751C102.718 168.923 102.059 168.289 101.198 167.849C100.363 167.384 99.3756 167.151 98.2362 167.151C97.0969 167.151 96.1095 167.384 95.274 167.849C94.4385 168.289 93.7802 168.923 93.2992 169.751C92.8434 170.553 92.6156 171.51 92.6156 172.623C92.6156 173.709 92.8434 174.666 93.2992 175.494C93.7802 176.296 94.4385 176.93 95.274 177.396C96.1095 177.862 97.0969 178.094 98.2362 178.094Z" fill="black"/>
<path d="M117.648 182.906V156.634H123.724V182.906H117.648ZM113.166 167.733V162.3H128.851V167.733H113.166Z" fill="black"/>
<path d="M133.292 182.906V162.3H139.065L139.331 169.402L137.888 168.664C138.217 167.397 138.787 166.258 139.597 165.249C140.432 164.214 141.382 163.399 142.445 162.804C143.534 162.183 144.686 161.873 145.901 161.873C146.559 161.873 147.18 161.938 147.762 162.067C148.37 162.196 148.889 162.365 149.319 162.572L147.648 169.363C147.268 169.078 146.749 168.858 146.091 168.703C145.458 168.548 144.812 168.47 144.154 168.47C143.42 168.47 142.749 168.6 142.141 168.858C141.559 169.091 141.065 169.427 140.66 169.867C140.255 170.281 139.939 170.76 139.711 171.303C139.508 171.846 139.407 172.429 139.407 173.049V182.906H133.292Z" fill="black"/>
<path d="M153.404 182.906V162.3H159.518V182.906H153.404ZM156.442 158.07C155.303 158.07 154.417 157.798 153.784 157.255C153.151 156.686 152.834 155.884 152.834 154.849C152.834 153.918 153.151 153.154 153.784 152.559C154.442 151.964 155.328 151.667 156.442 151.667C157.582 151.667 158.468 151.951 159.101 152.52C159.734 153.064 160.05 153.84 160.05 154.849C160.05 155.806 159.721 156.582 159.063 157.177C158.43 157.772 157.556 158.07 156.442 158.07Z" fill="black"/>
<path d="M180.738 182.906L175.155 175.494L173.598 173.399L164.749 162.3H172.421L177.434 169.091L179.105 171.342L188.333 182.906H180.738ZM164.255 182.906L173.294 171.264L176.978 175.106L171.813 182.906H164.255ZM179.067 173.942L175.497 170.061L180.586 162.3H188.105L179.067 173.942Z" fill="black"/>
<path d="M170.957 84.0874C170.272 81.625 169.179 79.204 167.71 76.8958C166.366 74.7717 164.68 72.7004 162.696 70.7455C160.428 68.4899 157.733 66.3471 154.676 64.3697C154.539 63.9035 154.398 63.4373 154.261 62.9712C153.043 58.8735 151.783 54.6367 150.416 50.4714C150.257 49.9827 150.005 49.0729 149.712 48.0165C148.768 44.5993 147.192 38.8813 145.015 34.013C141.928 27.1071 138.426 23.75 134.307 23.75C132.32 23.75 130.386 24.5695 128.563 26.1861C128.35 26.374 128.163 26.5921 128.011 26.8327C124.383 32.5694 121.597 38.7836 119.728 45.3098C118.255 49.8323 116.766 54.5239 115.293 59.2833C110.733 59.2306 105.666 59.1893 100.741 59.1479C95.1677 59.1028 89.4273 59.054 84.3265 58.99L84.1057 58.6329C81.1176 53.8022 78.0228 48.806 74.2238 45.385C71.2471 42.7046 68.3769 41.4001 65.4459 41.4001C60.6648 41.4001 56.9496 44.8888 53.6454 48.6556C50.1776 52.6142 47.2009 56.9525 44.3193 61.1441C42.4198 63.911 40.4594 66.7681 38.4001 69.441C32.6407 74.6702 29.1082 80.6965 28.1794 86.8919C28.0081 88.0121 27.9167 89.1738 27.9167 90.3317C27.9167 92.467 28.2175 94.6098 28.8113 96.6962C29.4927 99.1172 30.5814 101.516 32.0507 103.816C33.8626 106.666 36.276 109.407 39.2223 111.952C39.3898 112.094 39.5459 112.23 39.7057 112.358C42.5683 114.749 46.2074 117.046 50.5279 119.181C55.21 121.497 60.5201 123.56 66.3138 125.312C66.6031 125.399 66.9038 125.444 67.2045 125.444H67.2273C74.5512 125.395 82.427 125.294 90.7673 125.184C103.321 125.023 116.306 124.857 128.285 124.857C131.49 124.857 134.535 124.869 137.337 124.895H137.364C137.737 124.895 138.106 124.827 138.452 124.696C146.469 121.662 153.663 117.561 159.259 112.831C160.953 111.403 162.502 109.91 163.861 108.407C165.757 106.313 167.34 104.132 168.57 101.933C169.613 100.08 170.412 98.1811 170.949 96.2977C171.52 94.3241 171.809 92.3128 171.809 90.3317C171.809 88.2302 171.52 86.1287 170.949 84.0799L170.957 84.0874ZM166.45 83.7528C164.39 83.7303 162.179 83.6175 159.644 83.4107C158.955 82.1776 158.307 80.9107 157.695 79.625C160.039 79.625 162.308 79.625 164.474 79.625C165.289 80.9784 165.947 82.3581 166.45 83.7566V83.7528ZM162.955 77.3657C160.957 77.3657 158.867 77.3657 156.735 77.3657C156.362 76.2529 155.997 75.1402 155.639 74.0274C157.223 73.9973 158.673 73.9823 160.039 73.9823C161.124 75.0838 162.095 76.2116 162.955 77.3657V77.3657ZM157.645 71.7417C156.781 71.753 155.883 71.768 154.935 71.7868C154.642 70.8432 154.352 69.9034 154.067 68.9598C155.346 69.8583 156.537 70.7868 157.645 71.7417V71.7417ZM123.732 46.5241L123.744 46.4865C125.491 40.37 128.095 34.5431 131.479 29.1597C132.781 28.0469 133.98 27.6672 135.141 28.0056C140.264 29.5018 144.193 43.7346 145.673 49.0955C145.993 50.2496 146.244 51.1593 146.435 51.7458C146.534 52.0428 146.625 52.3435 146.724 52.6443C144.288 46.9 140.942 40.6933 136.557 38.9189C134.992 38.2836 133.154 37.5355 130.995 39.2723C130.911 39.34 130.793 39.355 130.717 39.434C127.109 43.1407 124.299 47.4526 122.37 52.2571C121.837 53.4262 121.307 54.6067 120.782 55.7833C121.757 52.6856 122.739 49.5955 123.736 46.5278L123.732 46.5241ZM90.4665 63.1742C98.921 63.2982 107.741 63.4298 115.982 63.5426C115.255 65.926 114.536 68.3057 113.831 70.6816C113.633 71.3169 113.432 72.0199 113.226 72.7868C108.319 72.6552 104.109 72.3507 100.406 71.8545C94.414 71.05 89.926 67.3471 85.419 63.1065L90.4665 63.1817V63.1742ZM112.632 75.0236C112.56 75.2981 112.488 75.58 112.415 75.8657C112.153 76.5612 111.879 77.283 111.589 78.0273C106.759 78.1288 103.196 77.8694 100.112 77.1965C95.5483 76.2003 91.9473 73.0274 88.7802 69.0087C92.0805 71.5274 95.7196 73.5011 100.093 74.0875C103.744 74.5763 107.863 74.8845 112.628 75.0274L112.632 75.0236ZM39.2261 74.377L39.1918 74.3469C42.3171 70.6853 45.073 66.8621 47.7414 63.1554C50.5659 59.2269 53.4894 55.163 56.8201 51.3661C60.3184 47.3737 62.7318 45.6895 65.1413 45.5466C67.0713 45.4339 69.123 46.3812 71.4108 48.4413C74.7758 51.4714 77.5851 56.0089 80.558 60.8171C85.6284 69.0124 90.87 77.486 99.6252 79.3995C102.45 80.016 105.621 80.3055 109.675 80.3055C110.006 80.3055 110.348 80.3055 110.687 80.298C109.808 82.4333 108.818 84.625 107.695 86.6513C104.821 86.7415 102.351 86.5122 100.166 85.937C91.9397 83.7754 87.7068 75.892 83.2264 67.5501C79.8271 61.2193 76.3098 54.6706 70.8436 50.8511C68.5901 49.2759 66.3023 48.6857 64.0412 49.0955C59.1383 49.9827 55.5221 55.2946 52.6177 59.5615C52.355 59.9487 52.0962 60.3246 51.8487 60.6855C50.9199 62.0276 49.9987 63.3885 49.0737 64.7569C44.5553 71.4259 38.7655 79.1363 32.576 84.8806C33.2878 81.7265 35.0389 78.798 39.2299 74.3845L39.2261 74.377ZM32.1116 90.3354C32.1116 89.6136 32.123 88.9332 32.1535 88.279C39.287 82.2265 45.9029 73.4823 50.9694 66.0012C51.8906 64.6403 52.808 63.2832 53.733 61.9486C53.9842 61.584 54.2469 61.2005 54.5095 60.8096C57.178 56.8923 60.4935 52.0202 64.4523 51.306C66.1044 51.0052 67.7641 51.4563 69.5227 52.6856C74.5436 56.1931 77.9315 62.5013 81.2089 68.6027C85.7235 77.0086 90.3904 85.6964 99.5795 88.1136C101.601 88.6437 103.824 88.9106 106.321 88.9257C104.414 91.8128 102.172 94.0797 99.5148 94.8729C94.9012 96.2526 88.4795 89.6437 82.271 83.2528C76.5497 77.3657 71.1443 71.8019 66.2871 71.3545C58.7881 70.659 52.8118 77.1401 47.0334 83.4032C42.4769 88.3392 37.7834 93.4293 32.6103 94.5947C32.2867 93.1887 32.1116 91.7677 32.1116 90.3354V90.3354ZM33.2422 96.7639C39.0472 95.403 43.9577 90.0873 48.7235 84.922C54.3763 78.798 59.7093 73.0124 66.0778 73.5988C70.0899 73.971 75.4458 79.4822 80.6265 84.8129C86.6067 90.967 92.7657 97.3052 98.2586 97.3052C98.9095 97.3052 99.549 97.215 100.181 97.027C103.211 96.121 105.685 93.8278 107.756 90.8918C105.708 95.7225 103.055 99.7751 99.4729 101.113C97.0557 102.016 92.7162 101.636 89.2294 101.331C87.6154 101.192 86.0928 101.057 84.8328 101.046C80.086 101.001 74.5664 100.952 69.1459 100.944C63.7633 100.941 58.2933 100.978 53.0021 101.016C47.1971 101.057 41.2208 101.098 35.3053 101.083C34.4488 99.6698 33.7637 98.2263 33.246 96.7601L33.2422 96.7639ZM135.548 121.884V121.857L135.559 121.884H135.548ZM135.194 120.786L135.202 120.809C120.493 120.613 105.152 120.827 90.3105 121.042C82.3852 121.154 74.1972 121.271 66.2643 121.324C62.3663 120.143 58.7387 118.771 55.4231 117.245C58.5293 117.282 61.6126 117.346 64.6274 117.41C69.1725 117.508 73.6148 117.606 78.0418 117.606C85.2744 117.606 92.446 117.346 99.8688 116.418C107.973 115.403 113.028 109.715 117.92 104.215C119.339 102.617 120.809 100.967 122.324 99.4631C125.137 96.6737 128.213 95.3428 131.715 95.4068C140.12 95.5459 149.233 103.798 155.685 110.516C150.291 114.64 143.298 118.155 135.194 120.786V120.786ZM158.848 107.865C158.403 108.279 157.938 108.685 157.462 109.091C150.713 102.05 141.052 93.309 131.753 93.1549C127.649 93.106 123.934 94.6737 120.706 97.8766C119.138 99.4292 117.646 101.11 116.203 102.734C111.38 108.155 106.827 113.279 99.5833 114.185C87.7905 115.662 76.5649 115.418 64.6807 115.158C60.2156 115.061 55.5944 114.963 50.9618 114.963V114.993C48.5789 113.677 46.3977 112.271 44.4297 110.79C48.4913 110.707 52.2903 110.497 55.9827 110.286C60.6496 110.023 65.4763 109.752 70.7713 109.752C73.295 109.752 76.2033 109.952 79.279 110.162C86.3592 110.647 94.3873 111.196 100.219 109.384C106.58 107.403 109.933 99.1022 112.385 93.0421C112.8 92.0158 113.192 91.0459 113.565 90.185L113.812 89.6211C118.506 78.8206 121.894 71.0199 128.247 60.7983L128.433 60.4938C129.366 58.9825 132.206 54.3811 134.189 54.3548H134.208C136.279 54.3548 139.187 59.1141 140.142 60.6817L140.386 61.0802C145.94 70.0726 150.557 80.5423 155.022 90.67C157.143 95.4744 159.328 100.429 161.554 105.068C160.732 106.019 159.834 106.955 158.852 107.869L158.848 107.865ZM163.13 103.08C161.105 98.809 159.16 94.3993 157.116 89.764C152.62 79.5687 147.969 69.0237 142.335 59.8998L142.095 59.5126C139.743 55.6593 137.158 52.0954 134.204 52.0954C134.189 52.0954 134.17 52.0954 134.155 52.0954C131.304 52.133 128.78 55.5878 126.481 59.3133L126.298 59.6103C119.857 69.9748 116.443 77.8394 111.711 88.7264L111.464 89.2903C111.079 90.1775 110.679 91.1625 110.261 92.2038C107.981 97.8466 104.859 105.572 99.53 107.23C94.1094 108.918 86.3135 108.38 79.4351 107.91C76.3175 107.696 73.3712 107.493 70.7675 107.493C65.4078 107.493 60.5468 107.767 55.8495 108.034C51.3691 108.286 46.7403 108.546 41.6928 108.564C39.8085 106.899 38.1831 105.155 36.8318 103.35C42.2561 103.358 47.711 103.32 53.0212 103.279C58.3085 103.241 63.7748 103.2 69.1459 103.207C74.555 103.215 80.0669 103.264 84.8099 103.309C85.9786 103.32 87.4593 103.448 89.0238 103.587C90.9995 103.76 93.1121 103.944 95.0915 103.944C97.071 103.944 98.8372 103.768 100.276 103.23C108.529 100.151 112.164 86.0122 114.574 76.6552L114.604 76.5424C114.684 76.3319 114.764 76.1213 114.84 75.9108C115.426 74.3507 115.982 72.877 116.488 71.6853C118.993 65.4824 121.677 59.2494 124.459 53.1593L124.478 53.1104C126.168 48.9 128.57 45.0918 131.627 41.7685C132.24 41.1031 133.1 40.6821 134.01 40.6708C134.57 40.6633 135.125 40.776 135.689 41.0016C140.797 43.0692 144.798 53.7232 146.949 59.4487C147.405 60.6629 147.797 61.7118 148.113 62.4374C149.156 64.8509 150.154 67.3846 151.113 69.8357C152.304 72.8695 153.507 75.9371 154.859 78.9258C157.421 86.4069 160.477 93.7827 164.703 100.67C164.234 101.482 163.705 102.283 163.13 103.076V103.08ZM165.917 98.2864C164.596 96.0383 163.397 93.7339 162.289 91.388C163.633 93.0121 165.117 94.5383 166.785 95.9331C166.545 96.7225 166.259 97.5082 165.917 98.2864V98.2864ZM167.367 93.4331C164.881 91.1813 162.826 88.5873 161.052 85.7791C163.267 85.9332 165.251 86.0084 167.124 86.0122C167.459 87.4407 167.63 88.8843 167.63 90.3354C167.63 91.373 167.535 92.403 167.363 93.4331H167.367Z" fill="black"/>
</svg>
