<svg width="36" height="36" viewBox="0 0 36 36" fill="none" xmlns="http://www.w3.org/2000/svg">
<rect width="36" height="36" rx="5" fill="black"/>
<path d="M12.6974 16.9396C14.3969 15.2401 17.3609 15.2401 19.0604 16.9396L20.1209 18.0001L22.2419 15.8791L21.1814 14.8186C19.7669 13.4026 17.8829 12.6211 15.8789 12.6211C13.8749 12.6211 11.9909 13.4026 10.5764 14.8186L7.39335 18.0001C5.98979 19.4082 5.20166 21.3152 5.20166 23.3033C5.20166 25.2915 5.98979 27.1985 7.39335 28.6066C8.08916 29.3034 8.9158 29.8558 9.82578 30.2322C10.7358 30.6085 11.7111 30.8014 12.6959 30.7996C13.6808 30.8016 14.6565 30.609 15.5668 30.2326C16.477 29.8562 17.3039 29.3036 17.9999 28.6066L19.0604 27.5461L16.9394 25.4251L15.8789 26.4856C15.0336 27.3271 13.8894 27.7996 12.6966 27.7996C11.5038 27.7996 10.3596 27.3271 9.51435 26.4856C8.67211 25.6407 8.19916 24.4963 8.19916 23.3033C8.19916 22.1103 8.67211 20.966 9.51435 20.1211L12.6974 16.9396Z" fill="white"/>
<path d="M17.9998 7.39361L16.9393 8.45411L19.0603 10.5751L20.1208 9.51461C20.9661 8.6731 22.1103 8.20066 23.3031 8.20066C24.4958 8.20066 25.64 8.6731 26.4853 9.51461C27.3276 10.3595 27.8005 11.5039 27.8005 12.6969C27.8005 13.8899 27.3276 15.0342 26.4853 15.8791L23.3023 19.0606C21.6028 20.7601 18.6388 20.7601 16.9393 19.0606L15.8788 18.0001L13.7578 20.1211L14.8183 21.1816C16.2328 22.5976 18.1168 23.3791 20.1208 23.3791C22.1248 23.3791 24.0088 22.5976 25.4233 21.1816L28.6063 18.0001C30.0099 16.592 30.798 14.685 30.798 12.6969C30.798 10.7087 30.0099 8.80169 28.6063 7.39361C27.1986 5.98932 25.2914 5.20068 23.3031 5.20068C21.3147 5.20068 19.4075 5.98932 17.9998 7.39361Z" fill="white"/>
</svg>
