<svg width="36" height="36" viewBox="0 0 36 36" fill="none" xmlns="http://www.w3.org/2000/svg">
<path d="M18 3C9.71652 3 3 9.71652 3 18C3 26.2835 9.71652 33 18 33C26.2835 33 33 26.2835 33 18C33 9.71652 26.2835 3 18 3ZM22.8248 18.231L15.5123 23.5513C15.4722 23.5801 15.4249 23.5973 15.3757 23.601C15.3265 23.6047 15.2772 23.5948 15.2332 23.5723C15.1893 23.5498 15.1524 23.5156 15.1266 23.4736C15.1008 23.4315 15.0871 23.3831 15.0871 23.3337V12.6998C15.0869 12.6503 15.1004 12.6018 15.1262 12.5595C15.1519 12.5173 15.1888 12.483 15.2329 12.4605C15.2769 12.4379 15.3263 12.428 15.3756 12.4318C15.425 12.4357 15.4722 12.4531 15.5123 12.4821L22.8248 17.7991C22.8593 17.8235 22.8875 17.8559 22.907 17.8935C22.9264 17.9311 22.9366 17.9728 22.9366 18.0151C22.9366 18.0574 22.9264 18.0991 22.907 18.1367C22.8875 18.1742 22.8593 18.2066 22.8248 18.231Z" fill="#33347B"/>
</svg>
