<svg width="36" height="36" viewBox="0 0 36 36" fill="none" xmlns="http://www.w3.org/2000/svg">
<rect width="36" height="36" rx="5" fill="black"/>
<path d="M33 8.84684C31.8968 9.32792 30.7116 9.65297 29.4657 9.79989C30.7513 9.0429 31.713 7.85148 32.1716 6.44795C30.9638 7.15395 29.6419 7.6509 28.2634 7.91719C27.3364 6.94315 26.1085 6.29755 24.7704 6.0806C23.4324 5.86366 22.059 6.08752 20.8634 6.71742C19.6679 7.34732 18.7171 8.34803 18.1588 9.56417C17.6004 10.7803 17.4656 12.1439 17.7754 13.4431C15.328 13.3222 12.9339 12.6962 10.7483 11.6058C8.5627 10.5153 6.63451 8.98487 5.08888 7.11366C4.56038 8.0108 4.2565 9.05097 4.2565 10.1588C4.25591 11.156 4.50546 12.138 4.98302 13.0176C5.46057 13.8972 6.15136 14.6471 6.9941 15.201C6.01675 15.1704 5.06096 14.9105 4.20629 14.443V14.521C4.20619 15.9197 4.69783 17.2753 5.59779 18.3579C6.49775 19.4405 7.7506 20.1833 9.14375 20.4603C8.2371 20.7018 7.28654 20.7374 6.36387 20.5644C6.75693 21.7678 7.52259 22.8203 8.55364 23.5742C9.5847 24.3282 10.8295 24.7461 12.1139 24.7692C9.93363 26.4535 7.24102 27.3672 4.46922 27.3632C3.97822 27.3633 3.48764 27.3351 3 27.2786C5.81354 29.0589 9.08871 30.0037 12.4336 30C23.7566 30 29.9466 20.7711 29.9466 12.767C29.9466 12.5069 29.94 12.2443 29.9281 11.9843C31.1322 11.1274 32.1715 10.0663 32.9974 8.85074L33 8.84684Z" fill="white"/>
</svg>
