<svg width="36" height="36" viewBox="0 0 36 36" fill="none" xmlns="http://www.w3.org/2000/svg">
<path d="M8.76582 22.0625C8.67974 22.0624 8.5946 22.0802 8.51583 22.1149C8.43707 22.1496 8.3664 22.2003 8.30837 22.2639C8.25037 22.3275 8.20623 22.4024 8.17884 22.4841C8.15148 22.5657 8.14143 22.6521 8.14935 22.7378C8.38667 25.1858 9.52693 27.4577 11.348 29.1107C13.169 30.7638 15.5404 31.6796 17.9998 31.6796C20.4593 31.6796 22.8306 30.7638 24.6516 29.1107C26.4727 27.4577 27.613 25.1858 27.8502 22.7378C27.8582 22.6521 27.8482 22.5657 27.8208 22.4841C27.7934 22.4024 27.7493 22.3275 27.6912 22.2639C27.6332 22.2003 27.5626 22.1496 27.4838 22.1149C27.405 22.0802 27.3199 22.0624 27.2338 22.0625H8.76582Z" fill="#ADD3F0"/>
<path d="M8.76601 4.52637C11.0468 4.52637 13.234 5.43238 14.8468 7.04507C16.4595 8.6578 17.3655 10.8451 17.3655 13.1258V20.0959C17.3655 20.2596 17.3004 20.4167 17.1846 20.5324C17.0689 20.6482 16.9118 20.7132 16.7481 20.7132H8.76601C8.60228 20.7132 8.44529 20.6482 8.32951 20.5324C8.21373 20.4167 8.14868 20.2596 8.14868 20.0959V5.1437C8.14868 4.97997 8.21373 4.82297 8.32951 4.7072C8.44529 4.59142 8.60228 4.52637 8.76601 4.52637Z" fill="#1C2D66"/>
<path d="M19.3297 11.9482H19.7361C20.8021 11.9482 21.8575 12.1582 22.8424 12.5661C23.8271 12.974 24.7219 13.5719 25.4757 14.3256C26.2294 15.0794 26.8273 15.9742 27.2352 16.959C27.6431 17.9438 27.8531 18.9993 27.8531 20.0652V20.0951C27.8531 20.2588 27.788 20.4158 27.6723 20.5316C27.5565 20.6474 27.3995 20.7124 27.2358 20.7124H22.6744C21.6234 20.7124 20.6154 20.2949 19.8722 19.5517C19.129 18.8085 18.7114 17.8005 18.7114 16.7495V12.562C18.7124 12.3987 18.778 12.2425 18.8938 12.1275C19.0097 12.0124 19.1664 11.948 19.3297 11.9482Z" fill="#347EB8"/>
</svg>
