<svg width="25" height="24" viewBox="0 0 25 24" fill="none" xmlns="http://www.w3.org/2000/svg">
<path d="M13.0454 3.5C13.0454 3.10218 12.8874 2.72064 12.6061 2.43934C12.3248 2.15804 11.9432 2 11.5454 2C11.1476 2 10.7661 2.15804 10.4847 2.43934C10.2034 2.72064 10.0454 3.10218 10.0454 3.5V10H3.54541C3.14759 10 2.76605 10.158 2.48475 10.4393C2.20345 10.7206 2.04541 11.1022 2.04541 11.5C2.04541 11.8978 2.20345 12.2794 2.48475 12.5607C2.76605 12.842 3.14759 13 3.54541 13H10.0454V19.5C10.0454 19.8978 10.2034 20.2794 10.4847 20.5607C10.7661 20.842 11.1476 21 11.5454 21C11.9432 21 12.3248 20.842 12.6061 20.5607C12.8874 20.2794 13.0454 19.8978 13.0454 19.5V13H19.5454C19.9432 13 20.3248 12.842 20.6061 12.5607C20.8874 12.2794 21.0454 11.8978 21.0454 11.5C21.0454 11.1022 20.8874 10.7206 20.6061 10.4393C20.3248 10.158 19.9432 10 19.5454 10H13.0454V3.5Z" fill="#33347B"/>
</svg>
