<svg width="220" height="60" viewBox="0 0 220 60" fill="none" xmlns="http://www.w3.org/2000/svg">
<path d="M14.3106 23.4136C16.7864 23.4136 18.7934 21.4066 18.7934 18.9309C18.7934 16.4551 16.7864 14.4481 14.3106 14.4481C11.8349 14.4481 9.82788 16.4551 9.82788 18.9309C9.82788 21.4066 11.8349 23.4136 14.3106 23.4136Z" fill="white"/>
<path d="M132.586 44.1033C135.062 44.1033 137.069 42.0963 137.069 39.6205C137.069 37.1448 135.062 35.1378 132.586 35.1378C130.11 35.1378 128.103 37.1448 128.103 39.6205C128.103 42.0963 130.11 44.1033 132.586 44.1033Z" fill="white"/>
<path d="M173.483 44.9656C175.959 44.9656 177.966 42.9586 177.966 40.4828C177.966 38.0071 175.959 36.0001 173.483 36.0001C171.007 36.0001 169 38.0071 169 40.4828C169 42.9586 171.007 44.9656 173.483 44.9656Z" fill="white"/>
<path d="M11.3358 19.5184C11.3358 18.0796 12.5022 16.9132 13.941 16.9132C15.3799 16.9132 16.5462 18.0796 16.5462 19.5184V19.7215C16.5462 21.1603 15.3799 22.3267 13.941 22.3267C12.5022 22.3267 11.3358 21.1603 11.3358 19.7215V19.5184ZM12.0842 12.7073C9.32276 12.7073 7.08418 14.9459 7.08418 17.7073V21.4909C7.08418 24.2524 9.32276 26.4909 12.0842 26.4909H16.0897C18.8511 26.4909 21.0897 24.2524 21.0897 21.4909V17.7073C21.0897 14.9459 18.8511 12.7073 16.0897 12.7073H12.0842ZM14.6288 24.8669C13.4317 24.8669 12.4613 25.8373 12.4613 27.0344V41.3135C12.4613 42.5106 13.4317 43.481 14.6288 43.481C15.8259 43.481 16.7963 42.5106 16.7963 41.3135V27.0344C16.7963 25.8373 15.8259 24.8669 14.6288 24.8669ZM8.83488 29.5308C7.72987 29.5308 6.83408 30.4266 6.83408 31.5316V42.6878C6.83408 43.7928 7.72987 44.6886 8.83488 44.6886C9.93988 44.6886 10.8356 43.7928 10.8356 42.6878V31.5316C10.8356 30.4266 9.93988 29.5308 8.83488 29.5308ZM7.35559 43.5727C6.06919 43.8762 5.26353 45.1681 5.58172 46.4509C5.90132 47.7395 7.22721 48.5046 8.50339 48.1387C12.0113 47.1329 16.0661 45.9824 20.0241 44.8125C21.065 44.5049 21.7145 43.4727 21.5461 42.4004C21.3466 41.1296 20.0918 40.3104 18.848 40.6388C14.7689 41.7157 10.6535 42.7946 7.35559 43.5727ZM16.6275 30.9467C15.4316 30.9467 14.4621 31.9162 14.4621 33.1121C14.4621 34.308 15.4316 35.2775 16.6275 35.2775H18.5909C19.7868 35.2775 20.7563 34.308 20.7563 33.1121C20.7563 31.9162 19.7868 30.9467 18.5909 30.9467H16.6275ZM28.6323 15.6223C27.4363 15.6223 26.4669 16.5918 26.4669 17.7877C26.4669 18.9836 27.4363 19.9531 28.6323 19.9531H37.2649C38.4608 19.9531 39.4303 18.9836 39.4303 17.7877C39.4303 16.5918 38.4608 15.6223 37.2649 15.6223H28.6323ZM38.7625 15.6223C38.2565 15.6223 37.8464 16.0325 37.8464 16.5384C37.8464 29.6558 37.8464 34.2364 37.2211 35.1942C36.9293 35.6939 36.5542 35.8188 35.9706 35.8188C35.7722 35.8188 35.5243 35.8159 35.2368 35.8093C33.9264 35.7793 32.9787 37.3592 33.2703 38.6371C33.459 39.4641 34.1242 40.0572 34.9723 40.0711C36.3188 40.0932 37.5428 40.0526 38.4299 39.8998C39.7221 39.6499 40.5975 39.2751 41.4311 38.0259C42.4315 36.4851 42.4732 31.5713 42.5149 17.6628C42.5149 16.5358 41.6013 15.6223 40.4744 15.6223H38.7625ZM28.306 11.7648C27.1417 11.4546 25.949 12.1285 25.5187 13.254C24.4955 15.9305 23.0764 18.5003 21.4324 20.5418C20.6897 21.4641 20.7268 22.8839 21.5085 23.7734C22.3657 24.749 23.903 24.8298 24.7016 23.8057C26.6962 21.2483 28.4635 17.9732 29.7883 14.5999C30.2578 13.4047 29.5469 12.0954 28.306 11.7648ZM25.2372 23.2428C24.0286 23.2428 23.0488 24.2226 23.0488 25.4312V43.3561C23.0488 48.3532 24.5077 49.6857 29.8849 49.6857C31.0937 49.6857 37.1794 49.6857 38.4299 49.6857C42.4414 49.6857 43.9239 48.3719 44.6062 44.1689C44.7452 43.3124 44.1777 42.5235 43.3597 42.2339C42.1439 41.8034 40.6843 42.6074 40.3767 43.86C40.0409 45.2279 39.4207 45.5631 38.0548 45.5631C36.7209 45.5631 31.4272 45.5631 30.3017 45.5631C27.8007 45.5631 27.4256 45.2716 27.4256 43.3144V25.4312C27.4256 24.2226 26.4458 23.2428 25.2372 23.2428ZM26.1314 23.2428C25.0275 23.2428 24.1326 24.1377 24.1326 25.2417C24.1326 26.3456 25.0275 27.2405 26.1314 27.2405H28.4495C29.9559 27.2405 31.1771 28.4617 31.1771 29.9681C31.1771 31.4745 29.9559 32.6956 28.4495 32.6956H26.1314C25.0275 32.6956 24.1326 33.5906 24.1326 34.6945C24.1326 35.7984 25.0275 36.6933 26.1314 36.6933H30.3454C33.1068 36.6933 35.3454 34.4547 35.3454 31.6933V28.2428C35.3454 25.4814 33.1068 23.2428 30.3454 23.2428H26.1314Z" stroke="white" stroke-width="10"/>
<path d="M50.8284 17.288C49.5749 17.288 48.5588 18.3041 48.5588 19.5575C48.5588 20.8109 49.5749 21.827 50.8284 21.827H84.2211C85.4745 21.827 86.4906 20.8109 86.4906 19.5575C86.4906 18.3041 85.4745 17.288 84.2211 17.288H50.8284ZM55.3097 31.488C54.2978 31.488 53.4775 32.3084 53.4775 33.3203C53.4775 34.3322 54.2978 35.1525 55.3097 35.1525H62.4828C63.4948 35.1525 64.3151 34.3322 64.3151 33.3203C64.3151 32.3084 63.4948 31.488 62.4828 31.488H55.3097ZM55.3305 37.8593C54.3071 37.8593 53.4775 38.6889 53.4775 39.7124C53.4775 40.7358 54.3071 41.5655 55.3306 41.5655H62.462C63.4855 41.5655 64.3151 40.7358 64.3151 39.7124C64.3151 38.6889 63.4855 37.8593 62.462 37.8593H55.3305ZM73.2561 25.1167C71.9785 25.1167 70.9427 26.1525 70.9427 27.4302V39.8767C70.9427 41.1543 71.9785 42.1901 73.2561 42.1901C74.5338 42.1901 75.5696 41.1543 75.5696 39.8767V27.4302C75.5696 26.1525 74.5338 25.1167 73.2561 25.1167ZM64.982 24.7003C63.6468 24.7003 62.5644 25.7827 62.5644 27.1179V45.23C62.5644 45.7297 62.3977 45.8963 61.8558 45.8963C61.7211 45.9075 61.4986 45.9157 61.2153 45.92C59.8507 45.941 58.9095 47.4869 59.3316 48.7847C59.5896 49.5779 60.289 50.1073 61.1229 50.0925C62.9988 50.0591 64.4579 49.9145 65.5656 49.3109C66.9828 48.603 67.3997 47.437 67.3997 45.3133V27.1179C67.3997 25.7827 66.3173 24.7003 64.982 24.7003ZM81.7804 23.9924C80.4221 23.9924 79.3211 25.0935 79.3211 26.4517V44.6886C79.3211 45.2716 79.1126 45.4382 78.4457 45.4382C78.1544 45.4553 77.6165 45.4654 76.9363 45.4627C75.4171 45.4565 74.3641 47.2269 74.8218 48.6755C75.0989 49.5525 75.8564 50.1172 76.776 50.1023C79.0656 50.0652 80.8142 49.8426 82.1138 49.2276C83.7812 48.4781 84.2397 47.1872 84.2397 44.7719V26.4517C84.2397 25.0935 83.1386 23.9924 81.7804 23.9924ZM57.6025 11.5953C56.0272 12.1474 55.4924 14.1374 56.403 15.5364C56.5147 15.7079 56.6231 15.8789 56.7276 16.0484C57.4673 17.2475 58.9515 17.9127 60.2791 17.4413C61.7128 16.9323 62.3725 15.3189 61.4933 14.0773C61.0575 13.4618 60.5745 12.8382 60.0826 12.2473C59.4815 11.5252 58.4891 11.2845 57.6025 11.5953ZM77.9081 11.6583C76.652 11.2848 75.3193 11.9269 74.73 13.0973C74.3088 13.9337 73.836 14.7972 73.3498 15.6214C72.5599 16.9608 73.1389 18.7549 74.6101 19.2584C75.5354 19.5751 76.5623 19.2776 77.1451 18.4923C77.8249 17.5761 78.5532 16.5415 79.2913 15.453C80.2429 14.0494 79.5334 12.1417 77.9081 11.6583ZM55.8514 24.7003C53.09 24.7003 50.8514 26.9389 50.8514 29.7003V47.6221C50.8514 48.9228 51.9058 49.9772 53.2065 49.9772C54.5072 49.9772 55.5616 48.9228 55.5616 47.6221V33.0746C55.5616 30.7494 57.4465 28.8646 59.7716 28.8646H61.8995C63.0494 28.8646 63.9816 27.9324 63.9816 26.7824C63.9816 25.6325 63.0494 24.7003 61.8995 24.7003H55.8514Z" stroke="white" stroke-width="10"/>
<path d="M107.08 22.5349C105.999 22.5349 105.123 23.4112 105.123 24.4921C105.123 25.573 105.999 26.4493 107.08 26.4493H126.217C127.298 26.4493 128.174 25.573 128.174 24.4921C128.174 23.4112 127.298 22.5349 126.217 22.5349H107.08ZM105.934 28.3648C104.818 28.3648 103.914 29.2691 103.914 30.3845C103.914 31.4999 104.818 32.4042 105.934 32.4042H127.071C128.187 32.4042 129.091 31.4999 129.091 30.3845C129.091 29.2691 128.187 28.3648 127.071 28.3648H105.934ZM111.145 34.0698C110.144 34.0698 109.333 34.8809 109.333 35.8813C109.333 36.8817 110.144 37.6927 111.145 37.6927H121.611C122.611 37.6927 123.422 36.8817 123.422 35.8813C123.422 34.8809 122.611 34.0698 121.611 34.0698H111.145ZM108.307 17.4497C107.163 17.7635 106.544 19.0014 106.926 20.1237C107.027 20.4199 107.125 20.7161 107.219 21.0059C107.58 22.124 108.772 22.7828 109.894 22.4327C110.969 22.0971 111.565 20.9612 111.162 19.9095C110.994 19.4711 110.814 19.017 110.631 18.5714C110.256 17.6605 109.257 17.1891 108.307 17.4497ZM115.503 16.9297C114.367 17.1249 113.625 18.2288 113.827 19.363C113.882 19.6718 113.935 19.9804 113.984 20.2827C114.181 21.4999 115.352 22.3523 116.558 22.0966C117.61 21.8738 118.308 20.881 118.085 19.8293C117.986 19.3595 117.873 18.8677 117.755 18.3806C117.511 17.3763 116.521 16.7546 115.503 16.9297ZM126.214 12.3713C125.73 11.7369 124.928 11.4391 124.143 11.5792C119.504 12.4067 112.893 12.9566 106.756 13.2064C105.606 13.2532 104.848 14.5044 105.139 15.6173C105.348 16.4128 106.039 16.9903 106.861 16.9739C112.784 16.8554 119.472 16.4068 124.964 15.57C126.475 15.3399 127.14 13.5865 126.214 12.3713ZM114.348 38.2005C113.782 37.4437 112.822 37.0456 111.915 37.3101C110.653 37.6777 110.051 39.1232 110.799 40.2039C114.152 45.047 119.125 48.3245 125.742 49.9895C126.557 50.1944 127.352 49.8537 127.796 49.1413C128.597 47.8583 127.947 45.8366 126.482 45.4603C121.122 44.0831 116.898 41.6054 114.348 38.2005ZM124.96 16.3866C123.883 16.0736 122.749 16.6494 122.294 17.6746C121.819 18.7434 121.26 19.8758 120.692 20.9207C120.117 21.979 120.586 23.3375 121.72 23.7422C122.486 24.0154 123.343 23.7651 123.813 23.1012C124.559 22.0457 125.367 20.8095 126.171 19.5308C126.918 18.3431 126.308 16.7782 124.96 16.3866ZM123.008 34.0698C122.684 34.0698 122.422 34.3326 122.422 34.6567C122.422 34.7094 122.414 34.7626 122.4 34.8134C120.749 40.7021 116.601 44.038 110.802 45.8182C109.501 46.2176 108.996 48.0756 109.74 49.2157C110.176 49.8853 110.934 50.1743 111.701 49.9485C118.335 47.9945 123.535 44.2165 126.157 37.1533C126.6 35.962 125.948 34.6712 124.768 34.1996L124.71 34.1764C124.331 34.0249 123.918 33.9785 123.514 34.0421L123.404 34.0595C123.361 34.0664 123.316 34.0698 123.272 34.0698H123.008ZM112.01 24.9918C110.759 24.9918 109.725 25.9563 109.619 27.2026C109.103 33.2848 108.018 40.2276 102.624 44.8891C101.604 45.7703 101.551 47.5348 102.415 48.5689C103.11 49.4002 104.311 49.6497 105.158 48.9749C111.979 43.5439 113.649 35.2205 114.371 27.5582C114.501 26.1743 113.4 24.9918 112.01 24.9918ZM96.5132 14.373C95.3058 14.373 94.327 15.3518 94.327 16.5593C94.327 17.7667 95.3058 18.7455 96.5132 18.7455H96.8072C98.1769 18.7455 99.2873 19.8559 99.2873 21.2256V35.629C99.2873 36.9987 98.1769 38.1091 96.8072 38.1091H96.5132C95.3058 38.1091 94.327 39.088 94.327 40.2954C94.327 41.5028 95.3058 42.4816 96.5132 42.4816H99.0164C101.606 42.4816 103.706 40.3821 103.706 37.7922V19.0624C103.706 16.4725 101.606 14.373 99.0164 14.373H96.5132ZM96.6591 26.1162C95.4632 26.1162 94.4937 27.0856 94.4937 28.2816C94.4937 29.4775 95.4632 30.447 96.6591 30.447H99.3311C100.527 30.447 101.497 29.4775 101.497 28.2816C101.497 27.0856 100.527 26.1162 99.3311 26.1162H96.6591ZM94.0352 14.373C92.8381 14.373 91.8677 15.3435 91.8677 16.5406V43.5205C91.8677 44.7176 92.8381 45.688 94.0352 45.688C95.2323 45.688 96.2028 44.7176 96.2028 43.5205V16.5406C96.2028 15.3435 95.2323 14.373 94.0352 14.373Z" stroke="white" stroke-width="10"/>
<path d="M135.217 12.9155C134.527 12.9155 133.968 13.4749 133.968 14.1648C133.968 14.8548 134.527 15.4141 135.217 15.4141H151.268C151.958 15.4141 152.517 14.8548 152.517 14.1648C152.517 13.4749 151.958 12.9155 151.268 12.9155H135.217ZM136.447 16.5801C135.768 16.5801 135.218 17.1301 135.218 17.8085C135.218 18.487 135.768 19.037 136.447 19.037H150.163C150.841 19.037 151.391 18.487 151.391 17.8085C151.391 17.1301 150.841 16.5801 150.163 16.5801H136.447ZM139.01 20.1197C138.343 20.1197 137.803 20.6603 137.803 21.3273C137.803 21.9942 138.343 22.5349 139.01 22.5349H146.62C147.183 22.5349 147.64 22.9917 147.64 23.5552C147.64 24.1186 147.183 24.5754 146.62 24.5754H138.802C138.135 24.5754 137.594 25.1161 137.594 25.783C137.594 26.45 138.135 26.9906 138.802 26.9906H148.039C149.937 26.9906 151.475 25.4525 151.475 23.5552C151.475 21.6578 149.937 20.1197 148.039 20.1197H139.01ZM137.532 20.1197C136.484 20.1197 135.635 20.9688 135.635 22.0163V22.8264C135.635 24.017 135.525 25.4284 134.813 26.7915C134.259 27.854 134.512 29.4288 135.521 30.0751C136.217 30.5205 137.106 30.4522 137.592 29.7841C139.101 27.7073 139.428 25.0558 139.428 22.9097V22.0163C139.428 20.9688 138.579 20.1197 137.532 20.1197ZM143.347 11.1249C142.103 11.1249 141.096 12.1327 141.096 13.3758V15.5784C141.096 16.8216 142.103 17.8293 143.347 17.8293C144.59 17.8293 145.597 16.8216 145.597 15.5784V13.3758C145.597 12.1327 144.59 11.1249 143.347 11.1249ZM143.388 21.0774C142.421 21.0774 141.638 21.8613 141.638 22.8281V23.949C141.638 24.9159 142.421 25.6997 143.388 25.6997C144.355 25.6997 145.139 24.9159 145.139 23.949V22.8281C145.139 21.8613 144.355 21.0774 143.388 21.0774ZM154.725 19.62C153.989 19.62 153.392 20.2166 153.392 20.9525C153.392 21.6885 153.989 22.2851 154.725 22.2851H165.273C166.009 22.2851 166.606 21.6885 166.606 20.9525C166.606 20.2166 166.009 19.62 165.273 19.62H154.725ZM159.06 12.0411C158.163 12.0411 157.436 12.7682 157.436 13.6651C157.436 14.562 158.163 15.2892 159.06 15.2892H163.231C164.128 15.2892 164.855 14.562 164.855 13.6651C164.855 12.7682 164.128 12.0411 163.231 12.0411H159.06ZM165.73 19.62C165.523 19.62 165.355 19.7876 165.355 19.9944C165.355 20.0495 165.343 20.1041 165.319 20.1536C163.656 23.5994 159.625 25.6053 154.531 26.5288C153.402 26.7335 152.824 28.2086 153.351 29.2288C153.663 29.8339 154.294 30.1615 154.963 30.0344C160.937 28.8987 165.803 26.7071 168.499 22.3045C169.114 21.3007 168.542 20.0461 167.428 19.6633C167.107 19.5529 166.764 19.5242 166.429 19.58L166.252 19.6095C166.21 19.6165 166.168 19.62 166.125 19.62H165.73ZM159.119 22.5936C158.619 22.112 157.916 21.8606 157.246 22.0404C156.109 22.3451 155.612 23.6761 156.424 24.5288C159.157 27.4019 163.248 29.2422 168.448 30.0908C169.038 30.1869 169.585 29.9218 169.889 29.4075C170.494 28.3818 169.888 26.7317 168.713 26.5432C164.553 25.8764 161.167 24.5653 159.119 22.5936ZM157.206 12.0411C156.159 12.0411 155.31 12.8902 155.31 13.9376V14.1232C155.31 15.0463 155.115 15.8986 154.09 16.6916C153.173 17.4003 152.886 19.0241 153.618 19.9215C154.072 20.4771 154.808 20.668 155.434 20.3184C158.368 18.6797 159.103 16.4472 159.103 14.2481V13.9376C159.103 12.8902 158.254 12.0411 157.206 12.0411ZM164.73 12.0411C163.671 12.0411 162.813 12.8995 162.813 13.9585V14.7062C162.813 16.7883 163.063 17.5795 163.646 18.2041C164.23 18.7871 165.272 19.037 166.147 19.037C166.647 19.037 167.439 19.037 167.981 19.037C168.523 19.037 169.315 18.9537 169.815 18.7455C170.357 18.5373 170.774 18.1625 171.066 17.6211C171.281 17.284 171.428 16.5632 171.524 15.7578C171.585 15.2452 171.246 14.7769 170.771 14.5756C170.636 14.5187 170.5 14.4572 170.365 14.3923C169.686 14.0669 168.829 14.5845 168.565 15.2892C168.557 15.3164 168.549 15.3426 168.541 15.3677C168.44 15.6917 168.112 15.8722 167.773 15.8722C167.565 15.8722 167.273 15.8722 167.106 15.8722C166.939 15.8722 166.814 15.8305 166.731 15.7056C166.647 15.5807 166.647 15.2892 166.647 14.7478V13.9585C166.647 12.8995 165.789 12.0411 164.73 12.0411ZM135.779 30.0305C134.825 30.0305 134.051 30.8043 134.051 31.7587C134.051 32.7131 134.825 33.4869 135.779 33.4869H169.338C170.292 33.4869 171.066 32.7131 171.066 31.7587C171.066 30.8043 170.292 30.0305 169.338 30.0305H135.779ZM144.721 34.9443C143.916 34.9443 143.263 35.5969 143.263 36.4018C143.263 37.2068 143.916 37.8593 144.721 37.8593H161.313C162.118 37.8593 162.771 37.2068 162.771 36.4018C162.771 35.5969 162.118 34.9443 161.313 34.9443H144.721ZM144.846 39.3168C144.041 39.3168 143.388 39.9693 143.388 40.7743C143.388 41.5792 144.041 42.2317 144.846 42.2317H161.48C162.285 42.2317 162.938 41.5792 162.938 40.7743C162.938 39.9693 162.285 39.3168 161.48 39.3168H144.846ZM142.263 31.3631C140.928 31.3631 139.845 32.4455 139.845 33.7807V43.0206C139.845 44.3558 140.928 45.4382 142.263 45.4382C143.598 45.4382 144.68 44.3558 144.68 43.0206V33.7807C144.68 32.4455 143.598 31.3631 142.263 31.3631ZM162.875 31.3631C161.505 31.3631 160.395 32.4735 160.395 33.8432V47.7469C160.395 49.1167 161.505 50.2271 162.875 50.2271C164.245 50.2271 165.355 49.1167 165.355 47.7469V33.8432C165.355 32.4735 164.245 31.3631 162.875 31.3631ZM135.985 43.9204C134.881 43.9309 134.007 44.8537 134.054 45.9571C134.099 47.0131 134.974 47.8418 136.03 47.8263C144.639 47.7 157.197 47.4745 169.109 47.15C170.056 47.1242 170.831 46.3874 170.905 45.4426C170.991 44.3481 170.114 43.4188 169.016 43.4417C157.294 43.6867 144.774 43.8369 135.985 43.9204Z" stroke="white" stroke-width="10"/>
<path d="M177.498 31.79C176.245 32.1475 175.471 33.4201 175.767 34.689C176.085 36.0567 177.508 36.8567 178.838 36.4049C181.279 35.5757 183.95 34.6372 186.554 33.7056C187.578 33.3392 188.19 32.29 188.008 31.2176C187.778 29.8671 186.404 29.0353 185.1 29.4533C182.395 30.3199 179.733 31.1523 177.498 31.79ZM178.066 19.037C176.802 19.037 175.776 20.0624 175.776 21.3273C175.776 22.5922 176.802 23.6176 178.066 23.6176H185.699C186.964 23.6176 187.989 22.5922 187.989 21.3273C187.989 20.0624 186.964 19.037 185.699 19.037H178.066ZM182.195 11.1249C180.906 11.1249 179.861 12.17 179.861 13.4592V44.7303C179.861 45.1883 179.736 45.3549 179.277 45.3549C178.03 45.3549 177.13 46.6672 177.447 47.8736C177.47 47.9605 177.492 48.047 177.513 48.1329C177.74 49.0518 178.539 49.7826 179.484 49.7299C180.976 49.6466 182.086 49.4119 182.987 48.8529C184.196 48.1033 184.53 46.8957 184.53 44.7303V13.4592C184.53 12.17 183.484 11.1249 182.195 11.1249ZM197.41 17.517C197.41 16.7696 198.016 16.1636 198.763 16.1636H203.601C204.348 16.1636 204.954 16.7696 204.954 17.517C204.954 18.2645 204.348 18.8704 203.601 18.8704H198.763C198.016 18.8704 197.41 18.2645 197.41 17.517ZM197.968 12.6657C195.288 12.6657 193.116 14.8377 193.116 17.517C193.116 20.1963 195.288 22.3684 197.968 22.3684H204.646C207.326 22.3684 209.498 20.1963 209.498 17.517C209.498 14.8377 207.326 12.6657 204.646 12.6657H197.968ZM193.075 28.7396C193.075 27.8887 193.764 27.1989 194.615 27.1989H194.994C195.845 27.1989 196.534 27.8887 196.534 28.7396C196.534 29.5906 195.845 30.2804 194.994 30.2804H194.615C193.764 30.2804 193.075 29.5906 193.075 28.7396ZM194.32 23.8258C191.583 23.8258 189.365 26.0445 189.365 28.7813C189.365 31.5181 191.583 33.7367 194.32 33.7367H195.455C198.192 33.7367 200.411 31.5181 200.411 28.7813C200.411 26.0445 198.192 23.8258 195.455 23.8258H194.32ZM205.913 28.7396C205.913 27.8887 206.603 27.1989 207.454 27.1989H207.957C208.808 27.1989 209.498 27.8887 209.498 28.7396C209.498 29.5906 208.808 30.2804 207.957 30.2804H207.454C206.603 30.2804 205.913 29.5906 205.913 28.7396ZM207.034 23.8258C204.297 23.8258 202.078 26.0445 202.078 28.7813C202.078 31.5181 204.297 33.7367 207.034 33.7367H208.544C211.281 33.7367 213.499 31.5181 213.499 28.7813C213.499 26.0445 211.281 23.8258 208.544 23.8258H207.034ZM190.843 36.2352C189.727 36.2352 188.823 37.1395 188.823 38.2549C188.823 39.3703 189.727 40.2745 190.843 40.2745H212.147C213.262 40.2745 214.166 39.3703 214.166 38.2549C214.166 37.1395 213.262 36.2352 212.147 36.2352H190.843ZM201.286 33.5285C199.974 33.5285 198.91 34.5922 198.91 35.9044V47.9344C198.91 49.2466 199.974 50.3103 201.286 50.3103C202.598 50.3103 203.662 49.2466 203.662 47.9344V35.9044C203.662 34.5922 202.598 33.5285 201.286 33.5285ZM199.847 38.7742C198.994 38.4536 198.041 38.7394 197.408 39.3945C195.338 41.5352 192.29 43.4014 188.949 44.7065C187.57 45.2451 187.11 47.223 187.978 48.4221C188.503 49.1476 189.396 49.4434 190.227 49.1084C194.24 47.4898 197.996 44.8758 200.701 41.7583C201.574 40.7528 201.093 39.2427 199.847 38.7742ZM205.361 39.8256C204.789 39.2306 203.926 38.9701 203.152 39.2556C202.023 39.6718 201.57 41.0273 202.326 41.9638C204.483 44.6371 207.398 47.0583 210.436 48.6065C211.248 49.0208 212.191 48.7404 212.74 48.012C213.616 46.8501 213.202 44.8972 211.881 44.2871C209.362 43.124 207.012 41.5433 205.361 39.8256Z" stroke="white" stroke-width="10"/>
<path d="M11.3358 16.9132H16.5462V22.3267H11.3358V16.9132ZM7.08416 12.7073V26.4909H21.0897V12.7073H7.08416ZM12.4613 24.8669V43.481H16.7963V24.8669H12.4613ZM6.83406 29.5308V44.6886H10.8356V29.5308H6.83406ZM5 44.1056L6.16713 48.8112C10.6272 47.5203 16.4212 45.8963 21.84 44.2722L21.1731 40.0247C15.3374 41.5655 9.08495 43.2312 5 44.1056ZM14.4621 30.9467V35.2775H20.7563V30.9467H14.4621ZM26.4669 15.6223V19.9531H39.4303V15.6223H26.4669ZM37.8464 15.6223V16.5384C37.8464 29.6558 37.8464 34.2364 37.2211 35.1942C36.9293 35.6939 36.5542 35.8188 35.9706 35.8188C35.2203 35.8188 33.7614 35.7772 32.1358 35.6523C32.8444 36.8599 33.4279 38.7754 33.4696 40.0247C35.3871 40.108 37.2211 40.108 38.4299 39.8998C39.7221 39.6499 40.5975 39.2751 41.4311 38.0259C42.4315 36.4851 42.4732 31.5713 42.5149 17.6628C42.5149 17.0798 42.5149 15.6223 42.5149 15.6223H37.8464ZM26.2168 11.2082C24.9663 15.3724 22.6737 19.5367 19.9643 22.1601C20.8813 22.993 22.4653 24.8252 23.0488 25.6997C26.1751 22.5349 28.9262 17.4129 30.5935 12.3742L26.2168 11.2082ZM23.0488 23.2428V43.3561C23.0488 48.3532 24.5077 49.6857 29.8849 49.6857C31.0937 49.6857 37.1794 49.6857 38.4299 49.6857C42.89 49.6857 44.2239 48.0617 44.8075 42.6482C43.557 42.3983 41.7229 41.6487 40.7225 40.9825C40.4724 44.8136 40.0973 45.5631 38.0548 45.5631C36.7209 45.5631 31.4272 45.5631 30.3017 45.5631C27.8007 45.5631 27.4256 45.2716 27.4256 43.3144V23.2428H23.0488ZM24.1326 23.2428V27.2405H31.1771V32.6956H24.1326V36.6933H35.3454V23.2428H24.1326Z" fill="#FF0000"/>
<path d="M48.5588 17.288V21.827H86.4906V17.288H48.5588ZM53.4775 31.488V35.1525H64.3151V31.488H53.4775ZM53.4775 37.8593V41.5655H64.3151V37.8593H53.4775ZM70.9427 25.1167V42.1901H75.5696V25.1167H70.9427ZM62.5644 24.7003V45.23C62.5644 45.7297 62.3977 45.8963 61.8558 45.8963C61.3556 45.9379 59.6466 45.9379 58.1043 45.8546C58.7296 47.0206 59.4382 48.8529 59.6883 50.1021C62.2726 50.1021 64.1901 50.0605 65.5656 49.3109C66.9828 48.603 67.3997 47.437 67.3997 45.3133V24.7003H62.5644ZM79.3211 23.9924V44.6886C79.3211 45.2716 79.1126 45.4382 78.4457 45.4382C77.7371 45.4798 75.5696 45.4798 73.4437 45.3549C74.1523 46.6458 74.9443 48.7696 75.1944 50.1021C78.279 50.1438 80.5299 49.9772 82.1138 49.2276C83.7812 48.4781 84.2397 47.1872 84.2397 44.7719V23.9924H79.3211ZM54.3111 12.749C55.77 14.4147 57.3123 16.7883 57.8959 18.2874L62.9396 16.4968C62.2309 14.9144 60.5636 12.7073 59.063 11.0833L54.3111 12.749ZM75.6946 11C74.7776 13.2487 73.0686 16.2886 71.6514 18.2458L76.1531 19.7865C77.612 17.9543 79.4461 15.2892 81.1551 12.6241L75.6946 11ZM50.8514 24.7003V49.9772H55.5616V28.8646H63.9816V24.7003H50.8514Z" fill="#FF0000"/>
<path d="M105.123 22.5349V26.4493H128.174V22.5349H105.123ZM103.914 28.3648V32.4042H129.091V28.3648H103.914ZM109.333 34.0698V37.6927H123.422V34.0698H109.333ZM106.165 18.0376C106.79 19.62 107.499 21.7854 107.832 23.0763L111.834 21.827C111.459 20.5777 110.625 18.4956 109.958 16.9965L106.165 18.0376ZM113.418 17.288C113.793 18.9953 114.168 21.244 114.293 22.5766L118.42 21.7021C118.253 20.4112 117.753 18.2458 117.295 16.6217L113.418 17.288ZM125.423 11.3331C120.212 12.4158 111.667 13.0821 104.331 13.2903C104.79 14.2897 105.29 15.9138 105.415 16.9965C112.876 16.9132 121.88 16.2886 128.216 14.9977L125.423 11.3331ZM113.46 36.8599L109.458 38.0259C112.96 44.4388 118.837 48.5614 127.132 50.3103C127.757 49.0611 129.049 47.1872 130.05 46.1878C122.255 44.9801 116.294 41.732 113.46 36.8599ZM123.047 15.8305C122.255 17.9959 120.754 20.9942 119.504 22.9513L123.005 24.2006C124.381 22.41 126.09 19.7032 127.632 17.1631L123.047 15.8305ZM122.422 34.0698V34.7361C120.504 41.6904 115.127 45.1051 107.666 46.6042C108.541 47.437 109.875 49.2693 110.375 50.3103C118.295 48.3115 124.381 43.9807 126.84 35.0276L124.131 33.9449L123.339 34.0698H122.422ZM109.792 24.9918C109.25 32.2792 108.541 41.5238 100.329 46.5625C101.497 47.3954 102.872 48.9778 103.539 50.1438C112.584 44.2306 113.918 33.8616 114.585 24.9918H109.792ZM94.327 14.373V18.7455H99.2873V38.1091H94.327V42.4816H103.706V14.373H94.327ZM94.4937 26.1162V30.447H101.497V26.1162H94.4937ZM91.8677 14.373V45.688H96.2028V14.373H91.8677Z" fill="#FF0000"/>
<path d="M133.968 12.9155V15.4141H152.517V12.9155H133.968ZM135.218 16.5801V19.037H151.391V16.5801H135.218ZM137.803 20.1197V22.5349H147.64V24.5754H137.594V26.9906H151.475V20.1197H137.803ZM135.635 20.1197V22.8264C135.635 24.617 135.385 26.9074 133.218 28.7813C134.135 29.1977 135.885 30.2387 136.636 30.8634C138.97 28.698 139.428 25.4499 139.428 22.9097V20.1197H135.635ZM141.096 11.1249V17.8293H145.597V11.1249H141.096ZM141.638 21.0774V25.6997H145.139V21.0774H141.638ZM153.392 19.62V22.2851H166.606V19.62H153.392ZM157.436 12.0411V15.2892H164.855V12.0411H157.436ZM165.355 19.62V20.078C163.438 24.159 158.227 26.2411 151.85 26.9074C152.559 27.7402 153.434 29.2393 153.809 30.2388C161.145 29.0311 166.981 26.4077 169.482 20.3695L166.939 19.495L166.189 19.62H165.355ZM158.353 21.7437L154.934 22.6598C157.686 26.8241 162.688 29.3226 169.44 30.2388C169.94 29.1977 170.941 27.6986 171.775 26.9074C165.605 26.4077 160.645 24.7003 158.353 21.7437ZM155.31 12.0411V14.1232C155.31 15.539 154.851 16.7883 151.642 17.9126C152.392 18.454 153.809 20.0364 154.309 20.8692C158.186 19.2035 159.103 16.705 159.103 14.2481V12.0411H155.31ZM162.813 12.0411V14.7062C162.813 16.7883 163.063 17.5795 163.646 18.2041C164.23 18.7871 165.272 19.037 166.147 19.037C166.647 19.037 167.439 19.037 167.981 19.037C168.523 19.037 169.315 18.9537 169.815 18.7455C170.357 18.5373 170.774 18.1625 171.066 17.6211C171.358 17.1631 171.524 15.9971 171.608 14.8727C170.691 14.6229 169.399 13.9566 168.732 13.3736C168.732 14.2897 168.69 14.956 168.565 15.2892C168.482 15.5807 168.398 15.7472 168.273 15.7889C168.19 15.8722 167.94 15.8722 167.773 15.8722C167.565 15.8722 167.273 15.8722 167.106 15.8722C166.939 15.8722 166.814 15.8305 166.731 15.7056C166.647 15.5807 166.647 15.2892 166.647 14.7478V12.0411H162.813ZM134.051 30.0305V33.4869H171.066V30.0305H134.051ZM143.263 34.9443V37.8593H162.771V34.9443H143.263ZM143.388 39.3168V42.2317H162.938V39.3168H143.388ZM139.845 31.3631V45.4382H144.68V31.3631H139.845ZM160.395 31.3631V50.2271H165.355V31.3631H160.395ZM133.968 43.9391L134.135 47.8534C143.096 47.7285 157.477 47.4787 170.774 47.1039L171.066 43.3977C157.852 43.6892 143.263 43.8558 133.968 43.9391Z" fill="#FF0000"/>
<path d="M175.234 32.4042L176.36 37.2347C179.903 36.0687 184.279 34.5279 188.323 33.0704L187.572 28.6563C183.071 30.1138 178.36 31.6129 175.234 32.4042ZM175.776 19.037V23.6176H187.989V19.037H175.776ZM179.861 11.1249V44.7303C179.861 45.1883 179.736 45.3549 179.277 45.3549C178.902 45.3549 177.735 45.3549 176.568 45.3133C177.152 46.6042 177.694 48.5614 177.819 49.769C180.195 49.769 181.778 49.6024 182.987 48.8529C184.196 48.1033 184.53 46.8957 184.53 44.7303V11.1249H179.861ZM197.41 16.1636H204.954V18.8704H197.41V16.1636ZM193.116 12.6657V22.3684H209.498V12.6657H193.116ZM193.075 27.1989H196.534V30.2804H193.075V27.1989ZM189.365 23.8258V33.7367H200.411V23.8258H189.365ZM205.913 27.1989H209.498V30.2804H205.913V27.1989ZM202.078 23.8258V33.7367H213.499V23.8258H202.078ZM188.823 36.2352V40.2745H214.166V36.2352H188.823ZM198.91 33.5285V50.3103H203.662V33.5285H198.91ZM198.41 38.2341C195.867 41.5655 190.865 44.3971 185.697 45.7713C186.697 46.6875 188.114 48.4781 188.781 49.6441C194.2 47.8118 199.327 44.1056 202.287 39.6916L198.41 38.2341ZM204.454 38.7754L200.953 40.0663C203.412 43.8974 207.622 47.5203 211.874 49.2693C212.582 48.1033 214 46.3543 215 45.4798C210.873 44.2306 206.622 41.6071 204.454 38.7754Z" fill="#FF0000"/>
</svg>
