<svg width="36" height="36" viewBox="0 0 36 36" fill="none" xmlns="http://www.w3.org/2000/svg">
<path d="M18 3C15.0333 3 12.1332 3.87973 9.66645 5.52796C7.19972 7.17618 5.27713 9.51886 4.14181 12.2597C3.0065 15.0006 2.70945 18.0166 3.28823 20.9264C3.86701 23.8361 5.29562 26.5088 7.3934 28.6066C9.49119 30.7044 12.1639 32.133 15.0737 32.7118C17.9834 33.2906 20.9994 32.9935 23.7403 31.8582C26.4812 30.7229 28.8238 28.8003 30.472 26.3336C32.1203 23.8668 33 20.9667 33 18C33 16.0302 32.612 14.0796 31.8582 12.2597C31.1044 10.4399 29.9995 8.78628 28.6066 7.3934C27.2137 6.00052 25.5601 4.89563 23.7403 4.14181C21.9204 3.38799 19.9698 3 18 3ZM15 22.5C15 22.8978 14.842 23.2794 14.5607 23.5607C14.2794 23.842 13.8978 24 13.5 24C13.1022 24 12.7207 23.842 12.4393 23.5607C12.158 23.2794 12 22.8978 12 22.5V13.5C12 13.1022 12.158 12.7206 12.4393 12.4393C12.7207 12.158 13.1022 12 13.5 12C13.8978 12 14.2794 12.158 14.5607 12.4393C14.842 12.7206 15 13.1022 15 13.5V22.5ZM24 22.5C24 22.8978 23.842 23.2794 23.5607 23.5607C23.2794 23.842 22.8978 24 22.5 24C22.1022 24 21.7207 23.842 21.4393 23.5607C21.158 23.2794 21 22.8978 21 22.5V13.5C21 13.1022 21.158 12.7206 21.4393 12.4393C21.7207 12.158 22.1022 12 22.5 12C22.8978 12 23.2794 12.158 23.5607 12.4393C23.842 12.7206 24 13.1022 24 13.5V22.5Z" fill="#33347B"/>
</svg>
