<svg width="36" height="36" viewBox="0 0 36 36" fill="none" xmlns="http://www.w3.org/2000/svg">
    <g clip-path="url(#clip0_1229_530)">
        <path d="M3.5344 0C1.59752 0 0 1.59752 0 3.5344V32.4635C0 34.4004 1.59752 36.0003 3.5344 36.0003H32.4656C34.4025 36.0003 36 34.4004 36 32.4635V3.5344C36 1.59752 34.4025 0 32.4656 0H3.5344ZM10.6899 10.2728C10.9749 10.2762 11.2591 10.2955 11.543 10.3194C13.8144 10.5256 16.1322 11.3037 18.3819 12.0538C20.6319 12.8038 22.8166 13.5259 24.6702 13.6944C26.5238 13.8632 27.9368 13.5637 29.1539 12.3468L29.1542 12.3471C29.3781 12.1149 29.6861 11.9828 30.0087 11.9804C30.3312 11.978 30.6411 12.1058 30.8685 12.3342C31.0959 12.563 31.2218 12.8737 31.2175 13.1962C31.2132 13.5187 31.0796 13.8259 30.8462 14.0485C29.0634 15.8314 26.7215 16.2825 24.4501 16.0759C22.1786 15.8697 19.8705 15.0916 17.6204 14.3416C15.3704 13.5915 13.1833 12.8694 11.3298 12.7009C9.4762 12.5322 8.06561 12.8316 6.84846 14.0485C6.62373 14.278 6.31649 14.4079 5.99508 14.4096C5.67392 14.4112 5.36534 14.2845 5.13821 14.0573C4.91107 13.8302 4.78436 13.5216 4.78597 13.2004C4.78758 12.8793 4.91749 12.572 5.14678 12.3471C6.70679 10.7871 8.69565 10.2455 10.6899 10.2728H10.6899ZM10.6899 19.868C10.9749 19.8715 11.2591 19.8862 11.543 19.9133C13.8144 20.1196 16.1322 20.907 18.3819 21.6571C20.6319 22.4071 22.8166 23.1199 24.6702 23.2883C26.5238 23.4566 27.9368 23.1673 29.1539 21.9501L29.1542 21.9504C29.3781 21.7187 29.6861 21.5866 30.0084 21.5845C30.3309 21.5821 30.6405 21.7098 30.8679 21.9383C31.0951 22.1668 31.221 22.4772 31.2169 22.7997C31.2129 23.1219 31.0793 23.4292 30.8462 23.6521C29.0634 25.4349 26.7215 25.886 24.45 25.6795C22.1786 25.4732 19.8702 24.6857 17.6204 23.9357C15.3704 23.1856 13.1833 22.4729 11.3298 22.3044C9.4762 22.1362 8.0656 22.4351 6.84845 23.652C6.62264 23.8775 6.31648 24.0042 5.9972 24.0042C5.67818 24.0042 5.37202 23.8773 5.14622 23.6515C4.92068 23.4257 4.79399 23.1195 4.79399 22.8005C4.79426 22.4812 4.92096 22.175 5.14676 21.9495C6.70677 20.3895 8.69563 19.8425 10.6898 19.8682L10.6899 19.868Z" fill="#33347B"/>
        <path fill-rule="evenodd" clip-rule="evenodd" d="M11.5432 10.3191C11.2593 10.2952 10.9751 10.2759 10.6901 10.2725H10.69C8.69583 10.2452 6.70696 10.7868 5.14695 12.3468C4.91767 12.5717 4.78776 12.879 4.78615 13.2001C4.78454 13.5213 4.91124 13.8299 5.13838 14.057C5.36552 14.2842 5.67409 14.4109 5.99526 14.4092C6.31667 14.4076 6.6239 14.2777 6.84864 14.0482C8.06579 12.8313 9.47638 12.5319 11.3299 12.7006C13.1835 12.8691 15.3705 13.5912 17.6206 14.3413L17.7239 14.3757C19.9413 15.115 22.2135 15.8725 24.4502 16.0756C26.7217 16.2822 29.0635 15.8311 30.8464 14.0482C31.0797 13.8256 31.2134 13.5184 31.2177 13.1959C31.222 12.8734 31.0961 12.5627 30.8687 12.3339C30.6412 12.1055 30.3313 11.9777 30.0088 11.9801C29.6863 11.9825 29.3783 12.1146 29.1544 12.3468L29.1541 12.3465C27.9369 13.5634 26.5239 13.8629 24.6704 13.6941C22.8168 13.5256 20.6321 12.8035 18.3821 12.0535L18.3177 12.032C16.0882 11.2886 13.7929 10.5234 11.5432 10.3191ZM11.5432 19.913C11.2593 19.8859 10.9751 19.8712 10.6901 19.8677L10.69 19.8679C8.69581 19.8422 6.70695 20.3892 5.14693 21.9492C4.92113 22.1747 4.79443 22.4809 4.79417 22.8002C4.79417 23.1192 4.92086 23.4254 5.1464 23.6512C5.37219 23.877 5.67836 24.0039 5.99738 24.0039C6.31666 24.0039 6.62282 23.8772 6.84863 23.6517C8.06578 22.4348 9.47637 22.1359 11.3299 22.3041C13.1835 22.4726 15.3706 23.1853 17.6206 23.9354C17.6892 23.9582 17.7578 23.9812 17.8266 24.0041C20.0111 24.7329 22.248 25.4792 24.4502 25.6792C26.7217 25.8857 29.0635 25.4346 30.8464 23.6518C31.0794 23.4289 31.2131 23.1216 31.2171 22.7994C31.2211 22.4769 31.0952 22.1665 30.8681 21.938C30.6407 21.7095 30.3311 21.5818 30.0086 21.5842C29.6863 21.5863 29.3783 21.7184 29.1544 21.9501L29.1541 21.9498C27.9369 23.167 26.5239 23.4563 24.6704 23.288C22.8168 23.1196 20.6321 22.4068 18.3821 21.6568C18.325 21.6377 18.2678 21.6187 18.2106 21.5996C16.0147 20.8671 13.7569 20.114 11.5432 19.913Z" fill="white"/>
    </g>
    <defs>
        <clipPath id="clip0_1229_530">
            <rect width="36" height="36" fill="white"/>
        </clipPath>
    </defs>
</svg>
