<svg width="100%" height="100%" viewBox="0 0 40 40" fill="none" xmlns="http://www.w3.org/2000/svg">
<g clip-path="url(#clip0_593_577)">
<path d="M33.8497 12.3006C35.0661 12.3006 36.2552 11.9399 37.2666 11.2641C38.278 10.5883 39.0663 9.62774 39.5318 8.50392C39.9973 7.3801 40.1191 6.14348 39.8818 4.95044C39.6445 3.7574 39.0588 2.66152 38.1986 1.80138C37.3385 0.941249 36.2426 0.35549 35.0496 0.118179C33.8565 -0.119132 32.6199 0.00266483 31.4961 0.468167C30.3723 0.933668 29.4117 1.72197 28.7359 2.73338C28.0601 3.74479 27.6994 4.93389 27.6994 6.1503C27.6994 6.95799 27.8584 7.75777 28.1675 8.50398C28.4765 9.25019 28.9296 9.92822 29.5007 10.4993C30.0718 11.0705 30.7498 11.5235 31.496 11.8325C32.2422 12.1416 33.042 12.3007 33.8497 12.3006ZM14.9914 40C12.0264 40 9.12793 39.1208 6.66261 37.4735C4.19729 35.8262 2.27581 33.4849 1.14115 30.7456C0.00649384 28.0063 -0.290384 24.992 0.288063 22.0839C0.866511 19.1759 2.2943 16.5047 4.39088 14.4081C6.48747 12.3115 9.15867 10.8838 12.0667 10.3053C14.9748 9.72687 17.989 10.0238 20.7283 11.1584C23.4676 12.2931 25.809 14.2146 27.4562 16.6799C29.1035 19.1452 29.9827 22.0437 29.9827 25.0087C29.9828 26.9774 29.595 28.9268 28.8417 30.7457C28.0883 32.5645 26.984 34.2172 25.592 35.6093C24.1999 37.0014 22.5472 38.1056 20.7284 38.859C18.9095 39.6123 16.9601 40.0001 14.9914 40Z" fill="#7D1BFF"/>
</g>
<defs>
<clipPath id="clip0_593_577">
<rect width="40" height="40" fill="white"/>
</clipPath>
</defs>
</svg>
