<svg width="24" height="24" viewBox="0 0 24 24" fill="none" xmlns="http://www.w3.org/2000/svg">
<path fill-rule="evenodd" clip-rule="evenodd" d="M19.9653 11.0496C20.8269 9.98937 21.3433 8.6373 21.3433 7.16462C21.3433 6.36486 21.191 5.60067 20.9138 4.89947C21.1088 4.82126 21.2919 4.70415 21.4513 4.548C22.0999 3.91273 22.5512 2.44057 21.9159 1.79195C21.2806 1.14333 19.7994 1.56387 19.1508 2.19915C19.1039 2.24507 19.0603 2.29311 19.0201 2.34296C17.9665 1.50242 16.6313 1 15.1786 1C12.9054 1 10.9196 2.23043 9.85076 4.06162C9.13888 3.52574 7.8791 3.22691 7.29957 3.80643C6.65759 4.44841 7.09349 5.92518 7.73548 6.56716C8.08632 6.918 8.55628 7.07711 9.01517 7.04448C9.01441 7.08444 9.01402 7.12449 9.01402 7.16462C9.01402 9.03273 9.84497 10.7068 11.1574 11.8373C11.3939 12.3417 11.5765 12.8216 11.4799 12.9182C11.4038 12.9942 11.1591 12.9859 10.8809 12.9764C10.407 12.9603 9.83596 12.9408 9.83596 13.3292C9.83596 13.9457 10.0414 14.9731 10.4524 15.1786C10.6281 15.2665 10.5033 15.5046 10.3671 15.7645C10.1847 16.1124 9.98191 16.4994 10.4524 16.617C10.8343 16.7125 10.5509 16.941 10.1792 17.2407C9.75072 17.5862 9.20494 18.0263 9.42498 18.4664C9.83596 19.2883 6.13717 20.9322 5.7262 20.9322C5.39742 20.9322 5.45221 21.3432 5.52071 21.5487C5.17824 21.4117 4.2467 21.261 3.26036 21.7542C2.27402 22.2474 1.34248 23.1926 1 23.6036H23.8091C23.1926 21.5487 21.7953 17.3979 21.1378 17.2335C20.4802 17.0691 20.8638 16.617 21.1378 16.4115C21.2063 16.206 21.2611 15.7951 20.9323 15.7951C20.7518 15.7951 20.8487 15.6762 21.0142 15.4732C21.2256 15.2139 21.5487 14.8176 21.5487 14.3566C21.5487 13.5347 20.3158 12.3018 19.9048 12.7127C19.6577 12.9599 19.7821 11.9437 19.9653 11.0496ZM14.4623 5.83928C14.3952 6.51688 13.6083 6.99357 12.7048 6.904C11.8013 6.81443 11.1234 6.19251 11.1906 5.51491C11.2578 4.8373 12.0446 4.36061 12.9481 4.45018C13.8516 4.53976 14.5295 5.16167 14.4623 5.83928ZM17.2457 4.16328C16.5581 4.54856 16.2417 5.29116 16.5391 5.82193C16.8365 6.3527 17.635 6.47064 18.3226 6.08536C19.0103 5.70008 19.3266 4.95747 19.0292 4.42671C18.7318 3.89594 17.9333 3.778 17.2457 4.16328Z" fill="#0C0C0C"/>
</svg>
