<svg width="24" height="24" viewBox="0 0 24 24" fill="none" xmlns="http://www.w3.org/2000/svg">
<path d="M12 2.39999C7.14037 2.39999 3.20001 6.31796 3.20001 11.15C3.20001 14.7523 5.39098 17.8453 8.5193 19.1852C8.38258 18.3746 8.27691 17.5605 8.24438 16.9137C6.34601 15.6851 5.08573 13.5641 5.08573 11.15C5.08573 7.35898 8.18733 4.27499 12 4.27499C15.8127 4.27499 18.9143 7.35898 18.9143 11.15C18.9143 13.5637 17.654 15.6852 15.7561 16.9156C15.7234 17.5602 15.617 18.3754 15.4797 19.1879C18.6079 17.8453 20.8 14.7516 20.8 11.15C20.8 6.31796 16.8597 2.39999 12 2.39999ZM12 14.5875C10.7083 14.5875 9.48573 14.9244 9.48573 16.2965C9.48573 17.5906 9.99173 20.3707 10.2958 21.484C10.4993 22.2281 11.2575 22.4 12 22.4C12.7425 22.4 13.5027 22.2291 13.7042 21.4867C14.0075 20.3648 14.5143 17.5875 14.5143 16.2984C14.5143 14.9234 13.2925 14.5875 12 14.5875ZM12 13.3375C13.2159 13.3375 14.2 12.359 14.2 11.15C14.2 9.94101 13.1825 8.96249 12 8.96249C10.8175 8.96249 9.80001 9.93906 9.80001 11.15C9.80001 12.3609 10.7822 13.3375 12 13.3375ZM17.6572 11.15C17.6572 8.04335 15.1244 5.52499 12 5.52499C8.87562 5.52499 6.34287 8.04453 6.34287 11.15C6.34287 12.9012 7.16473 14.4461 8.42658 15.4781C8.61739 14.984 8.98169 14.4672 9.68569 14.1094C9.68608 14.107 9.69787 14.107 9.70573 14.107C8.81394 13.4195 8.22858 12.357 8.22858 11.15C8.22858 9.0789 9.91708 7.39999 12 7.39999C14.0829 7.39999 15.7714 9.0789 15.7714 11.15C15.7714 12.3578 15.1873 13.4207 14.2955 14.1062C14.3006 14.1072 14.3154 14.1082 14.3141 14.1091C15.0185 14.4669 15.3823 14.9834 15.5732 15.4779C16.8361 14.4469 17.6572 12.9 17.6572 11.15Z" fill="#0C0C0C"/>
</svg>
