<svg width="40" height="40" viewBox="0 0 40 40" fill="none" xmlns="http://www.w3.org/2000/svg">
<rect width="40" height="40"/>
<path d="M8.96197 23.5885C9.11165 23.1279 9.76335 23.1279 9.91303 23.5885L10.9951 26.9187C11.062 27.1247 11.254 27.2642 11.4706 27.2642H14.9721C15.4565 27.2642 15.6579 27.884 15.266 28.1687L12.4332 30.2269C12.258 30.3542 12.1846 30.5799 12.2516 30.7859L13.3336 34.116C13.4833 34.5767 12.9561 34.9598 12.5642 34.6751L9.73139 32.6169C9.55615 32.4896 9.31885 32.4896 9.14361 32.6169L6.3108 34.6751C5.91894 34.9598 5.3917 34.5767 5.54138 34.116L6.62341 30.7859C6.69035 30.5799 6.61702 30.3542 6.44178 30.2269L3.60897 28.1687C3.21711 27.884 3.4185 27.2642 3.90286 27.2642H7.40441C7.62102 27.2642 7.813 27.1247 7.87993 26.9187L8.96197 23.5885Z" fill="#1A2138"/>
<path d="M11.4346 11.1331C11.236 10.7173 11.1713 10.2501 11.2493 9.79597C11.3272 9.34182 11.544 8.92299 11.8698 8.59717L13.9719 6.49354C14.2977 6.16769 14.7165 5.95086 15.1706 5.87291C15.6248 5.79495 16.0919 5.85971 16.5077 6.05825L18.6989 3.86994C19.256 3.31292 20.0116 3 20.7994 3C21.5873 3 22.3428 3.31292 22.9 3.86994L27.1026 8.07126C27.3786 8.34718 27.5976 8.67478 27.747 9.03535C27.8963 9.39591 27.9732 9.78238 27.9732 10.1727C27.9732 10.563 27.8963 10.9494 27.747 11.31C27.5976 11.6706 27.3786 11.9982 27.1026 12.2741L17.6471 21.7285C17.3712 22.0046 17.0436 22.2235 16.6831 22.3729C16.3225 22.5223 15.9361 22.5992 15.5458 22.5992C15.1556 22.5992 14.7691 22.5223 14.4086 22.3729C14.048 22.2235 13.7204 22.0046 13.4445 21.7285L9.24489 17.5257C8.6879 16.9685 8.375 16.2129 8.375 15.4251C8.375 14.6372 8.6879 13.8816 9.24489 13.3244L11.4346 11.1331V11.1331ZM21.8512 21.7285L27.1041 16.4754L32.3555 21.7285L27.1041 26.9802L21.8512 21.7285ZM29.2046 29.0823L34.456 23.8292L37.0825 26.4558C37.759 27.1562 38.1333 28.0944 38.1249 29.0682C38.1164 30.042 37.7258 30.9736 37.0372 31.6622C36.3487 32.3508 35.4172 32.7414 34.4434 32.7499C33.4697 32.7583 32.5315 32.384 31.8311 31.7074L29.2046 29.0809V29.0823Z" fill="#1A2138"/>
</svg>
