<svg width="100%" height="100%" viewBox="0 0 60 60" fill="none" xmlns="http://www.w3.org/2000/svg">
<g clip-path="url(#clip0_3229_15807)">
<circle cx="30" cy="30" r="30" fill="#07ED88"/>
<path fill-rule="evenodd" clip-rule="evenodd" d="M50 18.75C50 18.0596 49.4404 17.5 48.75 17.5H31.25C30.5596 17.5 30 18.0596 30 18.75V21.25C30 21.9404 29.4404 22.5 28.75 22.5H11.25C10.5596 22.5 10 23.0596 10 23.75V41.25C10 41.9404 10.5596 42.5 11.25 42.5H28.75C29.4404 42.5 30 41.9404 30 41.25V38.75C30 38.0596 30.5596 37.5 31.25 37.5H48.75C49.4404 37.5 50 36.9404 50 36.25V18.75Z" fill="white"/>
<path d="M24.6339 30.8839C24.1457 30.3957 24.1457 29.6043 24.6339 29.1161L29.4952 24.2548C29.9834 23.7666 30.7749 23.7666 31.263 24.2548L36.1244 29.1161C36.6125 29.6043 36.6125 30.3957 36.1244 30.8839L31.263 35.7452C30.7749 36.2334 29.9834 36.2334 29.4952 35.7452L24.6339 30.8839Z" fill="#06EE8A"/>
</g>
<defs>
<clipPath id="clip0_3229_15807">
<rect width="100%" height="100%" fill="white"/>
</clipPath>
</defs>
</svg>
