<svg width="24" height="24" viewBox="0 0 24 24" fill="none" xmlns="http://www.w3.org/2000/svg">
<path d="M12.8454 0.169518C12.3032 -0.0565059 11.6968 -0.0565059 11.1546 0.169518L9.8406 0.717362L15.5958 3.01856L17.6202 2.21468C17.5372 2.14387 17.4441 2.08664 17.3442 2.04502L12.8454 0.169518ZM18 3.05557L12.45 5.26052V11.9994C12.5844 11.9716 12.7164 11.9303 12.8454 11.8766L17.3442 10.0011C17.538 9.9204 17.7039 9.78204 17.8208 9.60377C17.9376 9.42549 18 9.2154 18 9.00043V3.05619V3.05557ZM11.55 11.9994V5.26052L6 3.05557V9.00104C6.00012 9.21592 6.06259 9.42587 6.17942 9.60402C6.29624 9.78218 6.46211 9.92044 6.6558 10.0011L11.1546 11.8766C11.2836 11.9303 11.4156 11.971 11.55 12V11.9994ZM6.3798 2.21468L12 4.44739L14.3502 3.51334L8.6244 1.22449L6.6558 2.04502C6.5538 2.08759 6.4614 2.14497 6.3798 2.21468Z" fill="black"/>
<path d="M18.8454 10.1695C18.3032 9.94349 17.6968 9.94349 17.1546 10.1695L15.8406 10.7174L21.5958 13.0186L23.6202 12.2147C23.5372 12.1439 23.4441 12.0866 23.3442 12.045L18.8454 10.1695ZM24 13.0556L18.45 15.2605V21.9994C18.5844 21.9716 18.7164 21.9303 18.8454 21.8766L23.3442 20.0011C23.538 19.9204 23.7039 19.782 23.8208 19.6038C23.9376 19.4255 24 19.2154 24 19.0004V13.0556ZM17.55 21.9994V15.2605L12 13.0556V19.001C12.0001 19.2159 12.0626 19.4259 12.1794 19.604C12.2962 19.7822 12.4621 19.9204 12.6558 20.0011L17.1546 21.8766C17.2836 21.9303 17.4156 21.9704 17.55 21.9994ZM12.3798 12.2147L18 14.4474L20.3502 13.5133L14.6244 11.2245L12.6558 12.045C12.5538 12.0876 12.4614 12.145 12.3798 12.2147Z" fill="black"/>
<path d="M6.8454 10.1695C6.30323 9.94349 5.69677 9.94349 5.1546 10.1695L3.8406 10.7174L9.5958 13.0186L11.6202 12.2147C11.5372 12.1439 11.4441 12.0866 11.3442 12.045L6.8454 10.1695ZM12 13.0556L6.45 15.2605V21.9994C6.5844 21.9716 6.7164 21.9303 6.8454 21.8766L11.3442 20.0011C11.538 19.9204 11.7039 19.782 11.8208 19.6038C11.9376 19.4255 12 19.2154 12 19.0004V13.0562V13.0556ZM5.55 21.9994V15.2605L0 13.0556V19.001C0.000118211 19.2159 0.0625885 19.4259 0.179416 19.604C0.296244 19.7822 0.462114 19.9204 0.6558 20.0011L5.1546 21.8766C5.2836 21.9303 5.4156 21.971 5.55 22V21.9994ZM0.3798 12.2147L6 14.4474L8.3502 13.5133L2.6244 11.2245L0.6558 12.045C0.5538 12.0876 0.4614 12.145 0.3798 12.2147Z" fill="black"/>
</svg>
