<svg width="200" height="200" viewBox="0 0 200 200" fill="none" xmlns="http://www.w3.org/2000/svg">
<path d="M117.833 100H117.333C124.083 100 128 92.4172 124.167 86.9172L81.8334 26.4172C81.0654 25.3169 80.0431 24.4184 78.8534 23.7979C77.6637 23.1775 76.3418 22.8535 75.0001 22.8535C73.6583 22.8535 72.3364 23.1775 71.1467 23.7979C69.957 24.4184 68.9347 25.3169 68.1667 26.4172L25.8334 86.9172C22.0001 92.4172 25.9167 100 32.6667 100H32.1667L8.25007 137.167C4.66673 142.667 8.66673 150.001 15.2501 150.001H58.3334V166.667C58.3334 175.834 65.8334 183.334 75.0001 183.334C84.1667 183.334 91.6667 175.834 91.6667 166.667V150.001H134.75C141.333 150.001 145.333 142.667 141.75 137.167L117.833 100Z" fill="#00EF8B"/>
<path d="M191.75 137.167L167.833 100H167.333C174.083 100 178 92.4172 174.167 86.9172L131.833 26.4172C131.065 25.3169 130.043 24.4184 128.853 23.7979C127.664 23.1775 126.342 22.8535 125 22.8535C123.658 22.8535 122.336 23.1775 121.147 23.7979C119.957 24.4184 118.935 25.3169 118.167 26.4172L105.083 45.0838L131 82.0838C133.178 85.1913 134.232 88.9477 133.99 92.7345C133.747 96.5213 132.223 100.113 129.667 102.917L148.75 132.667C152.083 137.834 152.25 144.334 149.333 149.667C149.25 149.834 149.167 149.917 149.083 150.001H184.75C191.333 150.001 195.333 142.667 191.75 137.167ZM108.333 166.667C108.333 175.834 115.833 183.334 125 183.334C134.167 183.334 141.667 175.834 141.667 166.667V158.334H108.333V166.667Z" fill="#00EF8B"/>
<path d="M75.4097 145.902C96.2336 145.902 113.115 129.021 113.115 108.197C113.115 87.3733 96.2336 70.4922 75.4097 70.4922C54.5859 70.4922 37.7048 87.3733 37.7048 108.197C37.7048 129.021 54.5859 145.902 75.4097 145.902Z" fill="#00EF8B"/>
<path d="M91.9548 102.3H81.3069V112.948H91.9548V102.3Z" fill="white"/>
<path d="M70.6665 116.937C70.6665 117.727 70.4321 118.5 69.9929 119.157C69.5538 119.815 68.9296 120.327 68.1993 120.629C67.4689 120.932 66.6653 121.011 65.8901 120.857C65.1148 120.703 64.4026 120.322 63.8437 119.763C63.2847 119.204 62.9041 118.492 62.7498 117.717C62.5956 116.941 62.6748 116.138 62.9773 115.407C63.2798 114.677 63.7921 114.053 64.4493 113.614C65.1066 113.175 65.8793 112.94 66.6698 112.94H70.6665V102.3H66.6698C63.7748 102.3 60.9449 103.158 58.5379 104.767C56.1308 106.375 54.2547 108.661 53.1469 111.336C52.0391 114.01 51.7492 116.953 52.314 119.792C52.8787 122.632 54.2728 125.24 56.3198 127.287C58.3668 129.334 60.9749 130.728 63.8142 131.293C66.6535 131.857 69.5966 131.568 72.2711 130.46C74.9457 129.352 77.2317 127.476 78.84 125.069C80.4484 122.662 81.3068 119.832 81.3068 116.937V112.94H70.6665V116.937Z" fill="white"/>
<path d="M85.3031 96.977H97.2781V86.3291H85.3031C81.4223 86.3331 77.7016 87.8765 74.9575 90.6206C72.2134 93.3647 70.67 97.0854 70.666 100.966V102.301H81.3063V100.966C81.3083 99.9075 81.7303 98.8928 82.4796 98.1449C83.2289 97.397 84.2444 96.977 85.3031 96.977Z" fill="white"/>
<path d="M70.666 112.94H81.3063V102.3H70.666V112.94Z" fill="#16FF99"/>
</svg>
