<svg width="25" height="24" viewBox="0 0 25 24" fill="none" xmlns="http://www.w3.org/2000/svg">
<path d="M12.0454 22C6.52241 22 2.04541 17.523 2.04541 12C2.04541 6.477 6.52241 2 12.0454 2C17.5684 2 22.0454 6.477 22.0454 12C22.0454 17.523 17.5684 22 12.0454 22ZM12.0454 20C14.1671 20 16.202 19.1571 17.7023 17.6569C19.2026 16.1566 20.0454 14.1217 20.0454 12C20.0454 9.87827 19.2026 7.84344 17.7023 6.34315C16.202 4.84285 14.1671 4 12.0454 4C9.92368 4 7.88885 4.84285 6.38856 6.34315C4.88827 7.84344 4.04541 9.87827 4.04541 12C4.04541 14.1217 4.88827 16.1566 6.38856 17.6569C7.88885 19.1571 9.92368 20 12.0454 20ZM8.54541 14H14.0454C14.178 14 14.3052 13.9473 14.399 13.8536C14.4927 13.7598 14.5454 13.6326 14.5454 13.5C14.5454 13.3674 14.4927 13.2402 14.399 13.1464C14.3052 13.0527 14.178 13 14.0454 13H10.0454C9.38237 13 8.74648 12.7366 8.27764 12.2678C7.8088 11.7989 7.54541 11.163 7.54541 10.5C7.54541 9.83696 7.8088 9.20107 8.27764 8.73223C8.74648 8.26339 9.38237 8 10.0454 8H11.0454V6H13.0454V8H15.5454V10H10.0454C9.9128 10 9.78562 10.0527 9.69186 10.1464C9.59809 10.2402 9.54541 10.3674 9.54541 10.5C9.54541 10.6326 9.59809 10.7598 9.69186 10.8536C9.78562 10.9473 9.9128 11 10.0454 11H14.0454C14.7085 11 15.3443 11.2634 15.8132 11.7322C16.282 12.2011 16.5454 12.837 16.5454 13.5C16.5454 14.163 16.282 14.7989 15.8132 15.2678C15.3443 15.7366 14.7085 16 14.0454 16H13.0454V18H11.0454V16H8.54541V14Z" fill="#33347B"/>
</svg>
