<svg width="40" height="40" viewBox="0 0 40 40" fill="none" xmlns="http://www.w3.org/2000/svg">
    <rect width="40" height="40" fill="white"/>
    <path d="M37 29C37 34.5228 29.3888 39 20 39C10.6112 39 3 34.5228 3 29C3 23.4772 10.6112 19 20 19C29.3888 19 37 23.4772 37 29Z" fill="#1A2138"/>
    <path d="M34 19C34 20.7115 33.2468 22.4193 31.9851 24.072C30.7259 25.7213 29.0145 27.2432 27.2378 28.5592C24.2082 30.8033 21.0957 32.3713 20 32.8961C18.9043 32.3713 15.7918 30.8033 12.7622 28.5592C10.9855 27.2432 9.2741 25.7213 8.01491 24.072C6.75318 22.4193 6 20.7115 6 19C6 15.1933 8.06996 11.7034 10.6799 10.2976C11.9571 9.60958 13.3451 9.42429 14.727 9.89599C16.1239 10.3728 17.6412 11.5652 19.0585 13.876C19.4882 14.5766 20.5118 14.5766 20.9415 13.876C22.3588 11.5652 23.8761 10.3728 25.273 9.89599C26.6549 9.42429 28.0429 9.60958 29.3201 10.2976C31.93 11.7034 34 15.1933 34 19Z" fill="white" stroke="#1A2138" stroke-width="2"/>
</svg>
