<svg width="19" height="19" viewBox="0 0 19 19" fill="none" xmlns="http://www.w3.org/2000/svg">
<path d="M8.47619 4.7873C7.97663 4.7873 7.49753 4.98456 7.14429 5.33569C6.79104 5.68682 6.59259 6.16306 6.59259 6.65964V8.53198C6.59259 9.02855 6.79104 9.50479 7.14429 9.85592C7.49753 10.2071 7.97663 10.4043 8.47619 10.4043H10.3598V12.2767H6.59259V14.149H10.3598C10.8593 14.149 11.3384 13.9517 11.6917 13.6006C12.0449 13.2495 12.2434 12.7732 12.2434 12.2767V10.4043C12.2434 9.90774 12.0449 9.43151 11.6917 9.08037C11.3384 8.72924 10.8593 8.53198 10.3598 8.53198H8.47619V6.65964H12.2434V4.7873H8.47619ZM9.41799 0.106445C10.6548 0.106445 11.8795 0.348593 13.0221 0.819063C14.1647 1.28953 15.203 1.97911 16.0775 2.84842C16.9521 3.71774 17.6458 4.74976 18.1191 5.88558C18.5924 7.02139 18.836 8.23875 18.836 9.46815C18.836 11.951 17.8437 14.3322 16.0775 16.0879C14.3113 17.8435 11.9158 18.8298 9.41799 18.8298C8.1812 18.8298 6.95652 18.5877 5.81388 18.1172C4.67124 17.6468 3.63301 16.9572 2.75847 16.0879C0.992249 14.3322 0 11.951 0 9.46815C0 6.98527 0.992249 4.60408 2.75847 2.84842C4.52468 1.09276 6.92018 0.106445 9.41799 0.106445Z" fill="black"/>
</svg>
