<svg width="20" height="19" viewBox="0 0 20 19" fill="none" xmlns="http://www.w3.org/2000/svg">
<path d="M9.64016 0.106445C10.8769 0.106445 12.1016 0.348593 13.2443 0.819063C14.3869 1.28953 15.4251 1.97911 16.2997 2.84842C17.1742 3.71774 17.8679 4.74976 18.3412 5.88558C18.8145 7.02139 19.0581 8.23875 19.0581 9.46815C19.0581 11.951 18.0659 14.3322 16.2997 16.0879C14.5335 17.8435 12.138 18.8298 9.64016 18.8298C8.40337 18.8298 7.17869 18.5877 6.03605 18.1172C4.8934 17.6468 3.85517 16.9572 2.98063 16.0879C1.21442 14.3322 0.222168 11.951 0.222168 9.46815C0.222168 6.98527 1.21442 4.60408 2.98063 2.84842C4.74685 1.09276 7.14235 0.106445 9.64016 0.106445ZM6.81476 4.7873V14.149H12.4656V12.2767H8.69836V10.4043H12.4656V8.53198H8.69836V6.65964H12.4656V4.7873H6.81476Z" fill="black"/>
</svg>
