<svg width="76" height="60" viewBox="0 0 76 60" fill="none" xmlns="http://www.w3.org/2000/svg">
    <path d="M71.6592 33.9619C71.3303 32.78 70.8059 31.6179 70.1006 30.51C69.4557 29.4904 68.6462 28.4962 67.6943 27.5578C66.6053 26.4751 65.3117 25.4466 63.8444 24.4974C63.7787 24.2737 63.7111 24.0499 63.6453 23.8262C63.0606 21.8593 62.4558 19.8256 61.7999 17.8263C61.7231 17.5917 61.6025 17.155 61.4618 16.6479C61.0087 15.0077 60.2522 12.263 59.2071 9.92624C57.7253 6.6114 56.0443 5 54.0673 5C53.1135 5 52.1853 5.39338 51.3101 6.1693C51.2078 6.25953 51.1183 6.36419 51.0452 6.47968C49.3039 9.23332 47.9664 12.2161 47.0693 15.3487C46.3622 17.5195 45.6478 19.7715 44.9406 22.056C42.7517 22.0307 40.3198 22.0109 37.9554 21.991C35.2804 21.9694 32.5251 21.9459 30.0767 21.9152L29.9707 21.7438C28.5364 19.425 27.0509 17.0269 25.2274 15.3848C23.7986 14.0982 22.4209 13.472 21.014 13.472C18.7191 13.472 16.9358 15.1466 15.3498 16.9547C13.6852 18.8548 12.2564 20.9372 10.8732 22.9492C9.96148 24.2773 9.02049 25.6487 8.032 26.9317C5.26751 29.4417 3.5719 32.3343 3.12607 35.3081C3.04385 35.8458 3 36.4034 3 36.9592C3 37.9841 3.14435 39.0127 3.42938 40.0142C3.75644 41.1763 4.27901 42.3275 4.9843 43.4319C5.85402 44.7997 7.01244 46.1151 8.42667 47.3368C8.50706 47.4053 8.58198 47.4703 8.65872 47.5317C10.0327 48.6793 11.7795 49.7818 13.8533 50.8068C16.1007 51.9184 18.6496 52.909 21.4306 53.7499C21.5694 53.7914 21.7138 53.8131 21.8581 53.8131H21.8691C25.3845 53.7896 29.1649 53.7409 33.1682 53.6886C39.1942 53.611 45.4267 53.5316 51.1767 53.5316C52.7152 53.5316 54.1769 53.537 55.5217 53.5496H55.5345C55.7136 53.5496 55.8908 53.5171 56.0571 53.454C59.9051 51.9978 63.3584 50.0291 66.0443 47.759C66.8574 47.0733 67.6011 46.3569 68.2534 45.6351C69.1633 44.63 69.9234 43.5834 70.5136 42.5278C71.0142 41.6382 71.3979 40.727 71.6556 39.8229C71.9296 38.8756 72.0685 37.9102 72.0685 36.9592C72.0685 35.9505 71.9296 34.9418 71.6556 33.9583L71.6592 33.9619ZM69.4958 33.8013C68.5074 33.7905 67.4458 33.7364 66.2289 33.6371C65.8982 33.0453 65.5876 32.4372 65.2934 31.82C66.4189 31.82 67.5079 31.82 68.5476 31.82C68.9386 32.4696 69.2547 33.1319 69.4958 33.8032V33.8013ZM67.8185 30.7355C66.8593 30.7355 65.8562 30.7355 64.8329 30.7355C64.6539 30.2014 64.4785 29.6673 64.3067 29.1331C65.0668 29.1187 65.763 29.1115 66.4189 29.1115C66.9397 29.6402 67.4056 30.1816 67.8185 30.7355ZM65.2696 28.036C64.8549 28.0414 64.4237 28.0487 63.9687 28.0577C63.828 27.6048 63.6891 27.1536 63.5521 26.7007C64.166 27.132 64.7379 27.5777 65.2696 28.036ZM48.9915 15.9316L48.9969 15.9135C49.8356 12.9776 51.0854 10.1807 52.7097 7.59665C53.3346 7.06252 53.9102 6.88027 54.4675 7.04267C56.9268 7.76086 58.8124 14.5926 59.5232 17.1658C59.6767 17.7198 59.7973 18.1565 59.8886 18.438C59.9362 18.5805 59.98 18.7249 60.0275 18.8693C58.8581 16.112 57.2521 13.1328 55.1472 12.2811C54.3962 11.9761 53.5137 11.617 52.4777 12.4507C52.4375 12.4832 52.3808 12.4904 52.3443 12.5283C50.6121 14.3075 49.2637 16.3773 48.3373 18.6834C48.0815 19.2446 47.8276 19.8112 47.5754 20.376C48.0432 18.8891 48.5146 17.4058 48.9933 15.9334L48.9915 15.9316ZM33.0239 23.9236C37.082 23.9832 41.3156 24.0463 45.2714 24.1004C44.9224 25.2445 44.577 26.3867 44.239 27.5272C44.144 27.8321 44.0472 28.1696 43.9485 28.5377C41.5933 28.4745 39.5724 28.3284 37.7946 28.0902C34.9187 27.704 32.7644 25.9266 30.6011 23.8911L33.0239 23.9272V23.9236ZM43.6635 29.6113C43.6287 29.7431 43.594 29.8784 43.5593 30.0155C43.4332 30.3494 43.3017 30.6958 43.1628 31.0531C40.8442 31.1018 39.1339 30.9773 37.6539 30.6543C35.4632 30.1761 33.7347 28.6532 32.2145 26.7242C33.7986 27.9332 35.5454 28.8805 37.6448 29.162C39.397 29.3966 41.374 29.5446 43.6616 29.6131L43.6635 29.6113ZM8.42849 29.301L8.41205 29.2865C9.91215 27.529 11.235 25.6938 12.5159 23.9146C13.8716 22.0289 15.2749 20.0783 16.8736 18.2557C18.5528 16.3394 19.7112 15.531 20.8678 15.4624C21.7942 15.4083 22.779 15.863 23.8771 16.8518C25.4923 18.3063 26.8408 20.4843 28.2678 22.7922C30.7016 26.726 33.2176 30.7933 37.4201 31.7118C38.7758 32.0077 40.2978 32.1466 42.2438 32.1466C42.4027 32.1466 42.5672 32.1466 42.7298 32.143C42.3077 33.168 41.8326 34.22 41.2936 35.1926C39.9141 35.2359 38.7283 35.1258 37.6795 34.8498C33.731 33.8122 31.6992 30.0282 29.5486 26.024C27.917 22.9853 26.2287 19.8419 23.6049 18.0085C22.5232 17.2524 21.4251 16.9691 20.3398 17.1658C17.9864 17.5917 16.2506 20.1414 14.8564 22.1895C14.7304 22.3754 14.6061 22.5558 14.4874 22.729C14.0415 23.3732 13.5994 24.0265 13.1554 24.6833C10.9865 27.8844 8.20741 31.5854 5.23644 34.3427C5.57812 32.8287 6.41862 31.423 8.43032 29.3046L8.42849 29.301ZM5.01353 36.961C5.01353 36.6145 5.01901 36.2879 5.03363 35.9739C8.45773 33.0687 11.6333 28.8715 14.0653 25.2806C14.5075 24.6274 14.9478 23.9759 15.3918 23.3353C15.5124 23.1603 15.6385 22.9763 15.7645 22.7886C17.0454 20.9083 18.6368 18.5697 20.5371 18.2269C21.3301 18.0825 22.1267 18.299 22.9709 18.8891C25.3809 20.5727 27.0071 23.6006 28.5802 26.5293C30.7473 30.5641 32.9874 34.7343 37.3981 35.8945C38.3683 36.149 39.4354 36.2771 40.634 36.2843C39.7186 37.6702 38.6424 38.7583 37.3671 39.139C35.1525 39.8013 32.0701 36.629 29.09 33.5614C26.3438 30.7355 23.7492 28.0649 21.4178 27.8502C17.8183 27.5163 14.9496 30.6273 12.176 33.6335C9.98889 36.0028 7.736 38.4461 5.25289 39.0055C5.09758 38.3306 5.01353 37.6485 5.01353 36.961ZM5.5562 40.0467C8.34262 39.3934 10.6997 36.8419 12.9873 34.3625C15.7006 31.423 18.2604 28.6459 21.3173 28.9274C23.2431 29.1061 25.8139 31.7515 28.3007 34.3102C31.1712 37.2641 34.1275 40.3065 36.7641 40.3065C37.0765 40.3065 37.3835 40.2632 37.6868 40.173C39.1412 39.7381 40.3289 38.6374 41.3229 37.2281C40.3399 39.5468 39.0663 41.4921 37.347 42.1344C36.1867 42.5675 34.1038 42.3853 32.4301 42.2391C31.6554 42.1723 30.9245 42.1074 30.3197 42.102C28.0412 42.0803 25.3919 42.0569 22.79 42.0532C20.2064 42.0514 17.5807 42.0695 15.041 42.0875C12.2546 42.1074 9.38593 42.1272 6.54652 42.12C6.13541 41.4415 5.80652 40.7486 5.55802 40.0449L5.5562 40.0467ZM54.663 52.1042V52.0916L54.6684 52.1042H54.663ZM54.493 51.5773L54.4967 51.5881C47.4365 51.4943 40.0731 51.5972 32.949 51.7C29.1448 51.7541 25.2146 51.8101 21.4068 51.8354C19.5358 51.2687 17.7945 50.6101 16.2031 49.8775C17.694 49.8955 19.174 49.9262 20.6211 49.9569C22.8028 50.0038 24.9351 50.0507 27.06 50.0507C30.5317 50.0507 33.974 49.9262 37.537 49.4805C41.427 48.9933 43.8535 46.2631 46.2014 43.6231C46.8829 42.8562 47.5882 42.0641 48.3154 41.3423C49.6657 40.0034 51.142 39.3646 52.823 39.3952C56.8574 39.462 61.2316 43.4228 64.3286 46.6475C61.7396 48.627 58.3831 50.3142 54.493 51.5773ZM65.847 45.3753C65.6332 45.5738 65.4103 45.7687 65.1819 45.9636C61.9424 42.5838 57.305 38.3883 52.8413 38.3144C50.8716 38.2909 49.0883 39.0434 47.5389 40.5808C46.7861 41.326 46.0698 42.1326 45.3773 42.9122C43.0623 45.5142 40.877 47.9738 37.4 48.4086C31.7394 49.1178 26.3511 49.0005 20.6467 48.876C18.5035 48.8291 16.2853 48.7822 14.0616 48.7822V48.7966C12.9178 48.165 11.8709 47.4902 10.9262 46.7792C12.8758 46.7395 14.6993 46.6384 16.4717 46.5374C18.7118 46.4111 21.0286 46.2811 23.5702 46.2811C24.7816 46.2811 26.1775 46.3768 27.6539 46.4778C31.0524 46.7106 34.9059 46.9741 37.7051 46.1043C40.7583 45.1533 42.368 41.169 43.5447 38.2602C43.7439 37.7676 43.9321 37.302 44.1111 36.8888L44.2299 36.6181C46.4828 31.4339 48.1089 27.6896 51.1585 22.7832L51.248 22.637C51.6957 21.9116 53.0587 19.7029 54.0107 19.6903H54.0198C55.0138 19.6903 56.4097 21.9748 56.8684 22.7272L56.9853 22.9185C59.6511 27.2348 61.8675 32.2603 64.0107 37.1216C65.0284 39.4277 66.0772 41.806 67.1461 44.0328C66.7515 44.4893 66.3203 44.9386 65.8488 45.3771L65.847 45.3753ZM67.9026 43.0782C66.9305 41.0283 65.9968 38.9116 65.0157 36.6867C62.8578 31.793 60.625 26.7314 57.9208 22.3519L57.8057 22.166C56.6765 20.3164 55.4359 18.6058 54.018 18.6058C54.0107 18.6058 54.0015 18.6058 53.9942 18.6058C52.6257 18.6238 51.4143 20.2822 50.3107 22.0704L50.223 22.213C47.1314 27.1879 45.4924 30.9629 43.2213 36.1887L43.1025 36.4594C42.918 36.8852 42.7261 37.358 42.5251 37.8578C41.4307 40.5664 39.9324 44.2746 37.3744 45.0703C34.7725 45.8806 31.0305 45.6225 27.7288 45.397C26.2323 45.2941 24.8181 45.1967 23.5683 45.1967C20.9957 45.1967 18.6624 45.3284 16.4077 45.4565C14.2571 45.5774 12.0353 45.7019 9.61249 45.7109C8.70805 44.9115 7.92785 44.0743 7.27921 43.2081C9.88291 43.2117 12.5012 43.1937 15.0501 43.1738C17.588 43.1558 20.2119 43.1359 22.79 43.1395C25.3864 43.1432 28.0321 43.1666 30.3087 43.1883C30.8697 43.1937 31.5804 43.255 32.3314 43.3218C33.2797 43.4048 34.2938 43.4932 35.2439 43.4932C36.194 43.4932 37.0418 43.4084 37.7325 43.1504C41.6938 41.6725 43.4387 34.8858 44.5953 30.3945L44.6099 30.3403C44.6483 30.2393 44.6867 30.1382 44.7232 30.0372C45.0046 29.2883 45.2714 28.581 45.5144 28.009C46.7166 25.0316 48.0048 22.0397 49.3404 19.1165L49.3496 19.093C50.1608 17.072 51.3138 15.244 52.781 13.6489C53.0752 13.3295 53.4881 13.1274 53.9248 13.122C54.1934 13.1184 54.4601 13.1725 54.7306 13.2808C57.1826 14.2732 59.103 19.3871 60.1353 22.1354C60.3546 22.7182 60.5428 23.2217 60.6944 23.5699C61.1951 24.7284 61.6738 25.9446 62.1342 27.1212C62.7061 28.5774 63.2835 30.0498 63.9322 31.4844C65.1618 35.0753 66.629 38.6157 68.6572 41.9215C68.4324 42.3113 68.1785 42.6956 67.9026 43.0764V43.0782ZM69.2401 40.7775C68.606 39.6984 68.0305 38.5922 67.4988 37.4663C68.1438 38.2458 68.8563 38.9784 69.6566 39.6479C69.5415 40.0268 69.4045 40.4039 69.2401 40.7775ZM69.9362 38.4479C68.7431 37.367 67.7564 36.1219 66.9049 34.774C67.9683 34.8479 68.9203 34.884 69.8193 34.8858C69.9801 35.5715 70.0623 36.2645 70.0623 36.961C70.0623 37.459 70.0166 37.9535 69.9344 38.4479H69.9362Z" fill="black"/>
</svg>
